<?xml version="1.0" encoding="UTF-8" standalone="no"?>
<!DOCTYPE svg PUBLIC "-//W3C//DTD SVG 1.1//EN"
 "http://www.w3.org/Graphics/SVG/1.1/DTD/svg11.dtd">
<!-- Generated by graphviz version 2.36.0 (20140111.2315)
 -->
<!-- Title: controllers_diagram Pages: 1 -->
<svg width="730pt" height="562pt"
 viewBox="0.00 0.00 730.00 562.43" xmlns="http://www.w3.org/2000/svg" xmlns:xlink="http://www.w3.org/1999/xlink">
<g id="graph0" class="graph" transform="scale(1 1) rotate(0) translate(4 558.433)">
<title>controllers_diagram</title>
<polygon fill="white" stroke="none" points="-4,4 -4,-558.433 726,-558.433 726,4 -4,4"/>
<!-- _diagram_info -->
<g id="node1" class="node"><title>_diagram_info</title>
<text text-anchor="start" x="548" y="-63.6" font-family="Times,serif" font-size="13.00">Controllers diagram</text>
<text text-anchor="start" x="548" y="-49.6" font-family="Times,serif" font-size="13.00">Date: Jun 14 2014 &#45; 01:02</text>
<text text-anchor="start" x="548" y="-35.6" font-family="Times,serif" font-size="13.00">Migration version: 0</text>
<text text-anchor="start" x="548" y="-21.6" font-family="Times,serif" font-size="13.00">Generated by RailRoady 1.1.1</text>
<text text-anchor="start" x="548" y="-7.6" font-family="Times,serif" font-size="13.00">http://railroady.prestonlee.com</text>
</g>
<!-- HomeController -->
<g id="node2" class="node"><title>HomeController</title>
<path fill="none" stroke="black" d="M40.0122,-45.4497C40.0122,-45.4497 122.012,-45.4497 122.012,-45.4497 128.012,-45.4497 134.012,-51.4497 134.012,-57.4497 134.012,-57.4497 134.012,-126.45 134.012,-126.45 134.012,-132.45 128.012,-138.45 122.012,-138.45 122.012,-138.45 40.0122,-138.45 40.0122,-138.45 34.0122,-138.45 28.0122,-132.45 28.0122,-126.45 28.0122,-126.45 28.0122,-57.4497 28.0122,-57.4497 28.0122,-51.4497 34.0122,-45.4497 40.0122,-45.4497"/>
<text text-anchor="middle" x="81.0122" y="-123.25" font-family="Times,serif" font-size="14.00">HomeController</text>
<polyline fill="none" stroke="black" points="28.0122,-115.45 134.012,-115.45 "/>
<text text-anchor="start" x="36.0122" y="-100.25" font-family="Times,serif" font-size="14.00">index</text>
<polyline fill="none" stroke="black" points="28.0122,-92.4497 134.012,-92.4497 "/>
<polyline fill="none" stroke="black" points="28.0122,-68.4497 134.012,-68.4497 "/>
<text text-anchor="start" x="36.0122" y="-53.2497" font-family="Times,serif" font-size="14.00">_layout</text>
</g>
<!-- ApplicationController -->
<g id="node3" class="node"><title>ApplicationController</title>
<path fill="none" stroke="black" d="M190.826,-196.42C190.826,-196.42 302.826,-196.42 302.826,-196.42 308.826,-196.42 314.826,-202.42 314.826,-208.42 314.826,-208.42 314.826,-307.42 314.826,-307.42 314.826,-313.42 308.826,-319.42 302.826,-319.42 302.826,-319.42 190.826,-319.42 190.826,-319.42 184.826,-319.42 178.826,-313.42 178.826,-307.42 178.826,-307.42 178.826,-208.42 178.826,-208.42 178.826,-202.42 184.826,-196.42 190.826,-196.42"/>
<text text-anchor="middle" x="246.826" y="-304.22" font-family="Times,serif" font-size="14.00">ApplicationController</text>
<polyline fill="none" stroke="black" points="178.826,-296.42 314.826,-296.42 "/>
<polyline fill="none" stroke="black" points="178.826,-272.42 314.826,-272.42 "/>
<text text-anchor="start" x="186.826" y="-257.22" font-family="Times,serif" font-size="14.00">authenticate_user</text>
<text text-anchor="start" x="186.826" y="-242.22" font-family="Times,serif" font-size="14.00">save_login_state</text>
<text text-anchor="start" x="186.826" y="-227.22" font-family="Times,serif" font-size="14.00">set_admin</text>
<polyline fill="none" stroke="black" points="178.826,-219.42 314.826,-219.42 "/>
<text text-anchor="start" x="186.826" y="-204.22" font-family="Times,serif" font-size="14.00">_layout</text>
</g>
<!-- ApplicationController&#45;&gt;HomeController -->
<g id="edge1" class="edge"><title>ApplicationController&#45;&gt;HomeController</title>
<path fill="none" stroke="black" d="M185.083,-196.119C166.023,-177.041 145.364,-156.362 127.514,-138.496"/>
</g>
<!-- SessionsController -->
<g id="node4" class="node"><title>SessionsController</title>
<path fill="none" stroke="black" d="M369.959,-0.5C369.959,-0.5 464.959,-0.5 464.959,-0.5 470.959,-0.5 476.959,-6.5 476.959,-12.5 476.959,-12.5 476.959,-111.5 476.959,-111.5 476.959,-117.5 470.959,-123.5 464.959,-123.5 464.959,-123.5 369.959,-123.5 369.959,-123.5 363.959,-123.5 357.959,-117.5 357.959,-111.5 357.959,-111.5 357.959,-12.5 357.959,-12.5 357.959,-6.5 363.959,-0.5 369.959,-0.5"/>
<text text-anchor="middle" x="417.459" y="-108.3" font-family="Times,serif" font-size="14.00">SessionsController</text>
<polyline fill="none" stroke="black" points="357.959,-100.5 476.959,-100.5 "/>
<text text-anchor="start" x="365.959" y="-85.3" font-family="Times,serif" font-size="14.00">login</text>
<text text-anchor="start" x="365.959" y="-70.3" font-family="Times,serif" font-size="14.00">logout</text>
<text text-anchor="start" x="365.959" y="-55.3" font-family="Times,serif" font-size="14.00">try_login</text>
<polyline fill="none" stroke="black" points="357.959,-47.5 476.959,-47.5 "/>
<polyline fill="none" stroke="black" points="357.959,-23.5 476.959,-23.5 "/>
<text text-anchor="start" x="365.959" y="-8.3" font-family="Times,serif" font-size="14.00">_layout</text>
</g>
<!-- ApplicationController&#45;&gt;SessionsController -->
<g id="edge2" class="edge"><title>ApplicationController&#45;&gt;SessionsController</title>
<path fill="none" stroke="black" d="M300.581,-196.199C320.705,-173.093 343.555,-146.856 363.681,-123.748"/>
</g>
<!-- OffersController -->
<g id="node5" class="node"><title>OffersController</title>
<path fill="none" stroke="black" d="M345.259,-415.933C345.259,-415.933 431.259,-415.933 431.259,-415.933 437.259,-415.933 443.259,-421.933 443.259,-427.933 443.259,-427.933 443.259,-541.933 443.259,-541.933 443.259,-547.933 437.259,-553.933 431.259,-553.933 431.259,-553.933 345.259,-553.933 345.259,-553.933 339.259,-553.933 333.259,-547.933 333.259,-541.933 333.259,-541.933 333.259,-427.933 333.259,-427.933 333.259,-421.933 339.259,-415.933 345.259,-415.933"/>
<text text-anchor="middle" x="388.259" y="-538.733" font-family="Times,serif" font-size="14.00">OffersController</text>
<polyline fill="none" stroke="black" points="333.259,-530.933 443.259,-530.933 "/>
<text text-anchor="start" x="341.259" y="-515.733" font-family="Times,serif" font-size="14.00">index</text>
<text text-anchor="start" x="341.259" y="-500.733" font-family="Times,serif" font-size="14.00">make_offer</text>
<text text-anchor="start" x="341.259" y="-485.733" font-family="Times,serif" font-size="14.00">make_offer_save</text>
<text text-anchor="start" x="341.259" y="-470.733" font-family="Times,serif" font-size="14.00">show</text>
<polyline fill="none" stroke="black" points="333.259,-462.933 443.259,-462.933 "/>
<polyline fill="none" stroke="black" points="333.259,-438.933 443.259,-438.933 "/>
<text text-anchor="start" x="341.259" y="-423.733" font-family="Times,serif" font-size="14.00">_layout</text>
</g>
<!-- ApplicationController&#45;&gt;OffersController -->
<g id="edge3" class="edge"><title>ApplicationController&#45;&gt;OffersController</title>
<path fill="none" stroke="black" d="M285.287,-319.653C303.773,-349.325 326.003,-385.005 345.069,-415.608"/>
</g>
<!-- StoreusersController -->
<g id="node6" class="node"><title>StoreusersController</title>
<path fill="none" stroke="black" d="M432.985,-190.913C432.985,-190.913 536.985,-190.913 536.985,-190.913 542.985,-190.913 548.985,-196.913 548.985,-202.913 548.985,-202.913 548.985,-391.913 548.985,-391.913 548.985,-397.913 542.985,-403.913 536.985,-403.913 536.985,-403.913 432.985,-403.913 432.985,-403.913 426.985,-403.913 420.985,-397.913 420.985,-391.913 420.985,-391.913 420.985,-202.913 420.985,-202.913 420.985,-196.913 426.985,-190.913 432.985,-190.913"/>
<text text-anchor="middle" x="484.985" y="-388.713" font-family="Times,serif" font-size="14.00">StoreusersController</text>
<polyline fill="none" stroke="black" points="420.985,-380.913 548.985,-380.913 "/>
<text text-anchor="start" x="428.985" y="-365.713" font-family="Times,serif" font-size="14.00">create</text>
<text text-anchor="start" x="428.985" y="-350.713" font-family="Times,serif" font-size="14.00">destroy</text>
<text text-anchor="start" x="428.985" y="-335.713" font-family="Times,serif" font-size="14.00">edit</text>
<text text-anchor="start" x="428.985" y="-320.713" font-family="Times,serif" font-size="14.00">index</text>
<text text-anchor="start" x="428.985" y="-305.713" font-family="Times,serif" font-size="14.00">new</text>
<text text-anchor="start" x="428.985" y="-290.713" font-family="Times,serif" font-size="14.00">show</text>
<text text-anchor="start" x="428.985" y="-275.713" font-family="Times,serif" font-size="14.00">update</text>
<polyline fill="none" stroke="black" points="420.985,-267.913 548.985,-267.913 "/>
<polyline fill="none" stroke="black" points="420.985,-243.913 548.985,-243.913 "/>
<text text-anchor="start" x="428.985" y="-228.713" font-family="Times,serif" font-size="14.00">_layout</text>
<text text-anchor="start" x="428.985" y="-213.713" font-family="Times,serif" font-size="14.00">set_storeuser</text>
<text text-anchor="start" x="428.985" y="-198.713" font-family="Times,serif" font-size="14.00">storeuser_params</text>
</g>
<!-- ApplicationController&#45;&gt;StoreusersController -->
<g id="edge4" class="edge"><title>ApplicationController&#45;&gt;StoreusersController</title>
<path fill="none" stroke="black" d="M315.073,-269.237C348.336,-274.753 388.115,-281.349 420.818,-286.772"/>
</g>
<!-- StoreproductsController -->
<g id="node7" class="node"><title>StoreproductsController</title>
<path fill="none" stroke="black" d="M12,-345.852C12,-345.852 135,-345.852 135,-345.852 141,-345.852 147,-351.852 147,-357.852 147,-357.852 147,-501.852 147,-501.852 147,-507.852 141,-513.852 135,-513.852 135,-513.852 12,-513.852 12,-513.852 6,-513.852 -2.84217e-14,-507.852 -2.84217e-14,-501.852 -2.84217e-14,-501.852 -2.84217e-14,-357.852 -2.84217e-14,-357.852 -2.84217e-14,-351.852 6,-345.852 12,-345.852"/>
<text text-anchor="middle" x="73.5" y="-498.652" font-family="Times,serif" font-size="14.00">StoreproductsController</text>
<polyline fill="none" stroke="black" points="-2.84217e-14,-490.852 147,-490.852 "/>
<text text-anchor="start" x="8" y="-475.652" font-family="Times,serif" font-size="14.00">create</text>
<text text-anchor="start" x="8" y="-460.652" font-family="Times,serif" font-size="14.00">edit</text>
<text text-anchor="start" x="8" y="-445.652" font-family="Times,serif" font-size="14.00">index</text>
<text text-anchor="start" x="8" y="-430.652" font-family="Times,serif" font-size="14.00">new</text>
<text text-anchor="start" x="8" y="-415.652" font-family="Times,serif" font-size="14.00">show</text>
<text text-anchor="start" x="8" y="-400.652" font-family="Times,serif" font-size="14.00">update</text>
<polyline fill="none" stroke="black" points="-2.84217e-14,-392.852 147,-392.852 "/>
<polyline fill="none" stroke="black" points="-2.84217e-14,-368.852 147,-368.852 "/>
<text text-anchor="start" x="8" y="-353.652" font-family="Times,serif" font-size="14.00">_layout</text>
</g>
<!-- ApplicationController&#45;&gt;StoreproductsController -->
<g id="edge5" class="edge"><title>ApplicationController&#45;&gt;StoreproductsController</title>
<path fill="none" stroke="black" d="M184.741,-319.506C172.599,-331.55 159.755,-344.291 147.276,-356.669"/>
</g>
</g>
</svg>
