<?xml version="1.0" encoding="UTF-8" standalone="no"?>
<!DOCTYPE svg PUBLIC "-//W3C//DTD SVG 1.1//EN"
 "http://www.w3.org/Graphics/SVG/1.1/DTD/svg11.dtd">
<!-- Generated by graphviz version 2.36.0 (20140111.2315)
 -->
<!-- Title: models_diagram Pages: 1 -->
<svg width="770pt" height="396pt"
 viewBox="0.00 0.00 770.00 396.00" xmlns="http://www.w3.org/2000/svg" xmlns:xlink="http://www.w3.org/1999/xlink">
<g id="graph0" class="graph" transform="scale(1 1) rotate(0) translate(4 392)">
<title>models_diagram</title>
<polygon fill="white" stroke="none" points="-4,4 -4,-392 766,-392 766,4 -4,4"/>
<!-- _diagram_info -->
<g id="node1" class="node"><title>_diagram_info</title>
<text text-anchor="start" x="74" y="-373.6" font-family="Times,serif" font-size="13.00">Models diagram</text>
<text text-anchor="start" x="74" y="-359.6" font-family="Times,serif" font-size="13.00">Date: Jun 14 2014 &#45; 01:02</text>
<text text-anchor="start" x="74" y="-345.6" font-family="Times,serif" font-size="13.00">Migration version: 0</text>
<text text-anchor="start" x="74" y="-331.6" font-family="Times,serif" font-size="13.00">Generated by RailRoady 1.1.1</text>
<text text-anchor="start" x="74" y="-317.6" font-family="Times,serif" font-size="13.00">http://railroady.prestonlee.com</text>
</g>
<!-- Offer -->
<g id="node2" class="node"><title>Offer</title>
<ellipse fill="none" stroke="black" cx="72" cy="-180" rx="29.3479" ry="18"/>
<text text-anchor="middle" x="72" y="-176.3" font-family="Times,serif" font-size="14.00">Offer</text>
</g>
<!-- Product -->
<g id="node3" class="node"><title>Product</title>
<ellipse fill="none" stroke="black" cx="251" cy="-180" rx="38.0212" ry="18"/>
<text text-anchor="middle" x="251" y="-176.3" font-family="Times,serif" font-size="14.00">Product</text>
</g>
<!-- Productsfeature -->
<g id="node4" class="node"><title>Productsfeature</title>
<ellipse fill="none" stroke="black" cx="375" cy="-18" rx="65.4659" ry="18"/>
<text text-anchor="middle" x="375" y="-14.3" font-family="Times,serif" font-size="14.00">Productsfeature</text>
</g>
<!-- Product&#45;&gt;Productsfeature -->
<g id="edge2" class="edge"><title>Product&#45;&gt;Productsfeature</title>
<path fill="none" stroke="#7167a3" d="M242.105,-154.263C235.586,-131.487 230.32,-97.7316 246,-74 260.574,-51.9431 285.993,-38.7024 310.436,-30.7671"/>
<ellipse fill="none" stroke="#7167a3" cx="243.349" cy="-158.297" rx="4.00001" ry="4.00001"/>
<polygon fill="#7167a3" stroke="#7167a3" points="310.51,-30.7451 321.38,-32.1906 315.3,-29.3122 320.09,-27.8794 320.09,-27.8794 320.09,-27.8794 315.3,-29.3122 318.801,-23.5681 310.51,-30.7451 310.51,-30.7451"/>
</g>
<!-- Feature -->
<g id="node5" class="node"><title>Feature</title>
<ellipse fill="none" stroke="black" cx="375" cy="-92" rx="37.0701" ry="18"/>
<text text-anchor="middle" x="375" y="-88.3" font-family="Times,serif" font-size="14.00">Feature</text>
</g>
<!-- Product&#45;&gt;Feature -->
<g id="edge3" class="edge"><title>Product&#45;&gt;Feature</title>
<path fill="none" stroke="#362328" d="M283.141,-160.502C291.671,-155.351 300.79,-149.622 309,-144 322.591,-134.694 337.135,-123.588 349.101,-114.12"/>
<polygon fill="#362328" stroke="#362328" points="283.119,-160.515 272.225,-161.766 278.824,-163.074 274.528,-165.632 274.528,-165.632 274.528,-165.632 278.824,-163.074 276.831,-169.498 283.119,-160.515 283.119,-160.515"/>
<polygon fill="#362328" stroke="#362328" points="349.116,-114.109 359.738,-111.386 353.023,-110.989 356.93,-107.869 356.93,-107.869 356.93,-107.869 353.023,-110.989 354.123,-104.353 349.116,-114.109 349.116,-114.109"/>
</g>
<!-- Storeproduct -->
<g id="node8" class="node"><title>Storeproduct</title>
<ellipse fill="none" stroke="black" cx="143" cy="-92" rx="55.3436" ry="18"/>
<text text-anchor="middle" x="143" y="-88.3" font-family="Times,serif" font-size="14.00">Storeproduct</text>
</g>
<!-- Product&#45;&gt;Storeproduct -->
<g id="edge4" class="edge"><title>Product&#45;&gt;Storeproduct</title>
<path fill="none" stroke="#89f7bc" d="M221.816,-160.287C203.676,-146.895 180.895,-128.828 164.402,-114.787"/>
<ellipse fill="none" stroke="#89f7bc" cx="225.301" cy="-162.827" rx="4.00002" ry="4.00002"/>
<ellipse fill="#89f7bc" stroke="#89f7bc" cx="161.22" cy="-112.042" rx="4.00002" ry="4.00002"/>
</g>
<!-- Product&#45;&gt;Storeproduct -->
<g id="edge5" class="edge"><title>Product&#45;&gt;Storeproduct</title>
<path fill="none" stroke="#b7016f" d="M230.325,-157.832C214.907,-144.67 193.723,-127.792 176.012,-114.557"/>
<ellipse fill="none" stroke="#b7016f" cx="233.531" cy="-160.608" rx="4.00002" ry="4.00002"/>
<polygon fill="#b7016f" stroke="#b7016f" points="175.687,-114.317 170.307,-104.762 171.662,-111.351 167.637,-108.384 167.637,-108.384 167.637,-108.384 171.662,-111.351 164.967,-112.007 175.687,-114.317 175.687,-114.317"/>
</g>
<!-- Stores -->
<g id="node13" class="node"><title>Stores</title>
<ellipse fill="none" stroke="black" cx="287" cy="-92" rx="32.2457" ry="18"/>
<text text-anchor="middle" x="287" y="-88.3" font-family="Times,serif" font-size="14.00">Stores</text>
</g>
<!-- Product&#45;&gt;Stores -->
<g id="edge6" class="edge"><title>Product&#45;&gt;Stores</title>
<path fill="none" stroke="#fe0c6b" d="M262.123,-152.429C266.551,-141.851 271.632,-129.712 276.044,-119.173"/>
<polygon fill="#fe0c6b" stroke="#fe0c6b" points="261.974,-152.785 253.961,-160.272 260.043,-157.397 258.112,-162.009 258.112,-162.009 258.112,-162.009 260.043,-157.397 262.263,-163.747 261.974,-152.785 261.974,-152.785"/>
<polygon fill="#fe0c6b" stroke="#fe0c6b" points="276.163,-118.887 284.176,-111.401 278.094,-114.275 280.025,-109.663 280.025,-109.663 280.025,-109.663 278.094,-114.275 275.874,-107.925 276.163,-118.887 276.163,-118.887"/>
<text text-anchor="middle" x="289" y="-132.3" font-family="Times,serif" font-size="14.00">stores</text>
</g>
<!-- Feature&#45;&gt;Productsfeature -->
<g id="edge9" class="edge"><title>Feature&#45;&gt;Productsfeature</title>
<path fill="none" stroke="#aa7162" d="M375,-65.7923C375,-59.5805 375,-52.8963 375,-46.5786"/>
<ellipse fill="none" stroke="#aa7162" cx="375" cy="-69.937" rx="4" ry="4"/>
<polygon fill="#aa7162" stroke="#aa7162" points="375,-46.4407 379.5,-36.4406 375,-41.4407 375,-36.4407 375,-36.4407 375,-36.4407 375,-41.4407 370.5,-36.4407 375,-46.4407 375,-46.4407"/>
</g>
<!-- Blacklist -->
<g id="node6" class="node"><title>Blacklist</title>
<ellipse fill="none" stroke="black" cx="478" cy="-254" rx="42.3701" ry="18"/>
<text text-anchor="middle" x="478" y="-250.3" font-family="Times,serif" font-size="14.00">Blacklist</text>
</g>
<!-- Store -->
<g id="node7" class="node"><title>Store</title>
<ellipse fill="none" stroke="black" cx="251" cy="-254" rx="29.3722" ry="18"/>
<text text-anchor="middle" x="251" y="-250.3" font-family="Times,serif" font-size="14.00">Store</text>
</g>
<!-- Store&#45;&gt;Product -->
<g id="edge13" class="edge"><title>Store&#45;&gt;Product</title>
<path fill="none" stroke="#3b2a68" d="M251,-225.719C251,-220.145 251,-214.274 251,-208.686"/>
<polygon fill="#3b2a68" stroke="#3b2a68" points="251,-225.937 246.5,-235.937 251,-230.937 251,-235.937 251,-235.937 251,-235.937 251,-230.937 255.5,-235.937 251,-225.937 251,-225.937"/>
<polygon fill="#3b2a68" stroke="#3b2a68" points="251,-208.441 255.5,-198.441 251,-203.441 251,-198.441 251,-198.441 251,-198.441 251,-203.441 246.5,-198.441 251,-208.441 251,-208.441"/>
</g>
<!-- Store&#45;&gt;Storeproduct -->
<g id="edge12" class="edge"><title>Store&#45;&gt;Storeproduct</title>
<path fill="none" stroke="#f6a0ee" d="M231.499,-232.008C222.659,-222.046 212.343,-209.767 204,-198 185.731,-172.232 167.952,-140.66 156.347,-118.904"/>
<ellipse fill="none" stroke="#f6a0ee" cx="234.385" cy="-235.217" rx="4.00002" ry="4.00002"/>
<polygon fill="#f6a0ee" stroke="#f6a0ee" points="156.285,-118.786 155.599,-107.842 153.952,-114.364 151.619,-109.941 151.619,-109.941 151.619,-109.941 153.952,-114.364 147.639,-112.041 156.285,-118.786 156.285,-118.786"/>
</g>
<!-- Auction -->
<g id="node9" class="node"><title>Auction</title>
<ellipse fill="none" stroke="black" cx="38" cy="-254" rx="38.4949" ry="18"/>
<text text-anchor="middle" x="38" y="-250.3" font-family="Times,serif" font-size="14.00">Auction</text>
</g>
<!-- Auction&#45;&gt;Offer -->
<g id="edge16" class="edge"><title>Auction&#45;&gt;Offer</title>
<path fill="none" stroke="#302c58" d="M49.4257,-228.804C52.7544,-221.755 56.4037,-214.028 59.7793,-206.879"/>
<ellipse fill="none" stroke="#302c58" cx="47.5938" cy="-232.684" rx="4.00002" ry="4.00002"/>
<polygon fill="#302c58" stroke="#302c58" points="59.8869,-206.651 68.2261,-199.53 62.022,-202.13 64.157,-197.609 64.157,-197.609 64.157,-197.609 62.022,-202.13 60.0879,-195.687 59.8869,-206.651 59.8869,-206.651"/>
</g>
<!-- Storeuser -->
<g id="node10" class="node"><title>Storeuser</title>
<ellipse fill="none" stroke="black" cx="582" cy="-254" rx="44.2946" ry="18"/>
<text text-anchor="middle" x="582" y="-250.3" font-family="Times,serif" font-size="14.00">Storeuser</text>
</g>
<!-- Blackliststore -->
<g id="node11" class="node"><title>Blackliststore</title>
<ellipse fill="none" stroke="black" cx="703" cy="-254" rx="59.2173" ry="18"/>
<text text-anchor="middle" x="703" y="-250.3" font-family="Times,serif" font-size="14.00">Blackliststore</text>
</g>
<!-- ActiveRecord::Base -->
<g id="node12" class="node"><title>ActiveRecord::Base</title>
<ellipse fill="none" stroke="black" cx="347" cy="-349" rx="81.3646" ry="18"/>
<text text-anchor="middle" x="347" y="-345.3" font-family="Times,serif" font-size="14.00">ActiveRecord::Base</text>
</g>
<!-- ActiveRecord::Base&#45;&gt;Offer -->
<g id="edge1" class="edge"><title>ActiveRecord::Base&#45;&gt;Offer</title>
<path fill="none" stroke="black" d="M315.647,-332.387C298.67,-324.546 277.108,-315.557 257,-310 201.627,-294.698 175.821,-325.289 129,-292 97.0433,-269.28 81.7814,-223.199 75.5818,-198.149"/>
</g>
<!-- ActiveRecord::Base&#45;&gt;Product -->
<g id="edge7" class="edge"><title>ActiveRecord::Base&#45;&gt;Product</title>
<path fill="none" stroke="black" d="M339.002,-330.939C328.369,-308.661 308.629,-268.656 289,-236 280.988,-222.671 270.952,-208.226 263.206,-197.486"/>
</g>
<!-- ActiveRecord::Base&#45;&gt;Productsfeature -->
<g id="edge8" class="edge"><title>ActiveRecord::Base&#45;&gt;Productsfeature</title>
<path fill="none" stroke="black" d="M354.441,-330.827C370.679,-292.261 408.81,-195.46 421,-110 423.259,-94.1603 426.46,-89.0395 421,-74 415.562,-59.023 404.062,-45.273 393.922,-35.2673"/>
</g>
<!-- ActiveRecord::Base&#45;&gt;Feature -->
<g id="edge10" class="edge"><title>ActiveRecord::Base&#45;&gt;Feature</title>
<path fill="none" stroke="black" d="M348.881,-330.873C353.981,-284.419 368.036,-156.419 373.128,-110.053"/>
</g>
<!-- ActiveRecord::Base&#45;&gt;Blacklist -->
<g id="edge11" class="edge"><title>ActiveRecord::Base&#45;&gt;Blacklist</title>
<path fill="none" stroke="black" d="M370.119,-331.588C394.799,-314.067 433.547,-286.558 457.27,-269.717"/>
</g>
<!-- ActiveRecord::Base&#45;&gt;Store -->
<g id="edge14" class="edge"><title>ActiveRecord::Base&#45;&gt;Store</title>
<path fill="none" stroke="black" d="M329.837,-331.373C311.716,-313.819 283.427,-286.413 266.119,-269.646"/>
</g>
<!-- ActiveRecord::Base&#45;&gt;Storeproduct -->
<g id="edge15" class="edge"><title>ActiveRecord::Base&#45;&gt;Storeproduct</title>
<path fill="none" stroke="black" d="M307.633,-333.211C278.463,-320.616 239.36,-300.079 213,-272 168.237,-224.317 150.985,-144.722 145.356,-110.031"/>
</g>
<!-- ActiveRecord::Base&#45;&gt;Auction -->
<g id="edge17" class="edge"><title>ActiveRecord::Base&#45;&gt;Auction</title>
<path fill="none" stroke="black" d="M316.129,-332.321C299.11,-324.36 277.358,-315.28 257,-310 185.166,-291.37 160.486,-318.054 91,-292 77.9708,-287.115 65.1288,-278.281 55.3496,-270.47"/>
</g>
<!-- ActiveRecord::Base&#45;&gt;Storeuser -->
<g id="edge18" class="edge"><title>ActiveRecord::Base&#45;&gt;Storeuser</title>
<path fill="none" stroke="black" d="M384.757,-333.058C431.076,-314.728 508.697,-284.009 551.449,-267.09"/>
</g>
<!-- ActiveRecord::Base&#45;&gt;Blackliststore -->
<g id="edge19" class="edge"><title>ActiveRecord::Base&#45;&gt;Blackliststore</title>
<path fill="none" stroke="black" d="M397.628,-334.774C467.887,-316.42 593.743,-283.542 659.807,-266.283"/>
</g>
</g>
</svg>
