<?xml version="1.0" encoding="UTF-8" standalone="no"?>
<!DOCTYPE svg PUBLIC "-//W3C//DTD SVG 1.1//EN"
 "http://www.w3.org/Graphics/SVG/1.1/DTD/svg11.dtd">
<!-- Generated by graphviz version 2.36.0 (20140111.2315)
 -->
<!-- Title: models_diagram Pages: 1 -->
<svg width="1093pt" height="774pt"
 viewBox="0.00 0.00 1093.00 774.00" xmlns="http://www.w3.org/2000/svg" xmlns:xlink="http://www.w3.org/1999/xlink">
<g id="graph0" class="graph" transform="scale(1 1) rotate(0) translate(4 770)">
<title>models_diagram</title>
<polygon fill="white" stroke="none" points="-4,4 -4,-770 1089,-770 1089,4 -4,4"/>
<!-- _diagram_info -->
<g id="node1" class="node"><title>_diagram_info</title>
<text text-anchor="start" x="203" y="-751.6" font-family="Times,serif" font-size="13.00">Models diagram</text>
<text text-anchor="start" x="203" y="-737.6" font-family="Times,serif" font-size="13.00">Date: Jun 14 2014 &#45; 01:02</text>
<text text-anchor="start" x="203" y="-723.6" font-family="Times,serif" font-size="13.00">Migration version: 0</text>
<text text-anchor="start" x="203" y="-709.6" font-family="Times,serif" font-size="13.00">Generated by RailRoady 1.1.1</text>
<text text-anchor="start" x="203" y="-695.6" font-family="Times,serif" font-size="13.00">http://railroady.prestonlee.com</text>
</g>
<!-- Offer -->
<g id="node2" class="node"><title>Offer</title>
<path fill="none" stroke="black" d="M37.5,-314.5C37.5,-314.5 150.5,-314.5 150.5,-314.5 156.5,-314.5 162.5,-320.5 162.5,-326.5 162.5,-326.5 162.5,-423.5 162.5,-423.5 162.5,-429.5 156.5,-435.5 150.5,-435.5 150.5,-435.5 37.5,-435.5 37.5,-435.5 31.5,-435.5 25.5,-429.5 25.5,-423.5 25.5,-423.5 25.5,-326.5 25.5,-326.5 25.5,-320.5 31.5,-314.5 37.5,-314.5"/>
<text text-anchor="middle" x="94" y="-420.3" font-family="Times,serif" font-size="14.00">Offer</text>
<polyline fill="none" stroke="black" points="25.5,-412.5 162.5,-412.5 "/>
<text text-anchor="start" x="33.5" y="-397.3" font-family="Times,serif" font-size="14.00">offer_id :integer</text>
<text text-anchor="start" x="33.5" y="-382.3" font-family="Times,serif" font-size="14.00">store_id :integer</text>
<text text-anchor="start" x="33.5" y="-367.3" font-family="Times,serif" font-size="14.00">auction_id :integer</text>
<text text-anchor="start" x="33.5" y="-352.3" font-family="Times,serif" font-size="14.00">offer_date :timestamp</text>
<text text-anchor="start" x="33.5" y="-337.3" font-family="Times,serif" font-size="14.00">offer :string</text>
<text text-anchor="start" x="33.5" y="-322.3" font-family="Times,serif" font-size="14.00">price :decimal</text>
</g>
<!-- Product -->
<g id="node3" class="node"><title>Product</title>
<path fill="none" stroke="black" d="M278.5,-307C278.5,-307 415.5,-307 415.5,-307 421.5,-307 427.5,-313 427.5,-319 427.5,-319 427.5,-431 427.5,-431 427.5,-437 421.5,-443 415.5,-443 415.5,-443 278.5,-443 278.5,-443 272.5,-443 266.5,-437 266.5,-431 266.5,-431 266.5,-319 266.5,-319 266.5,-313 272.5,-307 278.5,-307"/>
<text text-anchor="middle" x="347" y="-427.8" font-family="Times,serif" font-size="14.00">Product</text>
<polyline fill="none" stroke="black" points="266.5,-420 427.5,-420 "/>
<text text-anchor="start" x="274.5" y="-404.8" font-family="Times,serif" font-size="14.00">product_id :integer</text>
<text text-anchor="start" x="274.5" y="-389.8" font-family="Times,serif" font-size="14.00">name :string</text>
<text text-anchor="start" x="274.5" y="-374.8" font-family="Times,serif" font-size="14.00">description :string</text>
<text text-anchor="start" x="274.5" y="-359.8" font-family="Times,serif" font-size="14.00">created_by :integer</text>
<text text-anchor="start" x="274.5" y="-344.8" font-family="Times,serif" font-size="14.00">created_date :timestamp</text>
<text text-anchor="start" x="274.5" y="-329.8" font-family="Times,serif" font-size="14.00">modified_by :integer</text>
<text text-anchor="start" x="274.5" y="-314.8" font-family="Times,serif" font-size="14.00">modified_date :timestamp</text>
</g>
<!-- Productsfeature -->
<g id="node4" class="node"><title>Productsfeature</title>
<path fill="none" stroke="black" d="M439.5,-1C439.5,-1 552.5,-1 552.5,-1 558.5,-1 564.5,-7 564.5,-13 564.5,-13 564.5,-65 564.5,-65 564.5,-71 558.5,-77 552.5,-77 552.5,-77 439.5,-77 439.5,-77 433.5,-77 427.5,-71 427.5,-65 427.5,-65 427.5,-13 427.5,-13 427.5,-7 433.5,-1 439.5,-1"/>
<text text-anchor="middle" x="496" y="-61.8" font-family="Times,serif" font-size="14.00">Productsfeature</text>
<polyline fill="none" stroke="black" points="427.5,-54 564.5,-54 "/>
<text text-anchor="start" x="435.5" y="-38.8" font-family="Times,serif" font-size="14.00">prod_feat_id :decimal</text>
<text text-anchor="start" x="435.5" y="-23.8" font-family="Times,serif" font-size="14.00">product_id :decimal</text>
<text text-anchor="start" x="435.5" y="-8.8" font-family="Times,serif" font-size="14.00">feature_id :decimal</text>
</g>
<!-- Product&#45;&gt;Productsfeature -->
<g id="edge2" class="edge"><title>Product&#45;&gt;Productsfeature</title>
<path fill="none" stroke="#a48fed" d="M316.901,-298.756C300.148,-243.791 288.967,-169.781 324,-116 344.848,-83.9953 382.567,-65.3702 417.38,-54.58"/>
<ellipse fill="none" stroke="#a48fed" cx="318.207" cy="-302.907" rx="4.00001" ry="4.00001"/>
<polygon fill="#a48fed" stroke="#a48fed" points="417.507,-54.5431 428.368,-56.0593 422.307,-53.1414 427.106,-51.7398 427.106,-51.7398 427.106,-51.7398 422.307,-53.1414 425.845,-47.4202 417.507,-54.5431 417.507,-54.5431"/>
</g>
<!-- Feature -->
<g id="node5" class="node"><title>Feature</title>
<path fill="none" stroke="black" d="M427.5,-117C427.5,-117 564.5,-117 564.5,-117 570.5,-117 576.5,-123 576.5,-129 576.5,-129 576.5,-241 576.5,-241 576.5,-247 570.5,-253 564.5,-253 564.5,-253 427.5,-253 427.5,-253 421.5,-253 415.5,-247 415.5,-241 415.5,-241 415.5,-129 415.5,-129 415.5,-123 421.5,-117 427.5,-117"/>
<text text-anchor="middle" x="496" y="-237.8" font-family="Times,serif" font-size="14.00">Feature</text>
<polyline fill="none" stroke="black" points="415.5,-230 576.5,-230 "/>
<text text-anchor="start" x="423.5" y="-214.8" font-family="Times,serif" font-size="14.00">feature_id :integer</text>
<text text-anchor="start" x="423.5" y="-199.8" font-family="Times,serif" font-size="14.00">feature_type :string</text>
<text text-anchor="start" x="423.5" y="-184.8" font-family="Times,serif" font-size="14.00">feature_name :string</text>
<text text-anchor="start" x="423.5" y="-169.8" font-family="Times,serif" font-size="14.00">created_by :integer</text>
<text text-anchor="start" x="423.5" y="-154.8" font-family="Times,serif" font-size="14.00">created_date :timestamp</text>
<text text-anchor="start" x="423.5" y="-139.8" font-family="Times,serif" font-size="14.00">modified_by :integer</text>
<text text-anchor="start" x="423.5" y="-124.8" font-family="Times,serif" font-size="14.00">modified_date :timestamp</text>
</g>
<!-- Product&#45;&gt;Feature -->
<g id="edge3" class="edge"><title>Product&#45;&gt;Feature</title>
<path fill="none" stroke="#d31178" d="M406.404,-299.048C416.285,-286.58 426.537,-273.645 436.423,-261.171"/>
<polygon fill="#d31178" stroke="#d31178" points="406.373,-299.087 396.635,-304.129 403.267,-303.005 400.161,-306.924 400.161,-306.924 400.161,-306.924 403.267,-303.005 403.688,-309.719 406.373,-299.087 406.373,-299.087"/>
<polygon fill="#d31178" stroke="#d31178" points="436.648,-260.887 446.386,-255.845 439.753,-256.969 442.859,-253.05 442.859,-253.05 442.859,-253.05 439.753,-256.969 439.332,-250.255 436.648,-260.887 436.648,-260.887"/>
</g>
<!-- Storeproduct -->
<g id="node8" class="node"><title>Storeproduct</title>
<path fill="none" stroke="black" d="M135.5,-132C135.5,-132 264.5,-132 264.5,-132 270.5,-132 276.5,-138 276.5,-144 276.5,-144 276.5,-226 276.5,-226 276.5,-232 270.5,-238 264.5,-238 264.5,-238 135.5,-238 135.5,-238 129.5,-238 123.5,-232 123.5,-226 123.5,-226 123.5,-144 123.5,-144 123.5,-138 129.5,-132 135.5,-132"/>
<text text-anchor="middle" x="200" y="-222.8" font-family="Times,serif" font-size="14.00">Storeproduct</text>
<polyline fill="none" stroke="black" points="123.5,-215 276.5,-215 "/>
<text text-anchor="start" x="131.5" y="-199.8" font-family="Times,serif" font-size="14.00">store_product_id :integer</text>
<text text-anchor="start" x="131.5" y="-184.8" font-family="Times,serif" font-size="14.00">product_id :decimal</text>
<text text-anchor="start" x="131.5" y="-169.8" font-family="Times,serif" font-size="14.00">store_id :decimal</text>
<text text-anchor="start" x="131.5" y="-154.8" font-family="Times,serif" font-size="14.00">price :decimal</text>
<text text-anchor="start" x="131.5" y="-139.8" font-family="Times,serif" font-size="14.00">product_buy_link :string</text>
</g>
<!-- Product&#45;&gt;Storeproduct -->
<g id="edge4" class="edge"><title>Product&#45;&gt;Storeproduct</title>
<path fill="none" stroke="#ab6435" d="M282.942,-300.522C268.199,-282.007 252.948,-262.376 239.586,-244.694"/>
<ellipse fill="none" stroke="#ab6435" cx="285.558" cy="-303.798" rx="4.00002" ry="4.00002"/>
<ellipse fill="#ab6435" stroke="#ab6435" cx="237.159" cy="-241.47" rx="4.00002" ry="4.00002"/>
</g>
<!-- Product&#45;&gt;Storeproduct -->
<g id="edge5" class="edge"><title>Product&#45;&gt;Storeproduct</title>
<path fill="none" stroke="#1e68c1" d="M296.152,-300.522C282.314,-282.495 267.303,-263.408 253.332,-246.094"/>
<ellipse fill="none" stroke="#1e68c1" cx="298.619" cy="-303.747" rx="4.00002" ry="4.00002"/>
<polygon fill="#1e68c1" stroke="#1e68c1" points="253.29,-246.043 250.49,-235.44 250.142,-242.158 246.994,-238.274 246.994,-238.274 246.994,-238.274 250.142,-242.158 243.498,-241.107 253.29,-246.043 253.29,-246.043"/>
</g>
<!-- Stores -->
<g id="node13" class="node"><title>Stores</title>
<ellipse fill="none" stroke="black" cx="365" cy="-185" rx="32.2457" ry="18"/>
<text text-anchor="middle" x="365" y="-181.3" font-family="Times,serif" font-size="14.00">Stores</text>
</g>
<!-- Product&#45;&gt;Stores -->
<g id="edge6" class="edge"><title>Product&#45;&gt;Stores</title>
<path fill="none" stroke="#f09520" d="M354.392,-296.79C357.226,-267.196 360.279,-235.308 362.379,-213.376"/>
<polygon fill="#f09520" stroke="#f09520" points="354.375,-296.969 348.943,-306.495 353.899,-301.947 353.422,-306.924 353.422,-306.924 353.422,-306.924 353.899,-301.947 357.902,-307.353 354.375,-296.969 354.375,-296.969"/>
<polygon fill="#f09520" stroke="#f09520" points="362.403,-213.126 367.835,-203.601 362.879,-208.149 363.356,-203.172 363.356,-203.172 363.356,-203.172 362.879,-208.149 358.876,-202.743 362.403,-213.126 362.403,-213.126"/>
<text text-anchor="middle" x="373" y="-276.3" font-family="Times,serif" font-size="14.00">stores</text>
</g>
<!-- Feature&#45;&gt;Productsfeature -->
<g id="edge9" class="edge"><title>Feature&#45;&gt;Productsfeature</title>
<path fill="none" stroke="#6871fa" d="M496,-108.33C496,-101.205 496,-94.1285 496,-87.3798"/>
<ellipse fill="none" stroke="#6871fa" cx="496" cy="-112.638" rx="4" ry="4"/>
<polygon fill="#6871fa" stroke="#6871fa" points="496,-87.085 500.5,-77.085 496,-82.085 496,-77.085 496,-77.085 496,-77.085 496,-82.085 491.5,-77.0851 496,-87.085 496,-87.085"/>
</g>
<!-- Blacklist -->
<g id="node6" class="node"><title>Blacklist</title>
<path fill="none" stroke="black" d="M609,-528C609,-528 735,-528 735,-528 741,-528 747,-534 747,-540 747,-540 747,-592 747,-592 747,-598 741,-604 735,-604 735,-604 609,-604 609,-604 603,-604 597,-598 597,-592 597,-592 597,-540 597,-540 597,-534 603,-528 609,-528"/>
<text text-anchor="middle" x="672" y="-588.8" font-family="Times,serif" font-size="14.00">Blacklist</text>
<polyline fill="none" stroke="black" points="597,-581 747,-581 "/>
<text text-anchor="start" x="605" y="-565.8" font-family="Times,serif" font-size="14.00">black_list_id :integer</text>
<text text-anchor="start" x="605" y="-550.8" font-family="Times,serif" font-size="14.00">user_id :integer</text>
<text text-anchor="start" x="605" y="-535.8" font-family="Times,serif" font-size="14.00">created_date :timestamp</text>
</g>
<!-- Store -->
<g id="node7" class="node"><title>Store</title>
<path fill="none" stroke="black" d="M278.5,-483C278.5,-483 415.5,-483 415.5,-483 421.5,-483 427.5,-489 427.5,-495 427.5,-495 427.5,-637 427.5,-637 427.5,-643 421.5,-649 415.5,-649 415.5,-649 278.5,-649 278.5,-649 272.5,-649 266.5,-643 266.5,-637 266.5,-637 266.5,-495 266.5,-495 266.5,-489 272.5,-483 278.5,-483"/>
<text text-anchor="middle" x="347" y="-633.8" font-family="Times,serif" font-size="14.00">Store</text>
<polyline fill="none" stroke="black" points="266.5,-626 427.5,-626 "/>
<text text-anchor="start" x="274.5" y="-610.8" font-family="Times,serif" font-size="14.00">store_id :integer</text>
<text text-anchor="start" x="274.5" y="-595.8" font-family="Times,serif" font-size="14.00">name :string</text>
<text text-anchor="start" x="274.5" y="-580.8" font-family="Times,serif" font-size="14.00">website :string</text>
<text text-anchor="start" x="274.5" y="-565.8" font-family="Times,serif" font-size="14.00">street_address :string</text>
<text text-anchor="start" x="274.5" y="-550.8" font-family="Times,serif" font-size="14.00">zip_code :string</text>
<text text-anchor="start" x="274.5" y="-535.8" font-family="Times,serif" font-size="14.00">created_by :integer</text>
<text text-anchor="start" x="274.5" y="-520.8" font-family="Times,serif" font-size="14.00">created_date :timestamp</text>
<text text-anchor="start" x="274.5" y="-505.8" font-family="Times,serif" font-size="14.00">modified_by :integer</text>
<text text-anchor="start" x="274.5" y="-490.8" font-family="Times,serif" font-size="14.00">modified_date :timestamp</text>
</g>
<!-- Store&#45;&gt;Product -->
<g id="edge13" class="edge"><title>Store&#45;&gt;Product</title>
<path fill="none" stroke="#181d64" d="M347,-472.631C347,-466.284 347,-459.923 347,-453.665"/>
<polygon fill="#181d64" stroke="#181d64" points="347,-472.926 342.5,-482.926 347,-477.926 347,-482.926 347,-482.926 347,-482.926 347,-477.926 351.5,-482.926 347,-472.926 347,-472.926"/>
<polygon fill="#181d64" stroke="#181d64" points="347,-453.249 351.5,-443.249 347,-448.249 347,-443.249 347,-443.249 347,-443.249 347,-448.249 342.5,-443.249 347,-453.249 347,-453.249"/>
</g>
<!-- Store&#45;&gt;Storeproduct -->
<g id="edge12" class="edge"><title>Store&#45;&gt;Storeproduct</title>
<path fill="none" stroke="#391061" d="M274.57,-476.105C267.99,-465.654 261.952,-454.842 257,-444 241.328,-409.691 222.269,-312.994 210.642,-248.222"/>
<ellipse fill="none" stroke="#391061" cx="276.797" cy="-479.556" rx="4.00002" ry="4.00002"/>
<polygon fill="#391061" stroke="#391061" points="210.596,-247.96 213.272,-237.325 209.719,-243.037 208.842,-238.115 208.842,-238.115 208.842,-238.115 209.719,-243.037 204.411,-238.904 210.596,-247.96 210.596,-247.96"/>
</g>
<!-- Auction -->
<g id="node9" class="node"><title>Auction</title>
<path fill="none" stroke="black" d="M12,-498C12,-498 122,-498 122,-498 128,-498 134,-504 134,-510 134,-510 134,-622 134,-622 134,-628 128,-634 122,-634 122,-634 12,-634 12,-634 6,-634 0,-628 0,-622 0,-622 0,-510 0,-510 0,-504 6,-498 12,-498"/>
<text text-anchor="middle" x="67" y="-618.8" font-family="Times,serif" font-size="14.00">Auction</text>
<polyline fill="none" stroke="black" points="0,-611 134,-611 "/>
<text text-anchor="start" x="8" y="-595.8" font-family="Times,serif" font-size="14.00">auction_id :integer</text>
<text text-anchor="start" x="8" y="-580.8" font-family="Times,serif" font-size="14.00">user_id :integer</text>
<text text-anchor="start" x="8" y="-565.8" font-family="Times,serif" font-size="14.00">product_id :integer</text>
<text text-anchor="start" x="8" y="-550.8" font-family="Times,serif" font-size="14.00">message :string</text>
<text text-anchor="start" x="8" y="-535.8" font-family="Times,serif" font-size="14.00">start_date :timestamp</text>
<text text-anchor="start" x="8" y="-520.8" font-family="Times,serif" font-size="14.00">end_date :timestamp</text>
<text text-anchor="start" x="8" y="-505.8" font-family="Times,serif" font-size="14.00">auction_status :string</text>
</g>
<!-- Auction&#45;&gt;Offer -->
<g id="edge16" class="edge"><title>Auction&#45;&gt;Offer</title>
<path fill="none" stroke="#33cefa" d="M77.7612,-489.672C79.8226,-475.242 81.973,-460.189 84.009,-445.937"/>
<ellipse fill="none" stroke="#33cefa" cx="77.1609" cy="-493.874" rx="4.00001" ry="4.00001"/>
<polygon fill="#33cefa" stroke="#33cefa" points="84.054,-445.621 89.9231,-436.358 84.7612,-440.671 85.4683,-435.722 85.4683,-435.722 85.4683,-435.722 84.7612,-440.671 81.0136,-435.085 84.054,-445.621 84.054,-445.621"/>
</g>
<!-- Storeuser -->
<g id="node10" class="node"><title>Storeuser</title>
<path fill="none" stroke="black" d="M777.5,-490.5C777.5,-490.5 890.5,-490.5 890.5,-490.5 896.5,-490.5 902.5,-496.5 902.5,-502.5 902.5,-502.5 902.5,-629.5 902.5,-629.5 902.5,-635.5 896.5,-641.5 890.5,-641.5 890.5,-641.5 777.5,-641.5 777.5,-641.5 771.5,-641.5 765.5,-635.5 765.5,-629.5 765.5,-629.5 765.5,-502.5 765.5,-502.5 765.5,-496.5 771.5,-490.5 777.5,-490.5"/>
<text text-anchor="middle" x="834" y="-626.3" font-family="Times,serif" font-size="14.00">Storeuser</text>
<polyline fill="none" stroke="black" points="765.5,-618.5 902.5,-618.5 "/>
<text text-anchor="start" x="773.5" y="-603.3" font-family="Times,serif" font-size="14.00">store_user_id :integer</text>
<text text-anchor="start" x="773.5" y="-588.3" font-family="Times,serif" font-size="14.00">nick :string</text>
<text text-anchor="start" x="773.5" y="-573.3" font-family="Times,serif" font-size="14.00">first_name :string</text>
<text text-anchor="start" x="773.5" y="-558.3" font-family="Times,serif" font-size="14.00">last_name :string</text>
<text text-anchor="start" x="773.5" y="-543.3" font-family="Times,serif" font-size="14.00">email :string</text>
<text text-anchor="start" x="773.5" y="-528.3" font-family="Times,serif" font-size="14.00">store_id :integer</text>
<text text-anchor="start" x="773.5" y="-513.3" font-family="Times,serif" font-size="14.00">password_hash :string</text>
<text text-anchor="start" x="773.5" y="-498.3" font-family="Times,serif" font-size="14.00">password_salt :string</text>
</g>
<!-- Blackliststore -->
<g id="node11" class="node"><title>Blackliststore</title>
<path fill="none" stroke="black" d="M933,-528C933,-528 1073,-528 1073,-528 1079,-528 1085,-534 1085,-540 1085,-540 1085,-592 1085,-592 1085,-598 1079,-604 1073,-604 1073,-604 933,-604 933,-604 927,-604 921,-598 921,-592 921,-592 921,-540 921,-540 921,-534 927,-528 933,-528"/>
<text text-anchor="middle" x="1003" y="-588.8" font-family="Times,serif" font-size="14.00">Blackliststore</text>
<polyline fill="none" stroke="black" points="921,-581 1085,-581 "/>
<text text-anchor="start" x="929" y="-565.8" font-family="Times,serif" font-size="14.00">black_list_store_id :integer</text>
<text text-anchor="start" x="929" y="-550.8" font-family="Times,serif" font-size="14.00">black_list_id :integer</text>
<text text-anchor="start" x="929" y="-535.8" font-family="Times,serif" font-size="14.00">store_id :integer</text>
</g>
<!-- ActiveRecord::Base -->
<g id="node12" class="node"><title>ActiveRecord::Base</title>
<ellipse fill="none" stroke="black" cx="476" cy="-727" rx="81.3646" ry="18"/>
<text text-anchor="middle" x="476" y="-723.3" font-family="Times,serif" font-size="14.00">ActiveRecord::Base</text>
</g>
<!-- ActiveRecord::Base&#45;&gt;Offer -->
<g id="edge1" class="edge"><title>ActiveRecord::Base&#45;&gt;Offer</title>
<path fill="none" stroke="black" d="M445.167,-710.173C428.158,-702.169 406.405,-693.094 386,-688 342.705,-677.192 219.612,-699.352 186,-670 121.439,-613.621 170.688,-563.118 143,-482 137.761,-466.65 131.011,-450.543 124.206,-435.65"/>
</g>
<!-- ActiveRecord::Base&#45;&gt;Product -->
<g id="edge7" class="edge"><title>ActiveRecord::Base&#45;&gt;Product</title>
<path fill="none" stroke="black" d="M476.242,-708.835C476.189,-667.69 472.274,-560.996 436,-482 429.783,-468.461 421.357,-455.262 412.157,-443.034"/>
</g>
<!-- ActiveRecord::Base&#45;&gt;Productsfeature -->
<g id="edge8" class="edge"><title>ActiveRecord::Base&#45;&gt;Productsfeature</title>
<path fill="none" stroke="black" d="M482.188,-708.96C486.095,-697.923 491.118,-683.198 495,-670 497.585,-661.21 497.927,-658.925 500,-650 540.724,-474.658 566.005,-433.004 585,-254 591.472,-193.009 610.68,-171.698 585,-116 578.109,-101.054 566.669,-87.9576 554.248,-77.0364"/>
</g>
<!-- ActiveRecord::Base&#45;&gt;Feature -->
<g id="edge10" class="edge"><title>ActiveRecord::Base&#45;&gt;Feature</title>
<path fill="none" stroke="black" d="M477.79,-708.863C478.882,-697.787 480.215,-683.056 481,-670 489.925,-521.467 493.679,-346.955 495.146,-253.393"/>
</g>
<!-- ActiveRecord::Base&#45;&gt;Blacklist -->
<g id="edge11" class="edge"><title>ActiveRecord::Base&#45;&gt;Blacklist</title>
<path fill="none" stroke="black" d="M512.972,-710.846C534.589,-700.997 561.721,-686.865 583,-670 606.707,-651.211 628.957,-625.461 645.28,-604.408"/>
</g>
<!-- ActiveRecord::Base&#45;&gt;Store -->
<g id="edge14" class="edge"><title>ActiveRecord::Base&#45;&gt;Store</title>
<path fill="none" stroke="black" d="M462.195,-708.984C450.235,-694.243 431.994,-671.76 413.531,-649.003"/>
</g>
<!-- ActiveRecord::Base&#45;&gt;Storeproduct -->
<g id="edge15" class="edge"><title>ActiveRecord::Base&#45;&gt;Storeproduct</title>
<path fill="none" stroke="black" d="M441.742,-710.459C425.093,-703.185 404.688,-694.674 386,-688 329.712,-667.899 297.112,-694.31 257,-650 152.965,-535.078 172.44,-333.353 189.037,-238.323"/>
</g>
<!-- ActiveRecord::Base&#45;&gt;Auction -->
<g id="edge17" class="edge"><title>ActiveRecord::Base&#45;&gt;Auction</title>
<path fill="none" stroke="black" d="M445.605,-710.251C428.546,-702.165 406.606,-692.988 386,-688 334.449,-675.521 194.8,-694.959 148,-670 132.042,-661.489 118.184,-648.331 106.66,-634.233"/>
</g>
<!-- ActiveRecord::Base&#45;&gt;Storeuser -->
<g id="edge18" class="edge"><title>ActiveRecord::Base&#45;&gt;Storeuser</title>
<path fill="none" stroke="black" d="M545.746,-717.69C604.815,-708.242 690.011,-688.781 755,-650 759.271,-647.451 763.461,-644.609 767.545,-641.555"/>
</g>
<!-- ActiveRecord::Base&#45;&gt;Blackliststore -->
<g id="edge19" class="edge"><title>ActiveRecord::Base&#45;&gt;Blackliststore</title>
<path fill="none" stroke="black" d="M557.072,-725.098C647.657,-721.159 796.6,-705.755 911,-650 933.625,-638.973 954.786,-620.689 971.095,-604.084"/>
</g>
</g>
</svg>
