<?xml version="1.0" encoding="UTF-8" standalone="no"?>
<!DOCTYPE svg PUBLIC "-//W3C//DTD SVG 1.1//EN"
 "http://www.w3.org/Graphics/SVG/1.1/DTD/svg11.dtd">
<!-- Generated by graphviz version 2.36.0 (20140111.2315)
 -->
<!-- Title: controllers_diagram Pages: 1 -->
<svg width="700pt" height="771pt"
 viewBox="0.00 0.00 700.00 771.23" xmlns="http://www.w3.org/2000/svg" xmlns:xlink="http://www.w3.org/1999/xlink">
<g id="graph0" class="graph" transform="scale(1 1) rotate(0) translate(4 767.229)">
<title>controllers_diagram</title>
<polygon fill="white" stroke="none" points="-4,4 -4,-767.229 696,-767.229 696,4 -4,4"/>
<!-- _diagram_info -->
<g id="node1" class="node"><title>_diagram_info</title>
<text text-anchor="start" x="518" y="-114.6" font-family="Times,serif" font-size="13.00">Controllers diagram</text>
<text text-anchor="start" x="518" y="-100.6" font-family="Times,serif" font-size="13.00">Date: Jun 13 2014 &#45; 03:39</text>
<text text-anchor="start" x="518" y="-86.6" font-family="Times,serif" font-size="13.00">Migration version: 0</text>
<text text-anchor="start" x="518" y="-72.6" font-family="Times,serif" font-size="13.00">Generated by RailRoady 1.1.1</text>
<text text-anchor="start" x="518" y="-58.6" font-family="Times,serif" font-size="13.00">http://railroady.prestonlee.com</text>
</g>
<!-- ReviewsController -->
<g id="node2" class="node"><title>ReviewsController</title>
<path fill="none" stroke="black" d="M12,-343.181C12,-343.181 107,-343.181 107,-343.181 113,-343.181 119,-349.181 119,-355.181 119,-355.181 119,-439.181 119,-439.181 119,-445.181 113,-451.181 107,-451.181 107,-451.181 12,-451.181 12,-451.181 6,-451.181 0,-445.181 0,-439.181 0,-439.181 0,-355.181 0,-355.181 0,-349.181 6,-343.181 12,-343.181"/>
<text text-anchor="middle" x="59.5" y="-435.981" font-family="Times,serif" font-size="14.00">ReviewsController</text>
<polyline fill="none" stroke="black" points="0,-428.181 119,-428.181 "/>
<text text-anchor="start" x="8" y="-412.981" font-family="Times,serif" font-size="14.00">index</text>
<text text-anchor="start" x="8" y="-397.981" font-family="Times,serif" font-size="14.00">show</text>
<polyline fill="none" stroke="black" points="0,-390.181 119,-390.181 "/>
<polyline fill="none" stroke="black" points="0,-366.181 119,-366.181 "/>
<text text-anchor="start" x="8" y="-350.981" font-family="Times,serif" font-size="14.00">_layout</text>
</g>
<!-- StoresController -->
<g id="node3" class="node"><title>StoresController</title>
<path fill="none" stroke="black" d="M399.197,-191.549C399.197,-191.549 519.197,-191.549 519.197,-191.549 525.197,-191.549 531.197,-197.549 531.197,-203.549 531.197,-203.549 531.197,-347.549 531.197,-347.549 531.197,-353.549 525.197,-359.549 519.197,-359.549 519.197,-359.549 399.197,-359.549 399.197,-359.549 393.197,-359.549 387.197,-353.549 387.197,-347.549 387.197,-347.549 387.197,-203.549 387.197,-203.549 387.197,-197.549 393.197,-191.549 399.197,-191.549"/>
<text text-anchor="middle" x="459.197" y="-344.349" font-family="Times,serif" font-size="14.00">StoresController</text>
<polyline fill="none" stroke="black" points="387.197,-336.549 531.197,-336.549 "/>
<text text-anchor="start" x="395.197" y="-321.349" font-family="Times,serif" font-size="14.00">_callback_before_6</text>
<text text-anchor="start" x="395.197" y="-306.349" font-family="Times,serif" font-size="14.00">add_to_blacklist</text>
<text text-anchor="start" x="395.197" y="-291.349" font-family="Times,serif" font-size="14.00">index</text>
<text text-anchor="start" x="395.197" y="-276.349" font-family="Times,serif" font-size="14.00">remove_from_blacklist</text>
<text text-anchor="start" x="395.197" y="-261.349" font-family="Times,serif" font-size="14.00">show</text>
<text text-anchor="start" x="395.197" y="-246.349" font-family="Times,serif" font-size="14.00">store_product</text>
<polyline fill="none" stroke="black" points="387.197,-238.549 531.197,-238.549 "/>
<polyline fill="none" stroke="black" points="387.197,-214.549 531.197,-214.549 "/>
<text text-anchor="start" x="395.197" y="-199.349" font-family="Times,serif" font-size="14.00">_layout</text>
</g>
<!-- HomeController -->
<g id="node4" class="node"><title>HomeController</title>
<path fill="none" stroke="black" d="M308.479,-0.5C308.479,-0.5 390.479,-0.5 390.479,-0.5 396.479,-0.5 402.479,-6.5 402.479,-12.5 402.479,-12.5 402.479,-171.5 402.479,-171.5 402.479,-177.5 396.479,-183.5 390.479,-183.5 390.479,-183.5 308.479,-183.5 308.479,-183.5 302.479,-183.5 296.479,-177.5 296.479,-171.5 296.479,-171.5 296.479,-12.5 296.479,-12.5 296.479,-6.5 302.479,-0.5 308.479,-0.5"/>
<text text-anchor="middle" x="349.479" y="-168.3" font-family="Times,serif" font-size="14.00">HomeController</text>
<polyline fill="none" stroke="black" points="296.479,-160.5 402.479,-160.5 "/>
<text text-anchor="start" x="304.479" y="-145.3" font-family="Times,serif" font-size="14.00">about</text>
<text text-anchor="start" x="304.479" y="-130.3" font-family="Times,serif" font-size="14.00">contact</text>
<text text-anchor="start" x="304.479" y="-115.3" font-family="Times,serif" font-size="14.00">cookie_policy</text>
<text text-anchor="start" x="304.479" y="-100.3" font-family="Times,serif" font-size="14.00">index</text>
<text text-anchor="start" x="304.479" y="-85.3" font-family="Times,serif" font-size="14.00">privacy_policy</text>
<text text-anchor="start" x="304.479" y="-70.3" font-family="Times,serif" font-size="14.00">search</text>
<text text-anchor="start" x="304.479" y="-55.3" font-family="Times,serif" font-size="14.00">stats</text>
<polyline fill="none" stroke="black" points="296.479,-47.5 402.479,-47.5 "/>
<polyline fill="none" stroke="black" points="296.479,-23.5 402.479,-23.5 "/>
<text text-anchor="start" x="304.479" y="-8.3" font-family="Times,serif" font-size="14.00">_layout</text>
</g>
<!-- ApplicationController -->
<g id="node5" class="node"><title>ApplicationController</title>
<path fill="none" stroke="black" d="M218.689,-309.932C218.689,-309.932 330.689,-309.932 330.689,-309.932 336.689,-309.932 342.689,-315.932 342.689,-321.932 342.689,-321.932 342.689,-434.932 342.689,-434.932 342.689,-440.932 336.689,-446.932 330.689,-446.932 330.689,-446.932 218.689,-446.932 218.689,-446.932 212.689,-446.932 206.689,-440.932 206.689,-434.932 206.689,-434.932 206.689,-321.932 206.689,-321.932 206.689,-315.932 212.689,-309.932 218.689,-309.932"/>
<text text-anchor="middle" x="274.689" y="-431.732" font-family="Times,serif" font-size="14.00">ApplicationController</text>
<polyline fill="none" stroke="black" points="206.689,-423.932 342.689,-423.932 "/>
<text text-anchor="start" x="214.689" y="-408.732" font-family="Times,serif" font-size="14.00">_callback_before_5</text>
<text text-anchor="start" x="214.689" y="-393.732" font-family="Times,serif" font-size="14.00">catch_not_found</text>
<polyline fill="none" stroke="black" points="206.689,-385.932 342.689,-385.932 "/>
<text text-anchor="start" x="214.689" y="-370.732" font-family="Times,serif" font-size="14.00">authenticate_user</text>
<text text-anchor="start" x="214.689" y="-355.732" font-family="Times,serif" font-size="14.00">save_login_state</text>
<text text-anchor="start" x="214.689" y="-340.732" font-family="Times,serif" font-size="14.00">set_user</text>
<polyline fill="none" stroke="black" points="206.689,-332.932 342.689,-332.932 "/>
<text text-anchor="start" x="214.689" y="-317.732" font-family="Times,serif" font-size="14.00">_layout</text>
</g>
<!-- ApplicationController&#45;&gt;ReviewsController -->
<g id="edge1" class="edge"><title>ApplicationController&#45;&gt;ReviewsController</title>
<path fill="none" stroke="black" d="M206.602,-384.364C178.528,-386.81 146.286,-389.619 119.156,-391.983"/>
</g>
<!-- ApplicationController&#45;&gt;StoresController -->
<g id="edge2" class="edge"><title>ApplicationController&#45;&gt;StoresController</title>
<path fill="none" stroke="black" d="M342.869,-340.414C357.241,-332.401 372.45,-323.92 386.965,-315.826"/>
</g>
<!-- ApplicationController&#45;&gt;HomeController -->
<g id="edge3" class="edge"><title>ApplicationController&#45;&gt;HomeController</title>
<path fill="none" stroke="black" d="M292.603,-309.824C302.478,-272.006 314.867,-224.559 325.559,-183.61"/>
</g>
<!-- UserController -->
<g id="node6" class="node"><title>UserController</title>
<path fill="none" stroke="black" d="M331.716,-464.803C331.716,-464.803 495.716,-464.803 495.716,-464.803 501.716,-464.803 507.716,-470.803 507.716,-476.803 507.716,-476.803 507.716,-725.803 507.716,-725.803 507.716,-731.803 501.716,-737.803 495.716,-737.803 495.716,-737.803 331.716,-737.803 331.716,-737.803 325.716,-737.803 319.716,-731.803 319.716,-725.803 319.716,-725.803 319.716,-476.803 319.716,-476.803 319.716,-470.803 325.716,-464.803 331.716,-464.803"/>
<text text-anchor="middle" x="413.716" y="-722.603" font-family="Times,serif" font-size="14.00">UserController</text>
<polyline fill="none" stroke="black" points="319.716,-714.803 507.716,-714.803 "/>
<text text-anchor="start" x="327.716" y="-699.603" font-family="Times,serif" font-size="14.00">change_password</text>
<text text-anchor="start" x="327.716" y="-684.603" font-family="Times,serif" font-size="14.00">create</text>
<text text-anchor="start" x="327.716" y="-669.603" font-family="Times,serif" font-size="14.00">edit_profile</text>
<text text-anchor="start" x="327.716" y="-654.603" font-family="Times,serif" font-size="14.00">index</text>
<text text-anchor="start" x="327.716" y="-639.603" font-family="Times,serif" font-size="14.00">new</text>
<text text-anchor="start" x="327.716" y="-624.603" font-family="Times,serif" font-size="14.00">price_offer</text>
<text text-anchor="start" x="327.716" y="-609.603" font-family="Times,serif" font-size="14.00">price_offers</text>
<text text-anchor="start" x="327.716" y="-594.603" font-family="Times,serif" font-size="14.00">search_history</text>
<text text-anchor="start" x="327.716" y="-579.603" font-family="Times,serif" font-size="14.00">show</text>
<text text-anchor="start" x="327.716" y="-564.603" font-family="Times,serif" font-size="14.00">watched_products</text>
<polyline fill="none" stroke="black" points="319.716,-556.803 507.716,-556.803 "/>
<polyline fill="none" stroke="black" points="319.716,-532.803 507.716,-532.803 "/>
<text text-anchor="start" x="327.716" y="-517.603" font-family="Times,serif" font-size="14.00">_layout</text>
<text text-anchor="start" x="327.716" y="-502.603" font-family="Times,serif" font-size="14.00">user_change_password_params</text>
<text text-anchor="start" x="327.716" y="-487.603" font-family="Times,serif" font-size="14.00">user_edit_profile_params</text>
<text text-anchor="start" x="327.716" y="-472.603" font-family="Times,serif" font-size="14.00">user_params</text>
</g>
<!-- ApplicationController&#45;&gt;UserController -->
<g id="edge4" class="edge"><title>ApplicationController&#45;&gt;UserController</title>
<path fill="none" stroke="black" d="M317.536,-447.119C321.047,-452.747 324.664,-458.546 328.344,-464.445"/>
</g>
<!-- ProductController -->
<g id="node7" class="node"><title>ProductController</title>
<path fill="none" stroke="black" d="M65.9454,-504.729C65.9454,-504.729 164.945,-504.729 164.945,-504.729 170.945,-504.729 176.945,-510.729 176.945,-516.729 176.945,-516.729 176.945,-750.729 176.945,-750.729 176.945,-756.729 170.945,-762.729 164.945,-762.729 164.945,-762.729 65.9454,-762.729 65.9454,-762.729 59.9454,-762.729 53.9454,-756.729 53.9454,-750.729 53.9454,-750.729 53.9454,-516.729 53.9454,-516.729 53.9454,-510.729 59.9454,-504.729 65.9454,-504.729"/>
<text text-anchor="middle" x="115.445" y="-747.529" font-family="Times,serif" font-size="14.00">ProductController</text>
<polyline fill="none" stroke="black" points="53.9454,-739.729 176.945,-739.729 "/>
<text text-anchor="start" x="61.9454" y="-724.529" font-family="Times,serif" font-size="14.00">_callback_before_7</text>
<text text-anchor="start" x="61.9454" y="-709.529" font-family="Times,serif" font-size="14.00">add_review</text>
<text text-anchor="start" x="61.9454" y="-694.529" font-family="Times,serif" font-size="14.00">compare</text>
<text text-anchor="start" x="61.9454" y="-679.529" font-family="Times,serif" font-size="14.00">index</text>
<text text-anchor="start" x="61.9454" y="-664.529" font-family="Times,serif" font-size="14.00">price_offer</text>
<text text-anchor="start" x="61.9454" y="-649.529" font-family="Times,serif" font-size="14.00">price_offer_save</text>
<text text-anchor="start" x="61.9454" y="-634.529" font-family="Times,serif" font-size="14.00">recently_added</text>
<text text-anchor="start" x="61.9454" y="-619.529" font-family="Times,serif" font-size="14.00">recently_updated</text>
<text text-anchor="start" x="61.9454" y="-604.529" font-family="Times,serif" font-size="14.00">search</text>
<text text-anchor="start" x="61.9454" y="-589.529" font-family="Times,serif" font-size="14.00">show</text>
<text text-anchor="start" x="61.9454" y="-574.529" font-family="Times,serif" font-size="14.00">unwatch_product</text>
<text text-anchor="start" x="61.9454" y="-559.529" font-family="Times,serif" font-size="14.00">watch_product</text>
<polyline fill="none" stroke="black" points="53.9454,-551.729 176.945,-551.729 "/>
<polyline fill="none" stroke="black" points="53.9454,-527.729 176.945,-527.729 "/>
<text text-anchor="start" x="61.9454" y="-512.529" font-family="Times,serif" font-size="14.00">_layout</text>
</g>
<!-- ApplicationController&#45;&gt;ProductController -->
<g id="edge5" class="edge"><title>ApplicationController&#45;&gt;ProductController</title>
<path fill="none" stroke="black" d="M231.805,-447.182C214.947,-474.209 195.275,-505.747 176.954,-535.119"/>
</g>
<!-- SessionsController -->
<g id="node8" class="node"><title>SessionsController</title>
<path fill="none" stroke="black" d="M33.664,-51.4729C33.664,-51.4729 128.664,-51.4729 128.664,-51.4729 134.664,-51.4729 140.664,-57.4729 140.664,-63.4729 140.664,-63.4729 140.664,-207.473 140.664,-207.473 140.664,-213.473 134.664,-219.473 128.664,-219.473 128.664,-219.473 33.664,-219.473 33.664,-219.473 27.664,-219.473 21.664,-213.473 21.664,-207.473 21.664,-207.473 21.664,-63.4729 21.664,-63.4729 21.664,-57.4729 27.664,-51.4729 33.664,-51.4729"/>
<text text-anchor="middle" x="81.164" y="-204.273" font-family="Times,serif" font-size="14.00">SessionsController</text>
<polyline fill="none" stroke="black" points="21.664,-196.473 140.664,-196.473 "/>
<text text-anchor="start" x="29.664" y="-181.273" font-family="Times,serif" font-size="14.00">home</text>
<text text-anchor="start" x="29.664" y="-166.273" font-family="Times,serif" font-size="14.00">login</text>
<text text-anchor="start" x="29.664" y="-151.273" font-family="Times,serif" font-size="14.00">logout</text>
<text text-anchor="start" x="29.664" y="-136.273" font-family="Times,serif" font-size="14.00">profile</text>
<text text-anchor="start" x="29.664" y="-121.273" font-family="Times,serif" font-size="14.00">setting</text>
<text text-anchor="start" x="29.664" y="-106.273" font-family="Times,serif" font-size="14.00">try_login</text>
<polyline fill="none" stroke="black" points="21.664,-98.4729 140.664,-98.4729 "/>
<polyline fill="none" stroke="black" points="21.664,-74.4729 140.664,-74.4729 "/>
<text text-anchor="start" x="29.664" y="-59.2729" font-family="Times,serif" font-size="14.00">_layout</text>
</g>
<!-- ApplicationController&#45;&gt;SessionsController -->
<g id="edge6" class="edge"><title>ApplicationController&#45;&gt;SessionsController</title>
<path fill="none" stroke="black" d="M220.008,-309.784C195.307,-278.772 166.061,-242.056 140.796,-210.337"/>
</g>
</g>
</svg>
