<?xml version="1.0" encoding="UTF-8" standalone="no"?>
<!DOCTYPE svg PUBLIC "-//W3C//DTD SVG 1.1//EN"
 "http://www.w3.org/Graphics/SVG/1.1/DTD/svg11.dtd">
<!-- Generated by graphviz version 2.36.0 (20140111.2315)
 -->
<!-- Title: models_diagram Pages: 1 -->
<svg width="1600pt" height="374pt"
 viewBox="0.00 0.00 1600.00 374.00" xmlns="http://www.w3.org/2000/svg" xmlns:xlink="http://www.w3.org/1999/xlink">
<g id="graph0" class="graph" transform="scale(1 1) rotate(0) translate(4 370)">
<title>models_diagram</title>
<polygon fill="white" stroke="none" points="-4,4 -4,-370 1596,-370 1596,4 -4,4"/>
<!-- _diagram_info -->
<g id="node1" class="node"><title>_diagram_info</title>
<text text-anchor="start" x="8" y="-351.6" font-family="Times,serif" font-size="13.00">Models diagram</text>
<text text-anchor="start" x="8" y="-337.6" font-family="Times,serif" font-size="13.00">Date: Jun 13 2014 &#45; 03:39</text>
<text text-anchor="start" x="8" y="-323.6" font-family="Times,serif" font-size="13.00">Migration version: 0</text>
<text text-anchor="start" x="8" y="-309.6" font-family="Times,serif" font-size="13.00">Generated by RailRoady 1.1.1</text>
<text text-anchor="start" x="8" y="-295.6" font-family="Times,serif" font-size="13.00">http://railroady.prestonlee.com</text>
</g>
<!-- Storestat -->
<g id="node2" class="node"><title>Storestat</title>
<ellipse fill="none" stroke="black" cx="124" cy="-234" rx="41.394" ry="18"/>
<text text-anchor="middle" x="124" y="-230.3" font-family="Times,serif" font-size="14.00">Storestat</text>
</g>
<!-- Offer -->
<g id="node3" class="node"><title>Offer</title>
<ellipse fill="none" stroke="black" cx="468" cy="-234" rx="29.3479" ry="18"/>
<text text-anchor="middle" x="468" y="-230.3" font-family="Times,serif" font-size="14.00">Offer</text>
</g>
<!-- Productphoto -->
<g id="node4" class="node"><title>Productphoto</title>
<ellipse fill="none" stroke="black" cx="816" cy="-162" rx="57.2688" ry="18"/>
<text text-anchor="middle" x="816" y="-158.3" font-family="Times,serif" font-size="14.00">Productphoto</text>
</g>
<!-- User -->
<g id="node5" class="node"><title>User</title>
<ellipse fill="none" stroke="black" cx="581" cy="-162" rx="26.949" ry="18"/>
<text text-anchor="middle" x="581" y="-158.3" font-family="Times,serif" font-size="14.00">User</text>
</g>
<!-- Review -->
<g id="node7" class="node"><title>Review</title>
<ellipse fill="none" stroke="black" cx="502" cy="-90" rx="37.5442" ry="18"/>
<text text-anchor="middle" x="502" y="-86.3" font-family="Times,serif" font-size="14.00">Review</text>
</g>
<!-- User&#45;&gt;Review -->
<g id="edge4" class="edge"><title>User&#45;&gt;Review</title>
<path fill="none" stroke="#497c6d" d="M559.118,-141.611C549.085,-132.721 537.144,-122.14 526.781,-112.958"/>
<ellipse fill="none" stroke="#497c6d" cx="562.398" cy="-144.517" rx="4.00002" ry="4.00002"/>
<polygon fill="#497c6d" stroke="#497c6d" points="526.706,-112.891 522.205,-102.891 522.963,-109.575 519.221,-106.259 519.221,-106.259 519.221,-106.259 522.963,-109.575 516.237,-109.627 526.706,-112.891 526.706,-112.891"/>
</g>
<!-- Userwatchedproduct -->
<g id="node20" class="node"><title>Userwatchedproduct</title>
<ellipse fill="none" stroke="black" cx="641" cy="-90" rx="83.2892" ry="18"/>
<text text-anchor="middle" x="641" y="-86.3" font-family="Times,serif" font-size="14.00">Userwatchedproduct</text>
</g>
<!-- User&#45;&gt;Userwatchedproduct -->
<g id="edge5" class="edge"><title>User&#45;&gt;Userwatchedproduct</title>
<path fill="none" stroke="#5b3fb9" d="M599.439,-139.488C605.78,-132.091 612.934,-123.744 619.497,-116.087"/>
<ellipse fill="none" stroke="#5b3fb9" cx="596.622" cy="-142.774" rx="4.00002" ry="4.00002"/>
<polygon fill="#5b3fb9" stroke="#5b3fb9" points="619.812,-115.719 629.737,-111.055 623.066,-111.923 626.32,-108.127 626.32,-108.127 626.32,-108.127 623.066,-111.923 622.903,-105.198 619.812,-115.719 619.812,-115.719"/>
</g>
<!-- PriceList -->
<g id="node6" class="node"><title>PriceList</title>
<ellipse fill="none" stroke="black" cx="1124" cy="-234" rx="42.3701" ry="18"/>
<text text-anchor="middle" x="1124" y="-230.3" font-family="Times,serif" font-size="14.00">PriceList</text>
</g>
<!-- Pricelist -->
<g id="node8" class="node"><title>Pricelist</title>
<ellipse fill="none" stroke="black" cx="1224" cy="-234" rx="39.4691" ry="18"/>
<text text-anchor="middle" x="1224" y="-230.3" font-family="Times,serif" font-size="14.00">Pricelist</text>
</g>
<!-- Product -->
<g id="node9" class="node"><title>Product</title>
<ellipse fill="none" stroke="black" cx="702" cy="-162" rx="38.0212" ry="18"/>
<text text-anchor="middle" x="702" y="-158.3" font-family="Times,serif" font-size="14.00">Product</text>
</g>
<!-- Product&#45;&gt;Review -->
<g id="edge12" class="edge"><title>Product&#45;&gt;Review</title>
<path fill="none" stroke="#4ca61d" d="M664.094,-148.029C633.102,-137.386 588.164,-121.866 549,-108 546.147,-106.99 543.2,-105.94 540.236,-104.879"/>
<ellipse fill="none" stroke="#4ca61d" cx="668.271" cy="-149.463" rx="4.00001" ry="4.00001"/>
<polygon fill="#4ca61d" stroke="#4ca61d" points="540.221,-104.874 532.333,-97.2561 535.516,-103.182 530.811,-101.491 530.811,-101.491 530.811,-101.491 535.516,-103.182 529.288,-105.726 540.221,-104.874 540.221,-104.874"/>
</g>
<!-- Productsfeature -->
<g id="node10" class="node"><title>Productsfeature</title>
<ellipse fill="none" stroke="black" cx="913" cy="-18" rx="65.4659" ry="18"/>
<text text-anchor="middle" x="913" y="-14.3" font-family="Times,serif" font-size="14.00">Productsfeature</text>
</g>
<!-- Product&#45;&gt;Productsfeature -->
<g id="edge10" class="edge"><title>Product&#45;&gt;Productsfeature</title>
<path fill="none" stroke="#b202f8" d="M715.202,-137.355C727.38,-117.465 747.156,-89.5416 771,-72 795.635,-53.8764 827.171,-41.2847 854.264,-32.9377"/>
<ellipse fill="none" stroke="#b202f8" cx="713.115" cy="-140.85" rx="4.00002" ry="4.00002"/>
<polygon fill="#b202f8" stroke="#b202f8" points="854.433,-32.8875 865.299,-34.3674 859.228,-31.4698 864.023,-30.0521 864.023,-30.0521 864.023,-30.0521 859.228,-31.4698 862.747,-25.7368 854.433,-32.8875 854.433,-32.8875"/>
</g>
<!-- Feature -->
<g id="node11" class="node"><title>Feature</title>
<ellipse fill="none" stroke="black" cx="913" cy="-90" rx="37.0701" ry="18"/>
<text text-anchor="middle" x="913" y="-86.3" font-family="Times,serif" font-size="14.00">Feature</text>
</g>
<!-- Product&#45;&gt;Feature -->
<g id="edge11" class="edge"><title>Product&#45;&gt;Feature</title>
<path fill="none" stroke="#245182" d="M740.605,-146.867C743.44,-145.881 746.261,-144.916 749,-144 800.596,-126.742 814.404,-125.258 866,-108 868.87,-107.04 871.83,-106.026 874.803,-104.991"/>
<polygon fill="#245182" stroke="#245182" points="740.435,-146.927 729.507,-146.016 735.72,-148.593 731.006,-150.259 731.006,-150.259 731.006,-150.259 735.72,-148.593 732.505,-154.502 740.435,-146.927 740.435,-146.927"/>
<polygon fill="#245182" stroke="#245182" points="874.817,-104.986 885.745,-105.893 879.531,-103.318 884.244,-101.651 884.244,-101.651 884.244,-101.651 879.531,-103.318 882.744,-97.4085 874.817,-104.986 874.817,-104.986"/>
</g>
<!-- Storeproduct -->
<g id="node17" class="node"><title>Storeproduct</title>
<ellipse fill="none" stroke="black" cx="1062" cy="-90" rx="55.3436" ry="18"/>
<text text-anchor="middle" x="1062" y="-86.3" font-family="Times,serif" font-size="14.00">Storeproduct</text>
</g>
<!-- Product&#45;&gt;Storeproduct -->
<g id="edge14" class="edge"><title>Product&#45;&gt;Storeproduct</title>
<path fill="none" stroke="#cf5fd2" d="M738.328,-147.136C741.908,-145.989 745.507,-144.919 749,-144 755.15,-142.381 915.242,-115.528 1004.02,-100.683"/>
<ellipse fill="none" stroke="#cf5fd2" cx="734.366" cy="-148.468" rx="4.00001" ry="4.00001"/>
<polygon fill="#cf5fd2" stroke="#cf5fd2" points="1004.09,-100.671 1014.7,-103.46 1009.02,-99.8463 1013.96,-99.0218 1013.96,-99.0218 1013.96,-99.0218 1009.02,-99.8463 1013.21,-94.5834 1004.09,-100.671 1004.09,-100.671"/>
</g>
<!-- Auction -->
<g id="node19" class="node"><title>Auction</title>
<ellipse fill="none" stroke="black" cx="819" cy="-90" rx="38.4949" ry="18"/>
<text text-anchor="middle" x="819" y="-86.3" font-family="Times,serif" font-size="14.00">Auction</text>
</g>
<!-- Product&#45;&gt;Auction -->
<g id="edge15" class="edge"><title>Product&#45;&gt;Auction</title>
<path fill="none" stroke="#39ab7d" d="M731.919,-143.1C748.966,-132.901 770.306,-120.133 787.594,-109.79"/>
<ellipse fill="none" stroke="#39ab7d" cx="728.269" cy="-145.283" rx="4.00002" ry="4.00002"/>
<polygon fill="#39ab7d" stroke="#39ab7d" points="787.64,-109.763 798.531,-108.49 791.93,-107.196 796.221,-104.628 796.221,-104.628 796.221,-104.628 791.93,-107.196 793.911,-100.767 787.64,-109.763 787.64,-109.763"/>
</g>
<!-- Product&#45;&gt;Userwatchedproduct -->
<g id="edge13" class="edge"><title>Product&#45;&gt;Userwatchedproduct</title>
<path fill="none" stroke="#41af48" d="M682.9,-139.082C676.435,-131.664 669.172,-123.329 662.532,-115.709"/>
<ellipse fill="none" stroke="#41af48" cx="685.53" cy="-142.1" rx="4.00002" ry="4.00002"/>
<polygon fill="#41af48" stroke="#41af48" points="662.208,-115.336 659.03,-104.841 658.923,-111.567 655.638,-107.797 655.638,-107.797 655.638,-107.797 658.923,-111.567 652.245,-110.754 662.208,-115.336 662.208,-115.336"/>
</g>
<!-- Feature&#45;&gt;Productsfeature -->
<g id="edge18" class="edge"><title>Feature&#45;&gt;Productsfeature</title>
<path fill="none" stroke="#467318" d="M913,-63.6398C913,-58.0629 913,-52.1319 913,-46.4761"/>
<ellipse fill="none" stroke="#467318" cx="913" cy="-67.6966" rx="4" ry="4"/>
<polygon fill="#467318" stroke="#467318" points="913,-46.1043 917.5,-36.1043 913,-41.1043 913,-36.1043 913,-36.1043 913,-36.1043 913,-41.1043 908.5,-36.1044 913,-46.1043 913,-46.1043"/>
</g>
<!-- Productstat -->
<g id="node12" class="node"><title>Productstat</title>
<ellipse fill="none" stroke="black" cx="234" cy="-234" rx="50.0684" ry="18"/>
<text text-anchor="middle" x="234" y="-230.3" font-family="Times,serif" font-size="14.00">Productstat</text>
</g>
<!-- Searchhistory -->
<g id="node13" class="node"><title>Searchhistory</title>
<ellipse fill="none" stroke="black" cx="361" cy="-234" rx="59.2173" ry="18"/>
<text text-anchor="middle" x="361" y="-230.3" font-family="Times,serif" font-size="14.00">Searchhistory</text>
</g>
<!-- Photo -->
<g id="node14" class="node"><title>Photo</title>
<ellipse fill="none" stroke="black" cx="805" cy="-234" rx="31.2965" ry="18"/>
<text text-anchor="middle" x="805" y="-230.3" font-family="Times,serif" font-size="14.00">Photo</text>
</g>
<!-- Photo&#45;&gt;Productphoto -->
<g id="edge22" class="edge"><title>Photo&#45;&gt;Productphoto</title>
<path fill="none" stroke="#ddcc95" d="M808.931,-207.987C809.832,-202.249 810.795,-196.121 811.711,-190.293"/>
<ellipse fill="none" stroke="#ddcc95" cx="808.284" cy="-212.103" rx="4.00001" ry="4.00001"/>
<polygon fill="#ddcc95" stroke="#ddcc95" points="811.733,-190.154 817.731,-180.974 812.509,-185.215 813.285,-180.275 813.285,-180.275 813.285,-180.275 812.509,-185.215 808.84,-179.577 811.733,-190.154 811.733,-190.154"/>
</g>
<!-- Photo&#45;&gt;Product -->
<g id="edge23" class="edge"><title>Photo&#45;&gt;Product</title>
<path fill="none" stroke="#2c18e4" d="M777.174,-214.089C763.066,-204.501 745.928,-192.854 731.58,-183.103"/>
<polygon fill="#2c18e4" stroke="#2c18e4" points="777.356,-214.213 783.097,-223.555 781.491,-217.023 785.626,-219.834 785.626,-219.834 785.626,-219.834 781.491,-217.023 788.156,-216.112 777.356,-214.213 777.356,-214.213"/>
<polygon fill="#2c18e4" stroke="#2c18e4" points="731.33,-182.933 725.588,-173.59 727.194,-180.122 723.059,-177.312 723.059,-177.312 723.059,-177.312 727.194,-180.122 720.53,-181.034 731.33,-182.933 731.33,-182.933"/>
</g>
<!-- Blacklist -->
<g id="node15" class="node"><title>Blacklist</title>
<ellipse fill="none" stroke="black" cx="1324" cy="-234" rx="42.3701" ry="18"/>
<text text-anchor="middle" x="1324" y="-230.3" font-family="Times,serif" font-size="14.00">Blacklist</text>
</g>
<!-- Store -->
<g id="node16" class="node"><title>Store</title>
<ellipse fill="none" stroke="black" cx="1035" cy="-162" rx="29.3722" ry="18"/>
<text text-anchor="middle" x="1035" y="-158.3" font-family="Times,serif" font-size="14.00">Store</text>
</g>
<!-- Store&#45;&gt;Storeproduct -->
<g id="edge26" class="edge"><title>Store&#45;&gt;Storeproduct</title>
<path fill="none" stroke="#138f94" d="M1044.34,-136.778C1046.75,-130.544 1049.35,-123.805 1051.79,-117.463"/>
<ellipse fill="none" stroke="#138f94" cx="1042.84" cy="-140.679" rx="4.00001" ry="4.00001"/>
<polygon fill="#138f94" stroke="#138f94" points="1051.86,-117.286 1059.66,-109.576 1053.66,-112.621 1055.46,-107.956 1055.46,-107.956 1055.46,-107.956 1053.66,-112.621 1051.26,-106.337 1051.86,-117.286 1051.86,-117.286"/>
</g>
<!-- Admin -->
<g id="node18" class="node"><title>Admin</title>
<ellipse fill="none" stroke="black" cx="1420" cy="-234" rx="35.6194" ry="18"/>
<text text-anchor="middle" x="1420" y="-230.3" font-family="Times,serif" font-size="14.00">Admin</text>
</g>
<!-- Blackliststore -->
<g id="node21" class="node"><title>Blackliststore</title>
<ellipse fill="none" stroke="black" cx="1533" cy="-234" rx="59.2173" ry="18"/>
<text text-anchor="middle" x="1533" y="-230.3" font-family="Times,serif" font-size="14.00">Blackliststore</text>
</g>
<!-- Object -->
<g id="node22" class="node"><title>Object</title>
<ellipse fill="none" stroke="black" cx="234" cy="-327" rx="34.1708" ry="18"/>
<text text-anchor="middle" x="234" y="-323.3" font-family="Times,serif" font-size="14.00">Object</text>
</g>
<!-- Object&#45;&gt;Storestat -->
<g id="edge1" class="edge"><title>Object&#45;&gt;Storestat</title>
<path fill="none" stroke="black" d="M217.439,-310.988C209.525,-303.911 199.865,-295.414 191,-288 175.3,-274.869 157.057,-260.494 143.575,-250.032"/>
</g>
<!-- Object&#45;&gt;Productstat -->
<g id="edge20" class="edge"><title>Object&#45;&gt;Productstat</title>
<path fill="none" stroke="black" d="M234,-308.884C234,-292.614 234,-268.284 234,-252.04"/>
</g>
<!-- Object&#45;&gt;Searchhistory -->
<g id="edge21" class="edge"><title>Object&#45;&gt;Searchhistory</title>
<path fill="none" stroke="black" d="M253.565,-311.981C276.666,-295.429 314.981,-267.974 339.066,-250.716"/>
</g>
<!-- ActiveRecord::Base -->
<g id="node23" class="node"><title>ActiveRecord::Base</title>
<ellipse fill="none" stroke="black" cx="940" cy="-327" rx="81.3646" ry="18"/>
<text text-anchor="middle" x="940" y="-323.3" font-family="Times,serif" font-size="14.00">ActiveRecord::Base</text>
</g>
<!-- ActiveRecord::Base&#45;&gt;Offer -->
<g id="edge2" class="edge"><title>ActiveRecord::Base&#45;&gt;Offer</title>
<path fill="none" stroke="black" d="M869.378,-318.132C783.75,-307.602 635.551,-286.187 512,-252 505.212,-250.122 498.02,-247.587 491.46,-245.049"/>
</g>
<!-- ActiveRecord::Base&#45;&gt;Productphoto -->
<g id="edge3" class="edge"><title>ActiveRecord::Base&#45;&gt;Productphoto</title>
<path fill="none" stroke="black" d="M927.197,-309.17C903.436,-277.935 852.768,-211.332 828.919,-179.983"/>
</g>
<!-- ActiveRecord::Base&#45;&gt;User -->
<g id="edge6" class="edge"><title>ActiveRecord::Base&#45;&gt;User</title>
<path fill="none" stroke="black" d="M871.604,-317.224C789.968,-305.55 659.731,-282.754 622,-252 599.583,-233.728 588.858,-200.476 584.183,-180.198"/>
</g>
<!-- ActiveRecord::Base&#45;&gt;PriceList -->
<g id="edge7" class="edge"><title>ActiveRecord::Base&#45;&gt;PriceList</title>
<path fill="none" stroke="black" d="M971.631,-310.357C1007.18,-292.774 1064.27,-264.541 1097.55,-248.083"/>
</g>
<!-- ActiveRecord::Base&#45;&gt;Review -->
<g id="edge8" class="edge"><title>ActiveRecord::Base&#45;&gt;Review</title>
<path fill="none" stroke="black" d="M858.903,-325.404C784.253,-321.203 673.394,-305.386 594,-252 541.905,-216.971 515.794,-141.892 506.308,-108.101"/>
</g>
<!-- ActiveRecord::Base&#45;&gt;Pricelist -->
<g id="edge9" class="edge"><title>ActiveRecord::Base&#45;&gt;Pricelist</title>
<path fill="none" stroke="black" d="M985.615,-312.064C1033.05,-297.47 1109.42,-273.698 1175,-252 1181.07,-249.992 1187.54,-247.79 1193.73,-245.656"/>
</g>
<!-- ActiveRecord::Base&#45;&gt;Product -->
<g id="edge16" class="edge"><title>ActiveRecord::Base&#45;&gt;Product</title>
<path fill="none" stroke="black" d="M889.684,-312.877C852.404,-301.329 801.883,-281.67 765,-252 740.072,-231.947 720.601,-199.583 710.246,-179.902"/>
</g>
<!-- ActiveRecord::Base&#45;&gt;Productsfeature -->
<g id="edge17" class="edge"><title>ActiveRecord::Base&#45;&gt;Productsfeature</title>
<path fill="none" stroke="black" d="M946.042,-308.971C959.906,-267.08 990.482,-156.302 959,-72 953.715,-57.8469 942.757,-44.9698 932.862,-35.4531"/>
</g>
<!-- ActiveRecord::Base&#45;&gt;Feature -->
<g id="edge19" class="edge"><title>ActiveRecord::Base&#45;&gt;Feature</title>
<path fill="none" stroke="black" d="M938.015,-308.72C933.009,-265.155 919.921,-151.237 914.952,-107.989"/>
</g>
<!-- ActiveRecord::Base&#45;&gt;Photo -->
<g id="edge24" class="edge"><title>ActiveRecord::Base&#45;&gt;Photo</title>
<path fill="none" stroke="black" d="M915.865,-309.731C889.775,-292.145 848.697,-264.455 824.549,-248.177"/>
</g>
<!-- ActiveRecord::Base&#45;&gt;Blacklist -->
<g id="edge25" class="edge"><title>ActiveRecord::Base&#45;&gt;Blacklist</title>
<path fill="none" stroke="black" d="M999.196,-314.605C1065.93,-301.343 1177.46,-277.924 1272,-252 1278.6,-250.192 1285.59,-248.056 1292.25,-245.919"/>
</g>
<!-- ActiveRecord::Base&#45;&gt;Store -->
<g id="edge27" class="edge"><title>ActiveRecord::Base&#45;&gt;Store</title>
<path fill="none" stroke="black" d="M953.005,-309.182C964.054,-294.514 979.987,-272.441 992,-252 1006.35,-227.589 1020.06,-197.673 1028,-179.489"/>
</g>
<!-- ActiveRecord::Base&#45;&gt;Storeproduct -->
<g id="edge28" class="edge"><title>ActiveRecord::Base&#45;&gt;Storeproduct</title>
<path fill="none" stroke="black" d="M963.932,-309.652C996.479,-285.711 1052.94,-237.643 1073,-180 1081.39,-155.885 1074.52,-126.142 1068.49,-107.878"/>
</g>
<!-- ActiveRecord::Base&#45;&gt;Admin -->
<g id="edge29" class="edge"><title>ActiveRecord::Base&#45;&gt;Admin</title>
<path fill="none" stroke="black" d="M1010.97,-318.192C1097.84,-307.663 1248.94,-286.19 1375,-252 1380.96,-250.382 1387.24,-248.279 1393.15,-246.107"/>
</g>
<!-- ActiveRecord::Base&#45;&gt;Auction -->
<g id="edge30" class="edge"><title>ActiveRecord::Base&#45;&gt;Auction</title>
<path fill="none" stroke="black" d="M935.834,-308.838C925.973,-269.059 900.634,-171.833 882,-144 871.345,-128.085 854.583,-114.309 841.027,-104.794"/>
</g>
<!-- ActiveRecord::Base&#45;&gt;Userwatchedproduct -->
<g id="edge31" class="edge"><title>ActiveRecord::Base&#45;&gt;Userwatchedproduct</title>
<path fill="none" stroke="black" d="M885.421,-313.617C841.293,-302.042 778.717,-281.995 730,-252 690.653,-227.774 676.375,-220.966 655,-180 643.061,-157.119 640.696,-126.761 640.524,-108.069"/>
</g>
<!-- ActiveRecord::Base&#45;&gt;Blackliststore -->
<g id="edge32" class="edge"><title>ActiveRecord::Base&#45;&gt;Blackliststore</title>
<path fill="none" stroke="black" d="M1011.15,-318.269C1112.29,-306.754 1303.21,-283.078 1464,-252 1472.36,-250.385 1481.22,-248.405 1489.72,-246.375"/>
</g>
</g>
</svg>
