<?xml version="1.0" encoding="UTF-8" standalone="no"?>
<!DOCTYPE svg PUBLIC "-//W3C//DTD SVG 1.1//EN"
 "http://www.w3.org/Graphics/SVG/1.1/DTD/svg11.dtd">
<!-- Generated by graphviz version 2.36.0 (20140111.2315)
 -->
<!-- Title: models_diagram Pages: 1 -->
<svg width="2267pt" height="752pt"
 viewBox="0.00 0.00 2267.00 752.00" xmlns="http://www.w3.org/2000/svg" xmlns:xlink="http://www.w3.org/1999/xlink">
<g id="graph0" class="graph" transform="scale(1 1) rotate(0) translate(4 748)">
<title>models_diagram</title>
<polygon fill="white" stroke="none" points="-4,4 -4,-748 2263,-748 2263,4 -4,4"/>
<!-- _diagram_info -->
<g id="node1" class="node"><title>_diagram_info</title>
<text text-anchor="start" x="8" y="-729.6" font-family="Times,serif" font-size="13.00">Models diagram</text>
<text text-anchor="start" x="8" y="-715.6" font-family="Times,serif" font-size="13.00">Date: Jun 13 2014 &#45; 03:39</text>
<text text-anchor="start" x="8" y="-701.6" font-family="Times,serif" font-size="13.00">Migration version: 0</text>
<text text-anchor="start" x="8" y="-687.6" font-family="Times,serif" font-size="13.00">Generated by RailRoady 1.1.1</text>
<text text-anchor="start" x="8" y="-673.6" font-family="Times,serif" font-size="13.00">http://railroady.prestonlee.com</text>
</g>
<!-- Storestat -->
<g id="node2" class="node"><title>Storestat</title>
<path fill="none" stroke="black" d="M30,-515.5C30,-515.5 138,-515.5 138,-515.5 144,-515.5 150,-521.5 150,-527.5 150,-527.5 150,-594.5 150,-594.5 150,-600.5 144,-606.5 138,-606.5 138,-606.5 30,-606.5 30,-606.5 24,-606.5 18,-600.5 18,-594.5 18,-594.5 18,-527.5 18,-527.5 18,-521.5 24,-515.5 30,-515.5"/>
<text text-anchor="middle" x="84" y="-591.3" font-family="Times,serif" font-size="14.00">Storestat</text>
<polyline fill="none" stroke="black" points="18,-583.5 150,-583.5 "/>
<text text-anchor="start" x="26" y="-568.3" font-family="Times,serif" font-size="14.00">_id :BSON::ObjectId</text>
<text text-anchor="start" x="26" y="-553.3" font-family="Times,serif" font-size="14.00">date :String</text>
<text text-anchor="start" x="26" y="-538.3" font-family="Times,serif" font-size="14.00">store :BigDecimal</text>
<text text-anchor="start" x="26" y="-523.3" font-family="Times,serif" font-size="14.00">visit :BigDecimal</text>
</g>
<!-- Offer -->
<g id="node3" class="node"><title>Offer</title>
<path fill="none" stroke="black" d="M496.5,-500.5C496.5,-500.5 609.5,-500.5 609.5,-500.5 615.5,-500.5 621.5,-506.5 621.5,-512.5 621.5,-512.5 621.5,-609.5 621.5,-609.5 621.5,-615.5 615.5,-621.5 609.5,-621.5 609.5,-621.5 496.5,-621.5 496.5,-621.5 490.5,-621.5 484.5,-615.5 484.5,-609.5 484.5,-609.5 484.5,-512.5 484.5,-512.5 484.5,-506.5 490.5,-500.5 496.5,-500.5"/>
<text text-anchor="middle" x="553" y="-606.3" font-family="Times,serif" font-size="14.00">Offer</text>
<polyline fill="none" stroke="black" points="484.5,-598.5 621.5,-598.5 "/>
<text text-anchor="start" x="492.5" y="-583.3" font-family="Times,serif" font-size="14.00">offer_id :integer</text>
<text text-anchor="start" x="492.5" y="-568.3" font-family="Times,serif" font-size="14.00">store_id :integer</text>
<text text-anchor="start" x="492.5" y="-553.3" font-family="Times,serif" font-size="14.00">auction_id :integer</text>
<text text-anchor="start" x="492.5" y="-538.3" font-family="Times,serif" font-size="14.00">offer_date :timestamp</text>
<text text-anchor="start" x="492.5" y="-523.3" font-family="Times,serif" font-size="14.00">offer :string</text>
<text text-anchor="start" x="492.5" y="-508.3" font-family="Times,serif" font-size="14.00">price :decimal</text>
</g>
<!-- Productphoto -->
<g id="node4" class="node"><title>Productphoto</title>
<path fill="none" stroke="black" d="M1064,-334C1064,-334 1198,-334 1198,-334 1204,-334 1210,-340 1210,-346 1210,-346 1210,-398 1210,-398 1210,-404 1204,-410 1198,-410 1198,-410 1064,-410 1064,-410 1058,-410 1052,-404 1052,-398 1052,-398 1052,-346 1052,-346 1052,-340 1058,-334 1064,-334"/>
<text text-anchor="middle" x="1131" y="-394.8" font-family="Times,serif" font-size="14.00">Productphoto</text>
<polyline fill="none" stroke="black" points="1052,-387 1210,-387 "/>
<text text-anchor="start" x="1060" y="-371.8" font-family="Times,serif" font-size="14.00">product_photo_id :integer</text>
<text text-anchor="start" x="1060" y="-356.8" font-family="Times,serif" font-size="14.00">product_id :integer</text>
<text text-anchor="start" x="1060" y="-341.8" font-family="Times,serif" font-size="14.00">photo_id :integer</text>
</g>
<!-- User -->
<g id="node5" class="node"><title>User</title>
<path fill="none" stroke="black" d="M690.5,-289C690.5,-289 803.5,-289 803.5,-289 809.5,-289 815.5,-295 815.5,-301 815.5,-301 815.5,-443 815.5,-443 815.5,-449 809.5,-455 803.5,-455 803.5,-455 690.5,-455 690.5,-455 684.5,-455 678.5,-449 678.5,-443 678.5,-443 678.5,-301 678.5,-301 678.5,-295 684.5,-289 690.5,-289"/>
<text text-anchor="middle" x="747" y="-439.8" font-family="Times,serif" font-size="14.00">User</text>
<polyline fill="none" stroke="black" points="678.5,-432 815.5,-432 "/>
<text text-anchor="start" x="686.5" y="-416.8" font-family="Times,serif" font-size="14.00">user_id :integer</text>
<text text-anchor="start" x="686.5" y="-401.8" font-family="Times,serif" font-size="14.00">first_name :string</text>
<text text-anchor="start" x="686.5" y="-386.8" font-family="Times,serif" font-size="14.00">last_name :string</text>
<text text-anchor="start" x="686.5" y="-371.8" font-family="Times,serif" font-size="14.00">nick :string</text>
<text text-anchor="start" x="686.5" y="-356.8" font-family="Times,serif" font-size="14.00">email :string</text>
<text text-anchor="start" x="686.5" y="-341.8" font-family="Times,serif" font-size="14.00">street_address :string</text>
<text text-anchor="start" x="686.5" y="-326.8" font-family="Times,serif" font-size="14.00">zip_code :string</text>
<text text-anchor="start" x="686.5" y="-311.8" font-family="Times,serif" font-size="14.00">password_hash :string</text>
<text text-anchor="start" x="686.5" y="-296.8" font-family="Times,serif" font-size="14.00">password_salt :string</text>
</g>
<!-- Review -->
<g id="node7" class="node"><title>Review</title>
<path fill="none" stroke="black" d="M563,-122.5C563,-122.5 689,-122.5 689,-122.5 695,-122.5 701,-128.5 701,-134.5 701,-134.5 701,-231.5 701,-231.5 701,-237.5 695,-243.5 689,-243.5 689,-243.5 563,-243.5 563,-243.5 557,-243.5 551,-237.5 551,-231.5 551,-231.5 551,-134.5 551,-134.5 551,-128.5 557,-122.5 563,-122.5"/>
<text text-anchor="middle" x="626" y="-228.3" font-family="Times,serif" font-size="14.00">Review</text>
<polyline fill="none" stroke="black" points="551,-220.5 701,-220.5 "/>
<text text-anchor="start" x="559" y="-205.3" font-family="Times,serif" font-size="14.00">review_id :integer</text>
<text text-anchor="start" x="559" y="-190.3" font-family="Times,serif" font-size="14.00">product_id :decimal</text>
<text text-anchor="start" x="559" y="-175.3" font-family="Times,serif" font-size="14.00">user_id :decimal</text>
<text text-anchor="start" x="559" y="-160.3" font-family="Times,serif" font-size="14.00">review_txt :string</text>
<text text-anchor="start" x="559" y="-145.3" font-family="Times,serif" font-size="14.00">rating :integer</text>
<text text-anchor="start" x="559" y="-130.3" font-family="Times,serif" font-size="14.00">created_date :timestamp</text>
</g>
<!-- User&#45;&gt;Review -->
<g id="edge4" class="edge"><title>User&#45;&gt;Review</title>
<path fill="none" stroke="#9b99ec" d="M689.531,-282.184C683.012,-272.109 676.446,-261.961 670.136,-252.21"/>
<ellipse fill="none" stroke="#9b99ec" cx="691.755" cy="-285.621" rx="4.00002" ry="4.00002"/>
<polygon fill="#9b99ec" stroke="#9b99ec" points="670.098,-252.151 668.443,-241.311 667.382,-247.953 664.665,-243.756 664.665,-243.756 664.665,-243.756 667.382,-247.953 660.887,-246.2 670.098,-252.151 670.098,-252.151"/>
</g>
<!-- Userwatchedproduct -->
<g id="node20" class="node"><title>Userwatchedproduct</title>
<path fill="none" stroke="black" d="M731,-130C731,-130 911,-130 911,-130 917,-130 923,-136 923,-142 923,-142 923,-224 923,-224 923,-230 917,-236 911,-236 911,-236 731,-236 731,-236 725,-236 719,-230 719,-224 719,-224 719,-142 719,-142 719,-136 725,-130 731,-130"/>
<text text-anchor="middle" x="821" y="-220.8" font-family="Times,serif" font-size="14.00">Userwatchedproduct</text>
<polyline fill="none" stroke="black" points="719,-213 923,-213 "/>
<text text-anchor="start" x="727" y="-197.8" font-family="Times,serif" font-size="14.00">user_id :integer</text>
<text text-anchor="start" x="727" y="-182.8" font-family="Times,serif" font-size="14.00">store_product_id :integer</text>
<text text-anchor="start" x="727" y="-167.8" font-family="Times,serif" font-size="14.00">product_id :integer</text>
<text text-anchor="start" x="727" y="-152.8" font-family="Times,serif" font-size="14.00">user_watch_prod_date :timestamp</text>
<text text-anchor="start" x="727" y="-137.8" font-family="Times,serif" font-size="14.00">watched_id :integer</text>
</g>
<!-- User&#45;&gt;Userwatchedproduct -->
<g id="edge5" class="edge"><title>User&#45;&gt;Userwatchedproduct</title>
<path fill="none" stroke="#e109b5" d="M782.466,-281.376C787.266,-269.247 792.1,-257.03 796.645,-245.545"/>
<ellipse fill="none" stroke="#e109b5" cx="780.929" cy="-285.26" rx="4.00001" ry="4.00001"/>
<polygon fill="#e109b5" stroke="#e109b5" points="796.708,-245.385 804.572,-237.743 798.548,-240.736 800.388,-236.087 800.388,-236.087 800.388,-236.087 798.548,-240.736 796.204,-234.431 796.708,-245.385 796.708,-245.385"/>
</g>
<!-- PriceList -->
<g id="node6" class="node"><title>PriceList</title>
<path fill="none" stroke="black" d="M1429.5,-508C1429.5,-508 1564.5,-508 1564.5,-508 1570.5,-508 1576.5,-514 1576.5,-520 1576.5,-520 1576.5,-602 1576.5,-602 1576.5,-608 1570.5,-614 1564.5,-614 1564.5,-614 1429.5,-614 1429.5,-614 1423.5,-614 1417.5,-608 1417.5,-602 1417.5,-602 1417.5,-520 1417.5,-520 1417.5,-514 1423.5,-508 1429.5,-508"/>
<text text-anchor="middle" x="1497" y="-598.8" font-family="Times,serif" font-size="14.00">PriceList</text>
<polyline fill="none" stroke="black" points="1417.5,-591 1576.5,-591 "/>
<text text-anchor="start" x="1425.5" y="-575.8" font-family="Times,serif" font-size="14.00">price_list_id :decimal</text>
<text text-anchor="start" x="1425.5" y="-560.8" font-family="Times,serif" font-size="14.00">datetime :timestamp</text>
<text text-anchor="start" x="1425.5" y="-545.8" font-family="Times,serif" font-size="14.00">price_old :decimal</text>
<text text-anchor="start" x="1425.5" y="-530.8" font-family="Times,serif" font-size="14.00">price_new :decimal</text>
<text text-anchor="start" x="1425.5" y="-515.8" font-family="Times,serif" font-size="14.00">store_product_id :decimal</text>
</g>
<!-- Pricelist -->
<g id="node8" class="node"><title>Pricelist</title>
<path fill="none" stroke="black" d="M1606.5,-508C1606.5,-508 1741.5,-508 1741.5,-508 1747.5,-508 1753.5,-514 1753.5,-520 1753.5,-520 1753.5,-602 1753.5,-602 1753.5,-608 1747.5,-614 1741.5,-614 1741.5,-614 1606.5,-614 1606.5,-614 1600.5,-614 1594.5,-608 1594.5,-602 1594.5,-602 1594.5,-520 1594.5,-520 1594.5,-514 1600.5,-508 1606.5,-508"/>
<text text-anchor="middle" x="1674" y="-598.8" font-family="Times,serif" font-size="14.00">Pricelist</text>
<polyline fill="none" stroke="black" points="1594.5,-591 1753.5,-591 "/>
<text text-anchor="start" x="1602.5" y="-575.8" font-family="Times,serif" font-size="14.00">price_list_id :decimal</text>
<text text-anchor="start" x="1602.5" y="-560.8" font-family="Times,serif" font-size="14.00">datetime :timestamp</text>
<text text-anchor="start" x="1602.5" y="-545.8" font-family="Times,serif" font-size="14.00">price_old :decimal</text>
<text text-anchor="start" x="1602.5" y="-530.8" font-family="Times,serif" font-size="14.00">price_new :decimal</text>
<text text-anchor="start" x="1602.5" y="-515.8" font-family="Times,serif" font-size="14.00">store_product_id :decimal</text>
</g>
<!-- Product -->
<g id="node9" class="node"><title>Product</title>
<path fill="none" stroke="black" d="M884.5,-304C884.5,-304 1021.5,-304 1021.5,-304 1027.5,-304 1033.5,-310 1033.5,-316 1033.5,-316 1033.5,-428 1033.5,-428 1033.5,-434 1027.5,-440 1021.5,-440 1021.5,-440 884.5,-440 884.5,-440 878.5,-440 872.5,-434 872.5,-428 872.5,-428 872.5,-316 872.5,-316 872.5,-310 878.5,-304 884.5,-304"/>
<text text-anchor="middle" x="953" y="-424.8" font-family="Times,serif" font-size="14.00">Product</text>
<polyline fill="none" stroke="black" points="872.5,-417 1033.5,-417 "/>
<text text-anchor="start" x="880.5" y="-401.8" font-family="Times,serif" font-size="14.00">product_id :integer</text>
<text text-anchor="start" x="880.5" y="-386.8" font-family="Times,serif" font-size="14.00">name :string</text>
<text text-anchor="start" x="880.5" y="-371.8" font-family="Times,serif" font-size="14.00">description :string</text>
<text text-anchor="start" x="880.5" y="-356.8" font-family="Times,serif" font-size="14.00">created_by :integer</text>
<text text-anchor="start" x="880.5" y="-341.8" font-family="Times,serif" font-size="14.00">created_date :timestamp</text>
<text text-anchor="start" x="880.5" y="-326.8" font-family="Times,serif" font-size="14.00">modified_by :integer</text>
<text text-anchor="start" x="880.5" y="-311.8" font-family="Times,serif" font-size="14.00">modified_date :timestamp</text>
</g>
<!-- Product&#45;&gt;Review -->
<g id="edge12" class="edge"><title>Product&#45;&gt;Review</title>
<path fill="none" stroke="#27fe82" d="M865.287,-310.226C851.786,-302.156 837.755,-294.455 824,-288 775.901,-265.426 756.801,-277.156 710,-252 708.203,-251.034 706.407,-250.027 704.615,-248.985"/>
<ellipse fill="none" stroke="#27fe82" cx="868.875" cy="-312.402" rx="4.00002" ry="4.00002"/>
<polygon fill="#27fe82" stroke="#27fe82" points="704.222,-248.744 698.063,-239.671 699.964,-246.123 695.705,-243.503 695.705,-243.503 695.705,-243.503 699.964,-246.123 693.347,-247.336 704.222,-248.744 704.222,-248.744"/>
</g>
<!-- Productsfeature -->
<g id="node10" class="node"><title>Productsfeature</title>
<path fill="none" stroke="black" d="M1155.5,-1C1155.5,-1 1268.5,-1 1268.5,-1 1274.5,-1 1280.5,-7 1280.5,-13 1280.5,-13 1280.5,-65 1280.5,-65 1280.5,-71 1274.5,-77 1268.5,-77 1268.5,-77 1155.5,-77 1155.5,-77 1149.5,-77 1143.5,-71 1143.5,-65 1143.5,-65 1143.5,-13 1143.5,-13 1143.5,-7 1149.5,-1 1155.5,-1"/>
<text text-anchor="middle" x="1212" y="-61.8" font-family="Times,serif" font-size="14.00">Productsfeature</text>
<polyline fill="none" stroke="black" points="1143.5,-54 1280.5,-54 "/>
<text text-anchor="start" x="1151.5" y="-38.8" font-family="Times,serif" font-size="14.00">prod_feat_id :decimal</text>
<text text-anchor="start" x="1151.5" y="-23.8" font-family="Times,serif" font-size="14.00">product_id :decimal</text>
<text text-anchor="start" x="1151.5" y="-8.8" font-family="Times,serif" font-size="14.00">feature_id :decimal</text>
</g>
<!-- Product&#45;&gt;Productsfeature -->
<g id="edge10" class="edge"><title>Product&#45;&gt;Productsfeature</title>
<path fill="none" stroke="#d877d3" d="M936.977,-295.635C929.631,-239.643 929.968,-164.525 970,-114 1008.66,-65.2114 1078.65,-47.7601 1133.45,-41.9032"/>
<ellipse fill="none" stroke="#d877d3" cx="937.559" cy="-299.791" rx="4.00001" ry="4.00001"/>
<polygon fill="#d877d3" stroke="#d877d3" points="1133.54,-41.8946 1143.93,-45.419 1138.52,-41.4171 1143.5,-40.9396 1143.5,-40.9396 1143.5,-40.9396 1138.52,-41.4171 1143.07,-36.4601 1133.54,-41.8946 1133.54,-41.8946"/>
</g>
<!-- Feature -->
<g id="node11" class="node"><title>Feature</title>
<path fill="none" stroke="black" d="M1143.5,-115C1143.5,-115 1280.5,-115 1280.5,-115 1286.5,-115 1292.5,-121 1292.5,-127 1292.5,-127 1292.5,-239 1292.5,-239 1292.5,-245 1286.5,-251 1280.5,-251 1280.5,-251 1143.5,-251 1143.5,-251 1137.5,-251 1131.5,-245 1131.5,-239 1131.5,-239 1131.5,-127 1131.5,-127 1131.5,-121 1137.5,-115 1143.5,-115"/>
<text text-anchor="middle" x="1212" y="-235.8" font-family="Times,serif" font-size="14.00">Feature</text>
<polyline fill="none" stroke="black" points="1131.5,-228 1292.5,-228 "/>
<text text-anchor="start" x="1139.5" y="-212.8" font-family="Times,serif" font-size="14.00">feature_id :integer</text>
<text text-anchor="start" x="1139.5" y="-197.8" font-family="Times,serif" font-size="14.00">feature_type :string</text>
<text text-anchor="start" x="1139.5" y="-182.8" font-family="Times,serif" font-size="14.00">feature_name :string</text>
<text text-anchor="start" x="1139.5" y="-167.8" font-family="Times,serif" font-size="14.00">created_by :integer</text>
<text text-anchor="start" x="1139.5" y="-152.8" font-family="Times,serif" font-size="14.00">created_date :timestamp</text>
<text text-anchor="start" x="1139.5" y="-137.8" font-family="Times,serif" font-size="14.00">modified_by :integer</text>
<text text-anchor="start" x="1139.5" y="-122.8" font-family="Times,serif" font-size="14.00">modified_date :timestamp</text>
</g>
<!-- Product&#45;&gt;Feature -->
<g id="edge11" class="edge"><title>Product&#45;&gt;Feature</title>
<path fill="none" stroke="#ee31bc" d="M1029.45,-297.649C1033.93,-294.255 1038.46,-291.013 1043,-288 1075.14,-266.653 1088.85,-271.749 1122,-252 1122.29,-251.826 1122.58,-251.652 1122.88,-251.476"/>
<polygon fill="#ee31bc" stroke="#ee31bc" points="1029.33,-297.746 1018.68,-300.363 1025.39,-300.826 1021.45,-303.907 1021.45,-303.907 1021.45,-303.907 1025.39,-300.826 1024.23,-307.451 1029.33,-297.746 1029.33,-297.746"/>
<polygon fill="#ee31bc" stroke="#ee31bc" points="1122.88,-251.472 1133.75,-250.021 1127.13,-248.835 1131.38,-246.198 1131.38,-246.198 1131.38,-246.198 1127.13,-248.835 1129.01,-242.375 1122.88,-251.472 1122.88,-251.472"/>
</g>
<!-- Storeproduct -->
<g id="node17" class="node"><title>Storeproduct</title>
<path fill="none" stroke="black" d="M1361.5,-130C1361.5,-130 1490.5,-130 1490.5,-130 1496.5,-130 1502.5,-136 1502.5,-142 1502.5,-142 1502.5,-224 1502.5,-224 1502.5,-230 1496.5,-236 1490.5,-236 1490.5,-236 1361.5,-236 1361.5,-236 1355.5,-236 1349.5,-230 1349.5,-224 1349.5,-224 1349.5,-142 1349.5,-142 1349.5,-136 1355.5,-130 1361.5,-130"/>
<text text-anchor="middle" x="1426" y="-220.8" font-family="Times,serif" font-size="14.00">Storeproduct</text>
<polyline fill="none" stroke="black" points="1349.5,-213 1502.5,-213 "/>
<text text-anchor="start" x="1357.5" y="-197.8" font-family="Times,serif" font-size="14.00">store_product_id :integer</text>
<text text-anchor="start" x="1357.5" y="-182.8" font-family="Times,serif" font-size="14.00">product_id :decimal</text>
<text text-anchor="start" x="1357.5" y="-167.8" font-family="Times,serif" font-size="14.00">store_id :decimal</text>
<text text-anchor="start" x="1357.5" y="-152.8" font-family="Times,serif" font-size="14.00">price :decimal</text>
<text text-anchor="start" x="1357.5" y="-137.8" font-family="Times,serif" font-size="14.00">product_buy_link :string</text>
</g>
<!-- Product&#45;&gt;Storeproduct -->
<g id="edge14" class="edge"><title>Product&#45;&gt;Storeproduct</title>
<path fill="none" stroke="#50867c" d="M1023.64,-299.163C1029.89,-294.936 1036.37,-291.137 1043,-288 1147.66,-238.497 1191.04,-288.247 1301,-252 1314.03,-247.706 1327.28,-242.075 1340.06,-235.89"/>
<ellipse fill="none" stroke="#50867c" cx="1020.22" cy="-301.592" rx="4.00002" ry="4.00002"/>
<polygon fill="#50867c" stroke="#50867c" points="1340.31,-235.763 1351.27,-235.327 1344.79,-233.531 1349.26,-231.3 1349.26,-231.3 1349.26,-231.3 1344.79,-233.531 1347.25,-227.273 1340.31,-235.763 1340.31,-235.763"/>
</g>
<!-- Auction -->
<g id="node19" class="node"><title>Auction</title>
<path fill="none" stroke="black" d="M991,-115C991,-115 1101,-115 1101,-115 1107,-115 1113,-121 1113,-127 1113,-127 1113,-239 1113,-239 1113,-245 1107,-251 1101,-251 1101,-251 991,-251 991,-251 985,-251 979,-245 979,-239 979,-239 979,-127 979,-127 979,-121 985,-115 991,-115"/>
<text text-anchor="middle" x="1046" y="-235.8" font-family="Times,serif" font-size="14.00">Auction</text>
<polyline fill="none" stroke="black" points="979,-228 1113,-228 "/>
<text text-anchor="start" x="987" y="-212.8" font-family="Times,serif" font-size="14.00">auction_id :integer</text>
<text text-anchor="start" x="987" y="-197.8" font-family="Times,serif" font-size="14.00">user_id :integer</text>
<text text-anchor="start" x="987" y="-182.8" font-family="Times,serif" font-size="14.00">product_id :integer</text>
<text text-anchor="start" x="987" y="-167.8" font-family="Times,serif" font-size="14.00">message :string</text>
<text text-anchor="start" x="987" y="-152.8" font-family="Times,serif" font-size="14.00">start_date :timestamp</text>
<text text-anchor="start" x="987" y="-137.8" font-family="Times,serif" font-size="14.00">end_date :timestamp</text>
<text text-anchor="start" x="987" y="-122.8" font-family="Times,serif" font-size="14.00">auction_status :string</text>
</g>
<!-- Product&#45;&gt;Auction -->
<g id="edge15" class="edge"><title>Product&#45;&gt;Auction</title>
<path fill="none" stroke="#5e793d" d="M990.059,-296.484C995.976,-284.586 1002.11,-272.259 1008.04,-260.32"/>
<ellipse fill="none" stroke="#5e793d" cx="988.225" cy="-300.171" rx="4.00002" ry="4.00002"/>
<polygon fill="#5e793d" stroke="#5e793d" points="1008.09,-260.232 1016.57,-253.282 1010.31,-255.755 1012.54,-251.279 1012.54,-251.279 1012.54,-251.279 1010.31,-255.755 1008.51,-249.275 1008.09,-260.232 1008.09,-260.232"/>
</g>
<!-- Product&#45;&gt;Userwatchedproduct -->
<g id="edge13" class="edge"><title>Product&#45;&gt;Userwatchedproduct</title>
<path fill="none" stroke="#c70c99" d="M900.879,-297.162C888.581,-279.74 875.61,-261.365 863.78,-244.605"/>
<ellipse fill="none" stroke="#c70c99" cx="903.225" cy="-300.485" rx="4.00002" ry="4.00002"/>
<polygon fill="#c70c99" stroke="#c70c99" points="863.474,-244.172 861.384,-233.407 860.591,-240.087 857.707,-236.002 857.707,-236.002 857.707,-236.002 860.591,-240.087 854.031,-238.597 863.474,-244.172 863.474,-244.172"/>
</g>
<!-- Feature&#45;&gt;Productsfeature -->
<g id="edge18" class="edge"><title>Feature&#45;&gt;Productsfeature</title>
<path fill="none" stroke="#27dcfe" d="M1212,-106.571C1212,-100.052 1212,-93.5827 1212,-87.3844"/>
<ellipse fill="none" stroke="#27dcfe" cx="1212" cy="-110.743" rx="4" ry="4"/>
<polygon fill="#27dcfe" stroke="#27dcfe" points="1212,-87.2479 1216.5,-77.2479 1212,-82.2479 1212,-77.2479 1212,-77.2479 1212,-77.2479 1212,-82.2479 1207.5,-77.248 1212,-87.2479 1212,-87.2479"/>
</g>
<!-- Productstat -->
<g id="node12" class="node"><title>Productstat</title>
<path fill="none" stroke="black" d="M180,-515.5C180,-515.5 288,-515.5 288,-515.5 294,-515.5 300,-521.5 300,-527.5 300,-527.5 300,-594.5 300,-594.5 300,-600.5 294,-606.5 288,-606.5 288,-606.5 180,-606.5 180,-606.5 174,-606.5 168,-600.5 168,-594.5 168,-594.5 168,-527.5 168,-527.5 168,-521.5 174,-515.5 180,-515.5"/>
<text text-anchor="middle" x="234" y="-591.3" font-family="Times,serif" font-size="14.00">Productstat</text>
<polyline fill="none" stroke="black" points="168,-583.5 300,-583.5 "/>
<text text-anchor="start" x="176" y="-568.3" font-family="Times,serif" font-size="14.00">_id :BSON::ObjectId</text>
<text text-anchor="start" x="176" y="-553.3" font-family="Times,serif" font-size="14.00">date :String</text>
<text text-anchor="start" x="176" y="-538.3" font-family="Times,serif" font-size="14.00">product :BigDecimal</text>
<text text-anchor="start" x="176" y="-523.3" font-family="Times,serif" font-size="14.00">visit :BigDecimal</text>
</g>
<!-- Searchhistory -->
<g id="node13" class="node"><title>Searchhistory</title>
<path fill="none" stroke="black" d="M330,-500.5C330,-500.5 454,-500.5 454,-500.5 460,-500.5 466,-506.5 466,-512.5 466,-512.5 466,-609.5 466,-609.5 466,-615.5 460,-621.5 454,-621.5 454,-621.5 330,-621.5 330,-621.5 324,-621.5 318,-615.5 318,-609.5 318,-609.5 318,-512.5 318,-512.5 318,-506.5 324,-500.5 330,-500.5"/>
<text text-anchor="middle" x="392" y="-606.3" font-family="Times,serif" font-size="14.00">Searchhistory</text>
<polyline fill="none" stroke="black" points="318,-598.5 466,-598.5 "/>
<text text-anchor="start" x="326" y="-583.3" font-family="Times,serif" font-size="14.00">_id :BSON::ObjectId</text>
<text text-anchor="start" x="326" y="-568.3" font-family="Times,serif" font-size="14.00">count :BigDecimal</text>
<text text-anchor="start" x="326" y="-553.3" font-family="Times,serif" font-size="14.00">date :String</text>
<text text-anchor="start" x="326" y="-538.3" font-family="Times,serif" font-size="14.00">query :String</text>
<text text-anchor="start" x="326" y="-523.3" font-family="Times,serif" font-size="14.00">timestamp :BigDecimal</text>
<text text-anchor="start" x="326" y="-508.3" font-family="Times,serif" font-size="14.00">user :BigDecimal</text>
</g>
<!-- Photo -->
<g id="node14" class="node"><title>Photo</title>
<path fill="none" stroke="black" d="M1068,-523C1068,-523 1160,-523 1160,-523 1166,-523 1172,-529 1172,-535 1172,-535 1172,-587 1172,-587 1172,-593 1166,-599 1160,-599 1160,-599 1068,-599 1068,-599 1062,-599 1056,-593 1056,-587 1056,-587 1056,-535 1056,-535 1056,-529 1062,-523 1068,-523"/>
<text text-anchor="middle" x="1114" y="-583.8" font-family="Times,serif" font-size="14.00">Photo</text>
<polyline fill="none" stroke="black" points="1056,-576 1172,-576 "/>
<text text-anchor="start" x="1064" y="-560.8" font-family="Times,serif" font-size="14.00">photo_id :integer</text>
<text text-anchor="start" x="1064" y="-545.8" font-family="Times,serif" font-size="14.00">photo_type :string</text>
<text text-anchor="start" x="1064" y="-530.8" font-family="Times,serif" font-size="14.00">photo_path :string</text>
</g>
<!-- Photo&#45;&gt;Productphoto -->
<g id="edge22" class="edge"><title>Photo&#45;&gt;Productphoto</title>
<path fill="none" stroke="#d80062" d="M1118.16,-514.277C1120.75,-485.734 1124.08,-449.069 1126.71,-420.244"/>
<ellipse fill="none" stroke="#d80062" cx="1117.76" cy="-518.624" rx="4" ry="4"/>
<polygon fill="#d80062" stroke="#d80062" points="1126.73,-419.968 1132.12,-410.416 1127.18,-414.988 1127.64,-410.009 1127.64,-410.009 1127.64,-410.009 1127.18,-414.988 1123.15,-409.601 1126.73,-419.968 1126.73,-419.968"/>
</g>
<!-- Photo&#45;&gt;Product -->
<g id="edge23" class="edge"><title>Photo&#45;&gt;Product</title>
<path fill="none" stroke="#f1f45d" d="M1075.18,-514.915C1057.87,-494.804 1037,-470.565 1017.45,-447.856"/>
<polygon fill="#f1f45d" stroke="#f1f45d" points="1075.28,-515.029 1078.4,-525.543 1078.54,-518.818 1081.81,-522.607 1081.81,-522.607 1081.81,-522.607 1078.54,-518.818 1085.22,-519.671 1075.28,-515.029 1075.28,-515.029"/>
<polygon fill="#f1f45d" stroke="#f1f45d" points="1017.4,-447.8 1014.29,-437.285 1014.14,-444.01 1010.88,-440.221 1010.88,-440.221 1010.88,-440.221 1014.14,-444.01 1007.46,-443.157 1017.4,-447.8 1017.4,-447.8"/>
</g>
<!-- Blacklist -->
<g id="node15" class="node"><title>Blacklist</title>
<path fill="none" stroke="black" d="M1783,-523C1783,-523 1909,-523 1909,-523 1915,-523 1921,-529 1921,-535 1921,-535 1921,-587 1921,-587 1921,-593 1915,-599 1909,-599 1909,-599 1783,-599 1783,-599 1777,-599 1771,-593 1771,-587 1771,-587 1771,-535 1771,-535 1771,-529 1777,-523 1783,-523"/>
<text text-anchor="middle" x="1846" y="-583.8" font-family="Times,serif" font-size="14.00">Blacklist</text>
<polyline fill="none" stroke="black" points="1771,-576 1921,-576 "/>
<text text-anchor="start" x="1779" y="-560.8" font-family="Times,serif" font-size="14.00">black_list_id :integer</text>
<text text-anchor="start" x="1779" y="-545.8" font-family="Times,serif" font-size="14.00">user_id :integer</text>
<text text-anchor="start" x="1779" y="-530.8" font-family="Times,serif" font-size="14.00">created_date :timestamp</text>
</g>
<!-- Store -->
<g id="node16" class="node"><title>Store</title>
<path fill="none" stroke="black" d="M1354.5,-289C1354.5,-289 1491.5,-289 1491.5,-289 1497.5,-289 1503.5,-295 1503.5,-301 1503.5,-301 1503.5,-443 1503.5,-443 1503.5,-449 1497.5,-455 1491.5,-455 1491.5,-455 1354.5,-455 1354.5,-455 1348.5,-455 1342.5,-449 1342.5,-443 1342.5,-443 1342.5,-301 1342.5,-301 1342.5,-295 1348.5,-289 1354.5,-289"/>
<text text-anchor="middle" x="1423" y="-439.8" font-family="Times,serif" font-size="14.00">Store</text>
<polyline fill="none" stroke="black" points="1342.5,-432 1503.5,-432 "/>
<text text-anchor="start" x="1350.5" y="-416.8" font-family="Times,serif" font-size="14.00">store_id :integer</text>
<text text-anchor="start" x="1350.5" y="-401.8" font-family="Times,serif" font-size="14.00">name :string</text>
<text text-anchor="start" x="1350.5" y="-386.8" font-family="Times,serif" font-size="14.00">website :string</text>
<text text-anchor="start" x="1350.5" y="-371.8" font-family="Times,serif" font-size="14.00">street_address :string</text>
<text text-anchor="start" x="1350.5" y="-356.8" font-family="Times,serif" font-size="14.00">zip_code :string</text>
<text text-anchor="start" x="1350.5" y="-341.8" font-family="Times,serif" font-size="14.00">created_by :integer</text>
<text text-anchor="start" x="1350.5" y="-326.8" font-family="Times,serif" font-size="14.00">created_date :timestamp</text>
<text text-anchor="start" x="1350.5" y="-311.8" font-family="Times,serif" font-size="14.00">modified_by :integer</text>
<text text-anchor="start" x="1350.5" y="-296.8" font-family="Times,serif" font-size="14.00">modified_date :timestamp</text>
</g>
<!-- Store&#45;&gt;Storeproduct -->
<g id="edge26" class="edge"><title>Store&#45;&gt;Storeproduct</title>
<path fill="none" stroke="#c38a02" d="M1424.44,-280.953C1424.63,-269.172 1424.82,-257.318 1425,-246.141"/>
<ellipse fill="none" stroke="#c38a02" cx="1424.38" cy="-284.98" rx="4" ry="4"/>
<polygon fill="#c38a02" stroke="#c38a02" points="1425,-246.086 1429.66,-236.159 1425.08,-241.086 1425.16,-236.087 1425.16,-236.087 1425.16,-236.087 1425.08,-241.086 1420.66,-236.015 1425,-246.086 1425,-246.086"/>
</g>
<!-- Admin -->
<g id="node18" class="node"><title>Admin</title>
<path fill="none" stroke="black" d="M1951.5,-493C1951.5,-493 2064.5,-493 2064.5,-493 2070.5,-493 2076.5,-499 2076.5,-505 2076.5,-505 2076.5,-617 2076.5,-617 2076.5,-623 2070.5,-629 2064.5,-629 2064.5,-629 1951.5,-629 1951.5,-629 1945.5,-629 1939.5,-623 1939.5,-617 1939.5,-617 1939.5,-505 1939.5,-505 1939.5,-499 1945.5,-493 1951.5,-493"/>
<text text-anchor="middle" x="2008" y="-613.8" font-family="Times,serif" font-size="14.00">Admin</text>
<polyline fill="none" stroke="black" points="1939.5,-606 2076.5,-606 "/>
<text text-anchor="start" x="1947.5" y="-590.8" font-family="Times,serif" font-size="14.00">admin_id :integer</text>
<text text-anchor="start" x="1947.5" y="-575.8" font-family="Times,serif" font-size="14.00">nick :string</text>
<text text-anchor="start" x="1947.5" y="-560.8" font-family="Times,serif" font-size="14.00">first_name :string</text>
<text text-anchor="start" x="1947.5" y="-545.8" font-family="Times,serif" font-size="14.00">last_name :string</text>
<text text-anchor="start" x="1947.5" y="-530.8" font-family="Times,serif" font-size="14.00">email :string</text>
<text text-anchor="start" x="1947.5" y="-515.8" font-family="Times,serif" font-size="14.00">password_hash :string</text>
<text text-anchor="start" x="1947.5" y="-500.8" font-family="Times,serif" font-size="14.00">password_salt :string</text>
</g>
<!-- Blackliststore -->
<g id="node21" class="node"><title>Blackliststore</title>
<path fill="none" stroke="black" d="M2107,-523C2107,-523 2247,-523 2247,-523 2253,-523 2259,-529 2259,-535 2259,-535 2259,-587 2259,-587 2259,-593 2253,-599 2247,-599 2247,-599 2107,-599 2107,-599 2101,-599 2095,-593 2095,-587 2095,-587 2095,-535 2095,-535 2095,-529 2101,-523 2107,-523"/>
<text text-anchor="middle" x="2177" y="-583.8" font-family="Times,serif" font-size="14.00">Blackliststore</text>
<polyline fill="none" stroke="black" points="2095,-576 2259,-576 "/>
<text text-anchor="start" x="2103" y="-560.8" font-family="Times,serif" font-size="14.00">black_list_store_id :integer</text>
<text text-anchor="start" x="2103" y="-545.8" font-family="Times,serif" font-size="14.00">black_list_id :integer</text>
<text text-anchor="start" x="2103" y="-530.8" font-family="Times,serif" font-size="14.00">store_id :integer</text>
</g>
<!-- Object -->
<g id="node22" class="node"><title>Object</title>
<ellipse fill="none" stroke="black" cx="234" cy="-705" rx="34.1708" ry="18"/>
<text text-anchor="middle" x="234" y="-701.3" font-family="Times,serif" font-size="14.00">Object</text>
</g>
<!-- Object&#45;&gt;Storestat -->
<g id="edge1" class="edge"><title>Object&#45;&gt;Storestat</title>
<path fill="none" stroke="black" d="M217.947,-688.804C197.39,-669.343 160.871,-634.772 131.152,-606.637"/>
</g>
<!-- Object&#45;&gt;Productstat -->
<g id="edge20" class="edge"><title>Object&#45;&gt;Productstat</title>
<path fill="none" stroke="black" d="M234,-686.871C234,-667.102 234,-633.816 234,-606.58"/>
</g>
<!-- Object&#45;&gt;Searchhistory -->
<g id="edge21" class="edge"><title>Object&#45;&gt;Searchhistory</title>
<path fill="none" stroke="black" d="M250.61,-689.072C268.516,-672.979 298.163,-646.335 325.697,-621.589"/>
</g>
<!-- ActiveRecord::Base -->
<g id="node23" class="node"><title>ActiveRecord::Base</title>
<ellipse fill="none" stroke="black" cx="1276" cy="-705" rx="81.3646" ry="18"/>
<text text-anchor="middle" x="1276" y="-701.3" font-family="Times,serif" font-size="14.00">ActiveRecord::Base</text>
</g>
<!-- ActiveRecord::Base&#45;&gt;Offer -->
<g id="edge2" class="edge"><title>ActiveRecord::Base&#45;&gt;Offer</title>
<path fill="none" stroke="black" d="M1197.43,-700.441C1049.49,-692.838 735.513,-672.162 636,-630 630.511,-627.675 625.098,-624.868 619.827,-621.737"/>
</g>
<!-- ActiveRecord::Base&#45;&gt;Productphoto -->
<g id="edge3" class="edge"><title>ActiveRecord::Base&#45;&gt;Productphoto</title>
<path fill="none" stroke="black" d="M1261.79,-687.008C1250.31,-672.588 1234.4,-650.958 1224,-630 1195.39,-572.333 1202.05,-552.481 1180,-492 1169.9,-464.292 1157.19,-433.519 1147.24,-410.209"/>
</g>
<!-- ActiveRecord::Base&#45;&gt;User -->
<g id="edge6" class="edge"><title>ActiveRecord::Base&#45;&gt;User</title>
<path fill="none" stroke="black" d="M1196.97,-700.582C1083.92,-694.117 883.728,-676.314 830,-630 779.748,-586.683 759.69,-512.734 751.8,-455.25"/>
</g>
<!-- ActiveRecord::Base&#45;&gt;PriceList -->
<g id="edge7" class="edge"><title>ActiveRecord::Base&#45;&gt;PriceList</title>
<path fill="none" stroke="black" d="M1305.51,-688.119C1331.81,-673.692 1371.1,-651.449 1404,-630 1411.71,-624.975 1419.65,-619.56 1427.49,-614.058"/>
</g>
<!-- ActiveRecord::Base&#45;&gt;Review -->
<g id="edge8" class="edge"><title>ActiveRecord::Base&#45;&gt;Review</title>
<path fill="none" stroke="black" d="M1196.19,-701.711C1067.81,-696.569 822.828,-680.282 754,-630 632.036,-540.9 620.066,-343.065 622.392,-243.571"/>
</g>
<!-- ActiveRecord::Base&#45;&gt;Pricelist -->
<g id="edge9" class="edge"><title>ActiveRecord::Base&#45;&gt;Pricelist</title>
<path fill="none" stroke="black" d="M1345.66,-695.767C1410.16,-686.218 1507.53,-666.826 1585,-630 1594.31,-625.575 1603.58,-620.068 1612.42,-614.116"/>
</g>
<!-- ActiveRecord::Base&#45;&gt;Product -->
<g id="edge16" class="edge"><title>ActiveRecord::Base&#45;&gt;Product</title>
<path fill="none" stroke="black" d="M1202.98,-697.086C1153.22,-688.763 1088.99,-670.421 1047,-630 994.717,-579.672 971.36,-497.905 961.024,-440.134"/>
</g>
<!-- ActiveRecord::Base&#45;&gt;Productsfeature -->
<g id="edge17" class="edge"><title>ActiveRecord::Base&#45;&gt;Productsfeature</title>
<path fill="none" stroke="black" d="M1280.37,-686.791C1283.95,-671.879 1288.76,-649.667 1291,-630 1303.96,-516.046 1349.7,-217.833 1301,-114 1294.43,-99.9915 1283.76,-87.7153 1272.05,-77.3966"/>
</g>
<!-- ActiveRecord::Base&#45;&gt;Feature -->
<g id="edge19" class="edge"><title>ActiveRecord::Base&#45;&gt;Feature</title>
<path fill="none" stroke="black" d="M1276.89,-686.706C1279.46,-629.237 1284.71,-439.687 1252,-288 1249.37,-275.803 1245.53,-263.15 1241.25,-251.045"/>
</g>
<!-- ActiveRecord::Base&#45;&gt;Photo -->
<g id="edge24" class="edge"><title>ActiveRecord::Base&#45;&gt;Photo</title>
<path fill="none" stroke="black" d="M1254.93,-687.351C1236.47,-672.607 1209.07,-650.332 1186,-630 1174.91,-620.222 1163.14,-609.34 1152.41,-599.199"/>
</g>
<!-- ActiveRecord::Base&#45;&gt;Blacklist -->
<g id="edge25" class="edge"><title>ActiveRecord::Base&#45;&gt;Blacklist</title>
<path fill="none" stroke="black" d="M1357.44,-704.43C1457,-702.126 1628.69,-688.865 1762,-630 1778.82,-622.573 1795.07,-610.867 1808.73,-599.247"/>
</g>
<!-- ActiveRecord::Base&#45;&gt;Store -->
<g id="edge27" class="edge"><title>ActiveRecord::Base&#45;&gt;Store</title>
<path fill="none" stroke="black" d="M1289.84,-687.226C1301.25,-672.763 1317.26,-650.96 1328,-630 1357.62,-572.211 1353.4,-552.878 1376,-492 1380.44,-480.026 1385.26,-467.428 1390.07,-455.089"/>
</g>
<!-- ActiveRecord::Base&#45;&gt;Storeproduct -->
<g id="edge28" class="edge"><title>ActiveRecord::Base&#45;&gt;Storeproduct</title>
<path fill="none" stroke="black" d="M1303.27,-687.778C1323.29,-674.56 1349.74,-654.166 1366,-630 1401.87,-576.703 1364.36,-538.196 1409,-492 1442.7,-457.129 1483.93,-495.544 1512,-456 1555.22,-395.113 1537.29,-358.255 1512,-288 1505.26,-269.262 1493.51,-251.502 1480.83,-236.136"/>
</g>
<!-- ActiveRecord::Base&#45;&gt;Admin -->
<g id="edge29" class="edge"><title>ActiveRecord::Base&#45;&gt;Admin</title>
<path fill="none" stroke="black" d="M1355.09,-700.848C1505.7,-693.901 1827.71,-674.237 1929,-630 1932.48,-628.479 1935.93,-626.75 1939.31,-624.857"/>
</g>
<!-- ActiveRecord::Base&#45;&gt;Auction -->
<g id="edge30" class="edge"><title>ActiveRecord::Base&#45;&gt;Auction</title>
<path fill="none" stroke="black" d="M1274.62,-686.628C1268.55,-611.855 1243.36,-319.775 1218,-288 1189.84,-252.709 1161.66,-275.323 1123,-252 1119.79,-250.065 1116.59,-247.991 1113.42,-245.812"/>
</g>
<!-- ActiveRecord::Base&#45;&gt;Userwatchedproduct -->
<g id="edge31" class="edge"><title>ActiveRecord::Base&#45;&gt;Userwatchedproduct</title>
<path fill="none" stroke="black" d="M1196.45,-701.333C1130.21,-695.487 1036.33,-678.412 970,-630 896.855,-576.617 895.218,-541.002 864,-456 837.052,-382.625 826.986,-292.026 823.23,-236.133"/>
</g>
<!-- ActiveRecord::Base&#45;&gt;Blackliststore -->
<g id="edge32" class="edge"><title>ActiveRecord::Base&#45;&gt;Blackliststore</title>
<path fill="none" stroke="black" d="M1356.28,-702.132C1533.56,-697.126 1953.2,-680.193 2085,-630 2103.56,-622.932 2121.66,-611.009 2136.82,-599.104"/>
</g>
</g>
</svg>
