<?xml version="1.0" encoding="UTF-8" standalone="no"?>
<!DOCTYPE svg PUBLIC "-//W3C//DTD SVG 1.1//EN"
 "http://www.w3.org/Graphics/SVG/1.1/DTD/svg11.dtd">
<!-- Generated by graphviz version 2.36.0 (20140111.2315)
 -->
<!-- Title: controllers_diagram Pages: 1 -->
<svg width="1042pt" height="1072pt"
 viewBox="0.00 0.00 1042.00 1071.60" xmlns="http://www.w3.org/2000/svg" xmlns:xlink="http://www.w3.org/1999/xlink">
<g id="graph0" class="graph" transform="scale(1 1) rotate(0) translate(4 1067.6)">
<title>controllers_diagram</title>
<polygon fill="white" stroke="none" points="-4,4 -4,-1067.6 1038,-1067.6 1038,4 -4,4"/>
<!-- _diagram_info -->
<g id="node1" class="node"><title>_diagram_info</title>
<text text-anchor="start" x="860" y="-134.6" font-family="Times,serif" font-size="13.00">Controllers diagram</text>
<text text-anchor="start" x="860" y="-120.6" font-family="Times,serif" font-size="13.00">Date: Jun 14 2014 &#45; 01:42</text>
<text text-anchor="start" x="860" y="-106.6" font-family="Times,serif" font-size="13.00">Migration version: 0</text>
<text text-anchor="start" x="860" y="-92.6" font-family="Times,serif" font-size="13.00">Generated by RailRoady 1.1.1</text>
<text text-anchor="start" x="860" y="-78.6" font-family="Times,serif" font-size="13.00">http://railroady.prestonlee.com</text>
</g>
<!-- ReviewsController -->
<g id="node2" class="node"><title>ReviewsController</title>
<path fill="none" stroke="black" d="M12,-306.496C12,-306.496 107,-306.496 107,-306.496 113,-306.496 119,-312.496 119,-318.496 119,-318.496 119,-507.496 119,-507.496 119,-513.496 113,-519.496 107,-519.496 107,-519.496 12,-519.496 12,-519.496 6,-519.496 -5.68434e-14,-513.496 -5.68434e-14,-507.496 -5.68434e-14,-507.496 -5.68434e-14,-318.496 -5.68434e-14,-318.496 -5.68434e-14,-312.496 6,-306.496 12,-306.496"/>
<text text-anchor="middle" x="59.5" y="-504.296" font-family="Times,serif" font-size="14.00">ReviewsController</text>
<polyline fill="none" stroke="black" points="-5.68434e-14,-496.496 119,-496.496 "/>
<text text-anchor="start" x="8" y="-481.296" font-family="Times,serif" font-size="14.00">create</text>
<text text-anchor="start" x="8" y="-466.296" font-family="Times,serif" font-size="14.00">destroy</text>
<text text-anchor="start" x="8" y="-451.296" font-family="Times,serif" font-size="14.00">edit</text>
<text text-anchor="start" x="8" y="-436.296" font-family="Times,serif" font-size="14.00">index</text>
<text text-anchor="start" x="8" y="-421.296" font-family="Times,serif" font-size="14.00">new</text>
<text text-anchor="start" x="8" y="-406.296" font-family="Times,serif" font-size="14.00">show</text>
<text text-anchor="start" x="8" y="-391.296" font-family="Times,serif" font-size="14.00">update</text>
<polyline fill="none" stroke="black" points="-5.68434e-14,-383.496 119,-383.496 "/>
<polyline fill="none" stroke="black" points="-5.68434e-14,-359.496 119,-359.496 "/>
<text text-anchor="start" x="8" y="-344.296" font-family="Times,serif" font-size="14.00">_layout</text>
<text text-anchor="start" x="8" y="-329.296" font-family="Times,serif" font-size="14.00">review_params</text>
<text text-anchor="start" x="8" y="-314.296" font-family="Times,serif" font-size="14.00">set_review</text>
</g>
<!-- ProductsController -->
<g id="node3" class="node"><title>ProductsController</title>
<path fill="none" stroke="black" d="M632.351,-536.698C632.351,-536.698 727.351,-536.698 727.351,-536.698 733.351,-536.698 739.351,-542.698 739.351,-548.698 739.351,-548.698 739.351,-782.698 739.351,-782.698 739.351,-788.698 733.351,-794.698 727.351,-794.698 727.351,-794.698 632.351,-794.698 632.351,-794.698 626.351,-794.698 620.351,-788.698 620.351,-782.698 620.351,-782.698 620.351,-548.698 620.351,-548.698 620.351,-542.698 626.351,-536.698 632.351,-536.698"/>
<text text-anchor="middle" x="679.851" y="-779.498" font-family="Times,serif" font-size="14.00">ProductsController</text>
<polyline fill="none" stroke="black" points="620.351,-771.698 739.351,-771.698 "/>
<text text-anchor="start" x="628.351" y="-756.498" font-family="Times,serif" font-size="14.00">add_photo</text>
<text text-anchor="start" x="628.351" y="-741.498" font-family="Times,serif" font-size="14.00">create</text>
<text text-anchor="start" x="628.351" y="-726.498" font-family="Times,serif" font-size="14.00">delete_photo</text>
<text text-anchor="start" x="628.351" y="-711.498" font-family="Times,serif" font-size="14.00">destroy</text>
<text text-anchor="start" x="628.351" y="-696.498" font-family="Times,serif" font-size="14.00">edit</text>
<text text-anchor="start" x="628.351" y="-681.498" font-family="Times,serif" font-size="14.00">features</text>
<text text-anchor="start" x="628.351" y="-666.498" font-family="Times,serif" font-size="14.00">index</text>
<text text-anchor="start" x="628.351" y="-651.498" font-family="Times,serif" font-size="14.00">new</text>
<text text-anchor="start" x="628.351" y="-636.498" font-family="Times,serif" font-size="14.00">show</text>
<text text-anchor="start" x="628.351" y="-621.498" font-family="Times,serif" font-size="14.00">update</text>
<polyline fill="none" stroke="black" points="620.351,-613.698 739.351,-613.698 "/>
<polyline fill="none" stroke="black" points="620.351,-589.698 739.351,-589.698 "/>
<text text-anchor="start" x="628.351" y="-574.498" font-family="Times,serif" font-size="14.00">_layout</text>
<text text-anchor="start" x="628.351" y="-559.498" font-family="Times,serif" font-size="14.00">product_params</text>
<text text-anchor="start" x="628.351" y="-544.498" font-family="Times,serif" font-size="14.00">set_product</text>
</g>
<!-- StoresController -->
<g id="node4" class="node"><title>StoresController</title>
<path fill="none" stroke="black" d="M309.537,-245.445C309.537,-245.445 391.537,-245.445 391.537,-245.445 397.537,-245.445 403.537,-251.445 403.537,-257.445 403.537,-257.445 403.537,-446.445 403.537,-446.445 403.537,-452.445 397.537,-458.445 391.537,-458.445 391.537,-458.445 309.537,-458.445 309.537,-458.445 303.537,-458.445 297.537,-452.445 297.537,-446.445 297.537,-446.445 297.537,-257.445 297.537,-257.445 297.537,-251.445 303.537,-245.445 309.537,-245.445"/>
<text text-anchor="middle" x="350.537" y="-443.245" font-family="Times,serif" font-size="14.00">StoresController</text>
<polyline fill="none" stroke="black" points="297.537,-435.445 403.537,-435.445 "/>
<text text-anchor="start" x="305.537" y="-420.245" font-family="Times,serif" font-size="14.00">create</text>
<text text-anchor="start" x="305.537" y="-405.245" font-family="Times,serif" font-size="14.00">destroy</text>
<text text-anchor="start" x="305.537" y="-390.245" font-family="Times,serif" font-size="14.00">edit</text>
<text text-anchor="start" x="305.537" y="-375.245" font-family="Times,serif" font-size="14.00">index</text>
<text text-anchor="start" x="305.537" y="-360.245" font-family="Times,serif" font-size="14.00">new</text>
<text text-anchor="start" x="305.537" y="-345.245" font-family="Times,serif" font-size="14.00">show</text>
<text text-anchor="start" x="305.537" y="-330.245" font-family="Times,serif" font-size="14.00">update</text>
<polyline fill="none" stroke="black" points="297.537,-322.445 403.537,-322.445 "/>
<polyline fill="none" stroke="black" points="297.537,-298.445 403.537,-298.445 "/>
<text text-anchor="start" x="305.537" y="-283.245" font-family="Times,serif" font-size="14.00">_layout</text>
<text text-anchor="start" x="305.537" y="-268.245" font-family="Times,serif" font-size="14.00">set_store</text>
<text text-anchor="start" x="305.537" y="-253.245" font-family="Times,serif" font-size="14.00">store_params</text>
</g>
<!-- UsersController -->
<g id="node5" class="node"><title>UsersController</title>
<path fill="none" stroke="black" d="M36.7529,-850.101C36.7529,-850.101 115.753,-850.101 115.753,-850.101 121.753,-850.101 127.753,-856.101 127.753,-862.101 127.753,-862.101 127.753,-1051.1 127.753,-1051.1 127.753,-1057.1 121.753,-1063.1 115.753,-1063.1 115.753,-1063.1 36.7529,-1063.1 36.7529,-1063.1 30.7529,-1063.1 24.7529,-1057.1 24.7529,-1051.1 24.7529,-1051.1 24.7529,-862.101 24.7529,-862.101 24.7529,-856.101 30.7529,-850.101 36.7529,-850.101"/>
<text text-anchor="middle" x="76.2529" y="-1047.9" font-family="Times,serif" font-size="14.00">UsersController</text>
<polyline fill="none" stroke="black" points="24.7529,-1040.1 127.753,-1040.1 "/>
<text text-anchor="start" x="32.7529" y="-1024.9" font-family="Times,serif" font-size="14.00">create</text>
<text text-anchor="start" x="32.7529" y="-1009.9" font-family="Times,serif" font-size="14.00">destroy</text>
<text text-anchor="start" x="32.7529" y="-994.901" font-family="Times,serif" font-size="14.00">edit</text>
<text text-anchor="start" x="32.7529" y="-979.901" font-family="Times,serif" font-size="14.00">index</text>
<text text-anchor="start" x="32.7529" y="-964.901" font-family="Times,serif" font-size="14.00">new</text>
<text text-anchor="start" x="32.7529" y="-949.901" font-family="Times,serif" font-size="14.00">show</text>
<text text-anchor="start" x="32.7529" y="-934.901" font-family="Times,serif" font-size="14.00">update</text>
<polyline fill="none" stroke="black" points="24.7529,-927.101 127.753,-927.101 "/>
<polyline fill="none" stroke="black" points="24.7529,-903.101 127.753,-903.101 "/>
<text text-anchor="start" x="32.7529" y="-887.901" font-family="Times,serif" font-size="14.00">_layout</text>
<text text-anchor="start" x="32.7529" y="-872.901" font-family="Times,serif" font-size="14.00">set_user</text>
<text text-anchor="start" x="32.7529" y="-857.901" font-family="Times,serif" font-size="14.00">user_params</text>
</g>
<!-- AdminsController -->
<g id="node6" class="node"><title>AdminsController</title>
<path fill="none" stroke="black" d="M629.931,-895.073C629.931,-895.073 721.931,-895.073 721.931,-895.073 727.931,-895.073 733.931,-901.073 733.931,-907.073 733.931,-907.073 733.931,-1006.07 733.931,-1006.07 733.931,-1012.07 727.931,-1018.07 721.931,-1018.07 721.931,-1018.07 629.931,-1018.07 629.931,-1018.07 623.931,-1018.07 617.931,-1012.07 617.931,-1006.07 617.931,-1006.07 617.931,-907.073 617.931,-907.073 617.931,-901.073 623.931,-895.073 629.931,-895.073"/>
<text text-anchor="middle" x="675.931" y="-1002.87" font-family="Times,serif" font-size="14.00">AdminsController</text>
<polyline fill="none" stroke="black" points="617.931,-995.073 733.931,-995.073 "/>
<text text-anchor="start" x="625.931" y="-979.873" font-family="Times,serif" font-size="14.00">create</text>
<text text-anchor="start" x="625.931" y="-964.873" font-family="Times,serif" font-size="14.00">new</text>
<polyline fill="none" stroke="black" points="617.931,-957.073 733.931,-957.073 "/>
<polyline fill="none" stroke="black" points="617.931,-933.073 733.931,-933.073 "/>
<text text-anchor="start" x="625.931" y="-917.873" font-family="Times,serif" font-size="14.00">_layout</text>
<text text-anchor="start" x="625.931" y="-902.873" font-family="Times,serif" font-size="14.00">admin_params</text>
</g>
<!-- TicketsController -->
<g id="node7" class="node"><title>TicketsController</title>
<path fill="none" stroke="black" d="M332.564,-859.252C332.564,-859.252 420.564,-859.252 420.564,-859.252 426.564,-859.252 432.564,-865.252 432.564,-871.252 432.564,-871.252 432.564,-970.252 432.564,-970.252 432.564,-976.252 426.564,-982.252 420.564,-982.252 420.564,-982.252 332.564,-982.252 332.564,-982.252 326.564,-982.252 320.564,-976.252 320.564,-970.252 320.564,-970.252 320.564,-871.252 320.564,-871.252 320.564,-865.252 326.564,-859.252 332.564,-859.252"/>
<text text-anchor="middle" x="376.564" y="-967.052" font-family="Times,serif" font-size="14.00">TicketsController</text>
<polyline fill="none" stroke="black" points="320.564,-959.252 432.564,-959.252 "/>
<text text-anchor="start" x="328.564" y="-944.052" font-family="Times,serif" font-size="14.00">index</text>
<text text-anchor="start" x="328.564" y="-929.052" font-family="Times,serif" font-size="14.00">reply</text>
<text text-anchor="start" x="328.564" y="-914.052" font-family="Times,serif" font-size="14.00">show</text>
<polyline fill="none" stroke="black" points="320.564,-906.252 432.564,-906.252 "/>
<polyline fill="none" stroke="black" points="320.564,-882.252 432.564,-882.252 "/>
<text text-anchor="start" x="328.564" y="-867.052" font-family="Times,serif" font-size="14.00">_layout</text>
</g>
<!-- ApplicationController -->
<g id="node8" class="node"><title>ApplicationController</title>
<path fill="none" stroke="black" d="M323.96,-539.412C323.96,-539.412 435.96,-539.412 435.96,-539.412 441.96,-539.412 447.96,-545.412 447.96,-551.412 447.96,-551.412 447.96,-650.412 447.96,-650.412 447.96,-656.412 441.96,-662.412 435.96,-662.412 435.96,-662.412 323.96,-662.412 323.96,-662.412 317.96,-662.412 311.96,-656.412 311.96,-650.412 311.96,-650.412 311.96,-551.412 311.96,-551.412 311.96,-545.412 317.96,-539.412 323.96,-539.412"/>
<text text-anchor="middle" x="379.96" y="-647.212" font-family="Times,serif" font-size="14.00">ApplicationController</text>
<polyline fill="none" stroke="black" points="311.96,-639.412 447.96,-639.412 "/>
<polyline fill="none" stroke="black" points="311.96,-615.412 447.96,-615.412 "/>
<text text-anchor="start" x="319.96" y="-600.212" font-family="Times,serif" font-size="14.00">authenticate_user</text>
<text text-anchor="start" x="319.96" y="-585.212" font-family="Times,serif" font-size="14.00">save_login_state</text>
<text text-anchor="start" x="319.96" y="-570.212" font-family="Times,serif" font-size="14.00">set_admin</text>
<polyline fill="none" stroke="black" points="311.96,-562.412 447.96,-562.412 "/>
<text text-anchor="start" x="319.96" y="-547.212" font-family="Times,serif" font-size="14.00">_layout</text>
</g>
<!-- ApplicationController&#45;&gt;ReviewsController -->
<g id="edge1" class="edge"><title>ApplicationController&#45;&gt;ReviewsController</title>
<path fill="none" stroke="black" d="M311.607,-560.829C254.439,-527.307 173.703,-479.964 119.124,-447.959"/>
</g>
<!-- ApplicationController&#45;&gt;ProductsController -->
<g id="edge2" class="edge"><title>ApplicationController&#45;&gt;ProductsController</title>
<path fill="none" stroke="black" d="M448.01,-615.613C499.854,-626.813 570.54,-642.083 620.188,-652.809"/>
</g>
<!-- ApplicationController&#45;&gt;StoresController -->
<g id="edge3" class="edge"><title>ApplicationController&#45;&gt;StoresController</title>
<path fill="none" stroke="black" d="M372.687,-539.369C369.811,-515.034 366.421,-486.343 363.168,-458.824"/>
</g>
<!-- ApplicationController&#45;&gt;UsersController -->
<g id="edge4" class="edge"><title>ApplicationController&#45;&gt;UsersController</title>
<path fill="none" stroke="black" d="M327.405,-662.462C271.464,-727.978 183.508,-830.989 127.912,-896.101"/>
</g>
<!-- ApplicationController&#45;&gt;AdminsController -->
<g id="edge5" class="edge"><title>ApplicationController&#45;&gt;AdminsController</title>
<path fill="none" stroke="black" d="M431.177,-662.457C485.362,-727.57 570.369,-829.722 624.598,-894.888"/>
</g>
<!-- ApplicationController&#45;&gt;TicketsController -->
<g id="edge6" class="edge"><title>ApplicationController&#45;&gt;TicketsController</title>
<path fill="none" stroke="black" d="M379.306,-662.58C378.705,-719.126 377.821,-802.429 377.22,-859"/>
</g>
<!-- StatisticsController -->
<g id="node9" class="node"><title>StatisticsController</title>
<path fill="none" stroke="black" d="M620.306,-303.96C620.306,-303.96 717.306,-303.96 717.306,-303.96 723.306,-303.96 729.306,-309.96 729.306,-315.96 729.306,-315.96 729.306,-504.96 729.306,-504.96 729.306,-510.96 723.306,-516.96 717.306,-516.96 717.306,-516.96 620.306,-516.96 620.306,-516.96 614.306,-516.96 608.306,-510.96 608.306,-504.96 608.306,-504.96 608.306,-315.96 608.306,-315.96 608.306,-309.96 614.306,-303.96 620.306,-303.96"/>
<text text-anchor="middle" x="668.806" y="-501.76" font-family="Times,serif" font-size="14.00">StatisticsController</text>
<polyline fill="none" stroke="black" points="608.306,-493.96 729.306,-493.96 "/>
<text text-anchor="start" x="616.306" y="-478.76" font-family="Times,serif" font-size="14.00">create</text>
<text text-anchor="start" x="616.306" y="-463.76" font-family="Times,serif" font-size="14.00">destroy</text>
<text text-anchor="start" x="616.306" y="-448.76" font-family="Times,serif" font-size="14.00">edit</text>
<text text-anchor="start" x="616.306" y="-433.76" font-family="Times,serif" font-size="14.00">index</text>
<text text-anchor="start" x="616.306" y="-418.76" font-family="Times,serif" font-size="14.00">new</text>
<text text-anchor="start" x="616.306" y="-403.76" font-family="Times,serif" font-size="14.00">show</text>
<text text-anchor="start" x="616.306" y="-388.76" font-family="Times,serif" font-size="14.00">update</text>
<polyline fill="none" stroke="black" points="608.306,-380.96 729.306,-380.96 "/>
<polyline fill="none" stroke="black" points="608.306,-356.96 729.306,-356.96 "/>
<text text-anchor="start" x="616.306" y="-341.76" font-family="Times,serif" font-size="14.00">_layout</text>
<text text-anchor="start" x="616.306" y="-326.76" font-family="Times,serif" font-size="14.00">set_statistic</text>
<text text-anchor="start" x="616.306" y="-311.76" font-family="Times,serif" font-size="14.00">statistic_params</text>
</g>
<!-- ApplicationController&#45;&gt;StatisticsController -->
<g id="edge7" class="edge"><title>ApplicationController&#45;&gt;StatisticsController</title>
<path fill="none" stroke="black" d="M448.047,-556.019C496.582,-524.017 561.259,-481.372 608.05,-450.52"/>
</g>
<!-- FeaturesController -->
<g id="node10" class="node"><title>FeaturesController</title>
<path fill="none" stroke="black" d="M30.9078,-0.5C30.9078,-0.5 124.908,-0.5 124.908,-0.5 130.908,-0.5 136.908,-6.5 136.908,-12.5 136.908,-12.5 136.908,-201.5 136.908,-201.5 136.908,-207.5 130.908,-213.5 124.908,-213.5 124.908,-213.5 30.9078,-213.5 30.9078,-213.5 24.9078,-213.5 18.9078,-207.5 18.9078,-201.5 18.9078,-201.5 18.9078,-12.5 18.9078,-12.5 18.9078,-6.5 24.9078,-0.5 30.9078,-0.5"/>
<text text-anchor="middle" x="77.9078" y="-198.3" font-family="Times,serif" font-size="14.00">FeaturesController</text>
<polyline fill="none" stroke="black" points="18.9078,-190.5 136.908,-190.5 "/>
<text text-anchor="start" x="26.9078" y="-175.3" font-family="Times,serif" font-size="14.00">create</text>
<text text-anchor="start" x="26.9078" y="-160.3" font-family="Times,serif" font-size="14.00">destroy</text>
<text text-anchor="start" x="26.9078" y="-145.3" font-family="Times,serif" font-size="14.00">edit</text>
<text text-anchor="start" x="26.9078" y="-130.3" font-family="Times,serif" font-size="14.00">index</text>
<text text-anchor="start" x="26.9078" y="-115.3" font-family="Times,serif" font-size="14.00">new</text>
<text text-anchor="start" x="26.9078" y="-100.3" font-family="Times,serif" font-size="14.00">show</text>
<text text-anchor="start" x="26.9078" y="-85.3" font-family="Times,serif" font-size="14.00">update</text>
<polyline fill="none" stroke="black" points="18.9078,-77.5 136.908,-77.5 "/>
<polyline fill="none" stroke="black" points="18.9078,-53.5 136.908,-53.5 "/>
<text text-anchor="start" x="26.9078" y="-38.3" font-family="Times,serif" font-size="14.00">_layout</text>
<text text-anchor="start" x="26.9078" y="-23.3" font-family="Times,serif" font-size="14.00">feature_params</text>
<text text-anchor="start" x="26.9078" y="-8.3" font-family="Times,serif" font-size="14.00">set_feature</text>
</g>
<!-- ApplicationController&#45;&gt;FeaturesController -->
<g id="edge8" class="edge"><title>ApplicationController&#45;&gt;FeaturesController</title>
<path fill="none" stroke="black" d="M341.981,-539.236C327.105,-515.053 309.904,-487.057 294.337,-461.645 241.025,-374.611 180.526,-275.441 137.072,-204.141"/>
</g>
<!-- SessionsController -->
<g id="node11" class="node"><title>SessionsController</title>
<path fill="none" stroke="black" d="M350.458,-24.8902C350.458,-24.8902 445.458,-24.8902 445.458,-24.8902 451.458,-24.8902 457.458,-30.8902 457.458,-36.8902 457.458,-36.8902 457.458,-135.89 457.458,-135.89 457.458,-141.89 451.458,-147.89 445.458,-147.89 445.458,-147.89 350.458,-147.89 350.458,-147.89 344.458,-147.89 338.458,-141.89 338.458,-135.89 338.458,-135.89 338.458,-36.8902 338.458,-36.8902 338.458,-30.8902 344.458,-24.8902 350.458,-24.8902"/>
<text text-anchor="middle" x="397.958" y="-132.69" font-family="Times,serif" font-size="14.00">SessionsController</text>
<polyline fill="none" stroke="black" points="338.458,-124.89 457.458,-124.89 "/>
<text text-anchor="start" x="346.458" y="-109.69" font-family="Times,serif" font-size="14.00">login</text>
<text text-anchor="start" x="346.458" y="-94.6902" font-family="Times,serif" font-size="14.00">logout</text>
<text text-anchor="start" x="346.458" y="-79.6902" font-family="Times,serif" font-size="14.00">try_login</text>
<polyline fill="none" stroke="black" points="338.458,-71.8902 457.458,-71.8902 "/>
<polyline fill="none" stroke="black" points="338.458,-47.8902 457.458,-47.8902 "/>
<text text-anchor="start" x="346.458" y="-32.6902" font-family="Times,serif" font-size="14.00">_layout</text>
</g>
<!-- ApplicationController&#45;&gt;SessionsController -->
<g id="edge9" class="edge"><title>ApplicationController&#45;&gt;SessionsController</title>
<path fill="none" stroke="black" d="M394.431,-539.228C399.387,-515.166 404.297,-487.258 406.737,-461.645 417.227,-351.524 409.946,-222.449 403.849,-147.975"/>
</g>
<!-- DashboardController -->
<g id="node12" class="node"><title>DashboardController</title>
<path fill="none" stroke="black" d="M639.484,-68.568C639.484,-68.568 746.484,-68.568 746.484,-68.568 752.484,-68.568 758.484,-74.568 758.484,-80.568 758.484,-80.568 758.484,-149.568 758.484,-149.568 758.484,-155.568 752.484,-161.568 746.484,-161.568 746.484,-161.568 639.484,-161.568 639.484,-161.568 633.484,-161.568 627.484,-155.568 627.484,-149.568 627.484,-149.568 627.484,-80.568 627.484,-80.568 627.484,-74.568 633.484,-68.568 639.484,-68.568"/>
<text text-anchor="middle" x="692.984" y="-146.368" font-family="Times,serif" font-size="14.00">DashboardController</text>
<polyline fill="none" stroke="black" points="627.484,-138.568 758.484,-138.568 "/>
<text text-anchor="start" x="635.484" y="-123.368" font-family="Times,serif" font-size="14.00">index</text>
<polyline fill="none" stroke="black" points="627.484,-115.568 758.484,-115.568 "/>
<polyline fill="none" stroke="black" points="627.484,-91.568 758.484,-91.568 "/>
<text text-anchor="start" x="635.484" y="-76.368" font-family="Times,serif" font-size="14.00">_layout</text>
</g>
<!-- ApplicationController&#45;&gt;DashboardController -->
<g id="edge10" class="edge"><title>ApplicationController&#45;&gt;DashboardController</title>
<path fill="none" stroke="black" d="M419.605,-539.379C483.107,-440.818 606.242,-249.701 663.001,-161.605"/>
</g>
<!-- StoreusersController -->
<g id="node13" class="node"><title>StoreusersController</title>
<path fill="none" stroke="black" d="M29.0628,-562.462C29.0628,-562.462 133.063,-562.462 133.063,-562.462 139.063,-562.462 145.063,-568.462 145.063,-574.462 145.063,-574.462 145.063,-763.462 145.063,-763.462 145.063,-769.462 139.063,-775.462 133.063,-775.462 133.063,-775.462 29.0628,-775.462 29.0628,-775.462 23.0628,-775.462 17.0628,-769.462 17.0628,-763.462 17.0628,-763.462 17.0628,-574.462 17.0628,-574.462 17.0628,-568.462 23.0628,-562.462 29.0628,-562.462"/>
<text text-anchor="middle" x="81.0628" y="-760.262" font-family="Times,serif" font-size="14.00">StoreusersController</text>
<polyline fill="none" stroke="black" points="17.0628,-752.462 145.063,-752.462 "/>
<text text-anchor="start" x="25.0628" y="-737.262" font-family="Times,serif" font-size="14.00">create</text>
<text text-anchor="start" x="25.0628" y="-722.262" font-family="Times,serif" font-size="14.00">destroy</text>
<text text-anchor="start" x="25.0628" y="-707.262" font-family="Times,serif" font-size="14.00">edit</text>
<text text-anchor="start" x="25.0628" y="-692.262" font-family="Times,serif" font-size="14.00">index</text>
<text text-anchor="start" x="25.0628" y="-677.262" font-family="Times,serif" font-size="14.00">new</text>
<text text-anchor="start" x="25.0628" y="-662.262" font-family="Times,serif" font-size="14.00">show</text>
<text text-anchor="start" x="25.0628" y="-647.262" font-family="Times,serif" font-size="14.00">update</text>
<polyline fill="none" stroke="black" points="17.0628,-639.462 145.063,-639.462 "/>
<polyline fill="none" stroke="black" points="17.0628,-615.462 145.063,-615.462 "/>
<text text-anchor="start" x="25.0628" y="-600.262" font-family="Times,serif" font-size="14.00">_layout</text>
<text text-anchor="start" x="25.0628" y="-585.262" font-family="Times,serif" font-size="14.00">set_storeuser</text>
<text text-anchor="start" x="25.0628" y="-570.262" font-family="Times,serif" font-size="14.00">storeuser_params</text>
</g>
<!-- ApplicationController&#45;&gt;StoreusersController -->
<g id="edge11" class="edge"><title>ApplicationController&#45;&gt;StoreusersController</title>
<path fill="none" stroke="black" d="M311.762,-616.438C261.709,-627.834 194.187,-643.207 145.133,-654.375"/>
</g>
</g>
</svg>
