<?xml version="1.0" encoding="UTF-8" standalone="no"?>
<!DOCTYPE svg PUBLIC "-//W3C//DTD SVG 1.1//EN"
 "http://www.w3.org/Graphics/SVG/1.1/DTD/svg11.dtd">
<!-- Generated by graphviz version 2.36.0 (20140111.2315)
 -->
<!-- Title: models_diagram Pages: 1 -->
<svg width="1209pt" height="788pt"
 viewBox="0.00 0.00 1209.00 788.00" xmlns="http://www.w3.org/2000/svg" xmlns:xlink="http://www.w3.org/1999/xlink">
<g id="graph0" class="graph" transform="scale(1 1) rotate(0) translate(4 784)">
<title>models_diagram</title>
<polygon fill="white" stroke="none" points="-4,4 -4,-784 1205,-784 1205,4 -4,4"/>
<!-- _diagram_info -->
<g id="node1" class="node"><title>_diagram_info</title>
<text text-anchor="start" x="239" y="-765.6" font-family="Times,serif" font-size="13.00">Models diagram</text>
<text text-anchor="start" x="239" y="-751.6" font-family="Times,serif" font-size="13.00">Date: Jun 14 2014 &#45; 01:42</text>
<text text-anchor="start" x="239" y="-737.6" font-family="Times,serif" font-size="13.00">Migration version: 0</text>
<text text-anchor="start" x="239" y="-723.6" font-family="Times,serif" font-size="13.00">Generated by RailRoady 1.1.1</text>
<text text-anchor="start" x="239" y="-709.6" font-family="Times,serif" font-size="13.00">http://railroady.prestonlee.com</text>
</g>
<!-- Productphoto -->
<g id="node2" class="node"><title>Productphoto</title>
<path fill="none" stroke="black" d="M357,-1C357,-1 491,-1 491,-1 497,-1 503,-7 503,-13 503,-13 503,-65 503,-65 503,-71 497,-77 491,-77 491,-77 357,-77 357,-77 351,-77 345,-71 345,-65 345,-65 345,-13 345,-13 345,-7 351,-1 357,-1"/>
<text text-anchor="middle" x="424" y="-61.8" font-family="Times,serif" font-size="14.00">Productphoto</text>
<polyline fill="none" stroke="black" points="345,-54 503,-54 "/>
<text text-anchor="start" x="353" y="-38.8" font-family="Times,serif" font-size="14.00">product_photo_id :integer</text>
<text text-anchor="start" x="353" y="-23.8" font-family="Times,serif" font-size="14.00">product_id :integer</text>
<text text-anchor="start" x="353" y="-8.8" font-family="Times,serif" font-size="14.00">photo_id :integer</text>
</g>
<!-- Adminalert -->
<g id="node3" class="node"><title>Adminalert</title>
<path fill="none" stroke="black" d="M502,-542C502,-542 622,-542 622,-542 628,-542 634,-548 634,-554 634,-554 634,-606 634,-606 634,-612 628,-618 622,-618 622,-618 502,-618 502,-618 496,-618 490,-612 490,-606 490,-606 490,-554 490,-554 490,-548 496,-542 502,-542"/>
<text text-anchor="middle" x="562" y="-602.8" font-family="Times,serif" font-size="14.00">Adminalert</text>
<polyline fill="none" stroke="black" points="490,-595 634,-595 "/>
<text text-anchor="start" x="498" y="-579.8" font-family="Times,serif" font-size="14.00">admin_alert_id :integer</text>
<text text-anchor="start" x="498" y="-564.8" font-family="Times,serif" font-size="14.00">message :string</text>
<text text-anchor="start" x="498" y="-549.8" font-family="Times,serif" font-size="14.00">alert_time :timestamp</text>
</g>
<!-- User -->
<g id="node4" class="node"><title>User</title>
<path fill="none" stroke="black" d="M664.5,-497C664.5,-497 777.5,-497 777.5,-497 783.5,-497 789.5,-503 789.5,-509 789.5,-509 789.5,-651 789.5,-651 789.5,-657 783.5,-663 777.5,-663 777.5,-663 664.5,-663 664.5,-663 658.5,-663 652.5,-657 652.5,-651 652.5,-651 652.5,-509 652.5,-509 652.5,-503 658.5,-497 664.5,-497"/>
<text text-anchor="middle" x="721" y="-647.8" font-family="Times,serif" font-size="14.00">User</text>
<polyline fill="none" stroke="black" points="652.5,-640 789.5,-640 "/>
<text text-anchor="start" x="660.5" y="-624.8" font-family="Times,serif" font-size="14.00">user_id :integer</text>
<text text-anchor="start" x="660.5" y="-609.8" font-family="Times,serif" font-size="14.00">first_name :string</text>
<text text-anchor="start" x="660.5" y="-594.8" font-family="Times,serif" font-size="14.00">last_name :string</text>
<text text-anchor="start" x="660.5" y="-579.8" font-family="Times,serif" font-size="14.00">nick :string</text>
<text text-anchor="start" x="660.5" y="-564.8" font-family="Times,serif" font-size="14.00">email :string</text>
<text text-anchor="start" x="660.5" y="-549.8" font-family="Times,serif" font-size="14.00">street_address :string</text>
<text text-anchor="start" x="660.5" y="-534.8" font-family="Times,serif" font-size="14.00">zip_code :string</text>
<text text-anchor="start" x="660.5" y="-519.8" font-family="Times,serif" font-size="14.00">password_hash :string</text>
<text text-anchor="start" x="660.5" y="-504.8" font-family="Times,serif" font-size="14.00">password_salt :string</text>
</g>
<!-- Review -->
<g id="node5" class="node"><title>Review</title>
<path fill="none" stroke="black" d="M729,-314.5C729,-314.5 855,-314.5 855,-314.5 861,-314.5 867,-320.5 867,-326.5 867,-326.5 867,-423.5 867,-423.5 867,-429.5 861,-435.5 855,-435.5 855,-435.5 729,-435.5 729,-435.5 723,-435.5 717,-429.5 717,-423.5 717,-423.5 717,-326.5 717,-326.5 717,-320.5 723,-314.5 729,-314.5"/>
<text text-anchor="middle" x="792" y="-420.3" font-family="Times,serif" font-size="14.00">Review</text>
<polyline fill="none" stroke="black" points="717,-412.5 867,-412.5 "/>
<text text-anchor="start" x="725" y="-397.3" font-family="Times,serif" font-size="14.00">review_id :integer</text>
<text text-anchor="start" x="725" y="-382.3" font-family="Times,serif" font-size="14.00">product_id :decimal</text>
<text text-anchor="start" x="725" y="-367.3" font-family="Times,serif" font-size="14.00">user_id :decimal</text>
<text text-anchor="start" x="725" y="-352.3" font-family="Times,serif" font-size="14.00">review_txt :string</text>
<text text-anchor="start" x="725" y="-337.3" font-family="Times,serif" font-size="14.00">rating :integer</text>
<text text-anchor="start" x="725" y="-322.3" font-family="Times,serif" font-size="14.00">created_date :timestamp</text>
</g>
<!-- User&#45;&gt;Review -->
<g id="edge3" class="edge"><title>User&#45;&gt;Review</title>
<path fill="none" stroke="#1bbb14" d="M752.473,-489.015C757.609,-474.329 762.86,-459.317 767.787,-445.23"/>
<ellipse fill="none" stroke="#1bbb14" cx="751.097" cy="-492.949" rx="4.00001" ry="4.00001"/>
<polygon fill="#1bbb14" stroke="#1bbb14" points="767.839,-445.08 775.388,-437.127 769.49,-440.361 771.14,-435.641 771.14,-435.641 771.14,-435.641 769.49,-440.361 766.893,-434.155 767.839,-445.08 767.839,-445.08"/>
</g>
<!-- Userwatchedproduct -->
<g id="node15" class="node"><title>Userwatchedproduct</title>
<ellipse fill="none" stroke="black" cx="616" cy="-375" rx="83.2892" ry="18"/>
<text text-anchor="middle" x="616" y="-371.3" font-family="Times,serif" font-size="14.00">Userwatchedproduct</text>
</g>
<!-- User&#45;&gt;Userwatchedproduct -->
<g id="edge4" class="edge"><title>User&#45;&gt;Userwatchedproduct</title>
<path fill="none" stroke="#e81c36" d="M674.693,-489.473C658.281,-457.743 641.05,-424.43 629.537,-402.172"/>
<ellipse fill="none" stroke="#e81c36" cx="676.606" cy="-493.172" rx="4.00002" ry="4.00002"/>
<polygon fill="#e81c36" stroke="#e81c36" points="629.417,-401.939 628.82,-390.99 627.12,-397.498 624.823,-393.057 624.823,-393.057 624.823,-393.057 627.12,-397.498 620.826,-395.125 629.417,-401.939 629.417,-401.939"/>
</g>
<!-- Product -->
<g id="node6" class="node"><title>Product</title>
<path fill="none" stroke="black" d="M233.5,-307C233.5,-307 370.5,-307 370.5,-307 376.5,-307 382.5,-313 382.5,-319 382.5,-319 382.5,-431 382.5,-431 382.5,-437 376.5,-443 370.5,-443 370.5,-443 233.5,-443 233.5,-443 227.5,-443 221.5,-437 221.5,-431 221.5,-431 221.5,-319 221.5,-319 221.5,-313 227.5,-307 233.5,-307"/>
<text text-anchor="middle" x="302" y="-427.8" font-family="Times,serif" font-size="14.00">Product</text>
<polyline fill="none" stroke="black" points="221.5,-420 382.5,-420 "/>
<text text-anchor="start" x="229.5" y="-404.8" font-family="Times,serif" font-size="14.00">product_id :integer</text>
<text text-anchor="start" x="229.5" y="-389.8" font-family="Times,serif" font-size="14.00">name :string</text>
<text text-anchor="start" x="229.5" y="-374.8" font-family="Times,serif" font-size="14.00">description :string</text>
<text text-anchor="start" x="229.5" y="-359.8" font-family="Times,serif" font-size="14.00">created_by :integer</text>
<text text-anchor="start" x="229.5" y="-344.8" font-family="Times,serif" font-size="14.00">created_date :timestamp</text>
<text text-anchor="start" x="229.5" y="-329.8" font-family="Times,serif" font-size="14.00">modified_by :integer</text>
<text text-anchor="start" x="229.5" y="-314.8" font-family="Times,serif" font-size="14.00">modified_date :timestamp</text>
</g>
<!-- Product&#45;&gt;Productphoto -->
<g id="edge9" class="edge"><title>Product&#45;&gt;Productphoto</title>
<path fill="none" stroke="#10c050" d="M321.5,-298.881C322.365,-295.207 323.203,-291.565 324,-288 340.987,-212.037 322.719,-185.884 357,-116 362.326,-105.143 369.623,-94.6362 377.449,-85.0745"/>
<ellipse fill="none" stroke="#10c050" cx="320.5" cy="-303.069" rx="4.00001" ry="4.00001"/>
<polygon fill="#10c050" stroke="#10c050" points="377.617,-84.8784 387.536,-80.2024 380.866,-81.0782 384.116,-77.2779 384.116,-77.2779 384.116,-77.2779 380.866,-81.0782 380.695,-74.3535 377.617,-84.8784 377.617,-84.8784"/>
</g>
<!-- Productsfeature -->
<g id="node7" class="node"><title>Productsfeature</title>
<path fill="none" stroke="black" d="M52.5,-1C52.5,-1 165.5,-1 165.5,-1 171.5,-1 177.5,-7 177.5,-13 177.5,-13 177.5,-65 177.5,-65 177.5,-71 171.5,-77 165.5,-77 165.5,-77 52.5,-77 52.5,-77 46.5,-77 40.5,-71 40.5,-65 40.5,-65 40.5,-13 40.5,-13 40.5,-7 46.5,-1 52.5,-1"/>
<text text-anchor="middle" x="109" y="-61.8" font-family="Times,serif" font-size="14.00">Productsfeature</text>
<polyline fill="none" stroke="black" points="40.5,-54 177.5,-54 "/>
<text text-anchor="start" x="48.5" y="-38.8" font-family="Times,serif" font-size="14.00">prod_feat_id :decimal</text>
<text text-anchor="start" x="48.5" y="-23.8" font-family="Times,serif" font-size="14.00">product_id :decimal</text>
<text text-anchor="start" x="48.5" y="-8.8" font-family="Times,serif" font-size="14.00">feature_id :decimal</text>
</g>
<!-- Product&#45;&gt;Productsfeature -->
<g id="edge7" class="edge"><title>Product&#45;&gt;Productsfeature</title>
<path fill="none" stroke="#a8005d" d="M258.387,-299.537C250.658,-284.731 243.131,-269.091 237,-254 213.009,-194.952 232.379,-169.668 198,-116 190.592,-104.435 180.891,-93.6792 170.625,-84.111"/>
<ellipse fill="none" stroke="#a8005d" cx="260.322" cy="-303.196" rx="4.00002" ry="4.00002"/>
<polygon fill="#a8005d" stroke="#a8005d" points="170.529,-84.0249 166.074,-74.0047 166.801,-80.6921 163.074,-77.3592 163.074,-77.3592 163.074,-77.3592 166.801,-80.6921 160.074,-80.7137 170.529,-84.0249 170.529,-84.0249"/>
</g>
<!-- Feature -->
<g id="node8" class="node"><title>Feature</title>
<path fill="none" stroke="black" d="M40.5,-117C40.5,-117 177.5,-117 177.5,-117 183.5,-117 189.5,-123 189.5,-129 189.5,-129 189.5,-241 189.5,-241 189.5,-247 183.5,-253 177.5,-253 177.5,-253 40.5,-253 40.5,-253 34.5,-253 28.5,-247 28.5,-241 28.5,-241 28.5,-129 28.5,-129 28.5,-123 34.5,-117 40.5,-117"/>
<text text-anchor="middle" x="109" y="-237.8" font-family="Times,serif" font-size="14.00">Feature</text>
<polyline fill="none" stroke="black" points="28.5,-230 189.5,-230 "/>
<text text-anchor="start" x="36.5" y="-214.8" font-family="Times,serif" font-size="14.00">feature_id :integer</text>
<text text-anchor="start" x="36.5" y="-199.8" font-family="Times,serif" font-size="14.00">feature_type :string</text>
<text text-anchor="start" x="36.5" y="-184.8" font-family="Times,serif" font-size="14.00">feature_name :string</text>
<text text-anchor="start" x="36.5" y="-169.8" font-family="Times,serif" font-size="14.00">created_by :integer</text>
<text text-anchor="start" x="36.5" y="-154.8" font-family="Times,serif" font-size="14.00">created_date :timestamp</text>
<text text-anchor="start" x="36.5" y="-139.8" font-family="Times,serif" font-size="14.00">modified_by :integer</text>
<text text-anchor="start" x="36.5" y="-124.8" font-family="Times,serif" font-size="14.00">modified_date :timestamp</text>
</g>
<!-- Product&#45;&gt;Feature -->
<g id="edge8" class="edge"><title>Product&#45;&gt;Feature</title>
<path fill="none" stroke="#21b8ce" d="M216.696,-300.075C212.365,-296.031 208.11,-291.99 204,-288 195.026,-279.288 185.804,-269.936 176.799,-260.558"/>
<polygon fill="#21b8ce" stroke="#21b8ce" points="216.704,-300.083 220.988,-310.177 220.374,-303.478 224.044,-306.874 224.044,-306.874 224.044,-306.874 220.374,-303.478 227.1,-303.571 216.704,-300.083 216.704,-300.083"/>
<polygon fill="#21b8ce" stroke="#21b8ce" points="176.534,-260.28 172.889,-249.938 173.083,-256.662 169.632,-253.043 169.632,-253.043 169.632,-253.043 173.083,-256.662 166.376,-256.149 176.534,-260.28 176.534,-260.28"/>
</g>
<!-- Photo -->
<g id="node9" class="node"><title>Photo</title>
<path fill="none" stroke="black" d="M378,-147C378,-147 470,-147 470,-147 476,-147 482,-153 482,-159 482,-159 482,-211 482,-211 482,-217 476,-223 470,-223 470,-223 378,-223 378,-223 372,-223 366,-217 366,-211 366,-211 366,-159 366,-159 366,-153 372,-147 378,-147"/>
<text text-anchor="middle" x="424" y="-207.8" font-family="Times,serif" font-size="14.00">Photo</text>
<polyline fill="none" stroke="black" points="366,-200 482,-200 "/>
<text text-anchor="start" x="374" y="-184.8" font-family="Times,serif" font-size="14.00">photo_id :integer</text>
<text text-anchor="start" x="374" y="-169.8" font-family="Times,serif" font-size="14.00">photo_type :string</text>
<text text-anchor="start" x="374" y="-154.8" font-family="Times,serif" font-size="14.00">photo_path :string</text>
</g>
<!-- Product&#45;&gt;Photo -->
<g id="edge10" class="edge"><title>Product&#45;&gt;Photo</title>
<path fill="none" stroke="#967f4d" d="M351.158,-298.248C365.761,-275.745 381.306,-251.791 394.269,-231.816"/>
<polygon fill="#967f4d" stroke="#967f4d" points="350.972,-298.535 341.753,-304.474 348.25,-302.73 345.528,-306.924 345.528,-306.924 345.528,-306.924 348.25,-302.73 349.303,-309.374 350.972,-298.535 350.972,-298.535"/>
<polygon fill="#967f4d" stroke="#967f4d" points="394.399,-231.615 403.617,-225.676 397.121,-227.421 399.842,-223.227 399.842,-223.227 399.842,-223.227 397.121,-227.421 396.068,-220.777 394.399,-231.615 394.399,-231.615"/>
</g>
<!-- Storeproduct -->
<g id="node11" class="node"><title>Storeproduct</title>
<path fill="none" stroke="black" d="M932.5,-132C932.5,-132 1061.5,-132 1061.5,-132 1067.5,-132 1073.5,-138 1073.5,-144 1073.5,-144 1073.5,-226 1073.5,-226 1073.5,-232 1067.5,-238 1061.5,-238 1061.5,-238 932.5,-238 932.5,-238 926.5,-238 920.5,-232 920.5,-226 920.5,-226 920.5,-144 920.5,-144 920.5,-138 926.5,-132 932.5,-132"/>
<text text-anchor="middle" x="997" y="-222.8" font-family="Times,serif" font-size="14.00">Storeproduct</text>
<polyline fill="none" stroke="black" points="920.5,-215 1073.5,-215 "/>
<text text-anchor="start" x="928.5" y="-199.8" font-family="Times,serif" font-size="14.00">store_product_id :integer</text>
<text text-anchor="start" x="928.5" y="-184.8" font-family="Times,serif" font-size="14.00">product_id :decimal</text>
<text text-anchor="start" x="928.5" y="-169.8" font-family="Times,serif" font-size="14.00">store_id :decimal</text>
<text text-anchor="start" x="928.5" y="-154.8" font-family="Times,serif" font-size="14.00">price :decimal</text>
<text text-anchor="start" x="928.5" y="-139.8" font-family="Times,serif" font-size="14.00">product_buy_link :string</text>
</g>
<!-- Product&#45;&gt;Storeproduct -->
<g id="edge11" class="edge"><title>Product&#45;&gt;Storeproduct</title>
<path fill="none" stroke="#2151f0" d="M390.389,-345.844C430.962,-333.198 479.783,-318.373 524,-306 658.152,-268.461 815.111,-229.638 910.233,-206.668"/>
<ellipse fill="none" stroke="#2151f0" cx="386.469" cy="-347.068" rx="4.00001" ry="4.00001"/>
<polygon fill="#2151f0" stroke="#2151f0" points="910.374,-206.634 921.151,-208.664 915.235,-205.461 920.096,-204.289 920.096,-204.289 920.096,-204.289 915.235,-205.461 919.041,-199.915 910.374,-206.634 910.374,-206.634"/>
</g>
<!-- Stores -->
<g id="node16" class="node"><title>Stores</title>
<ellipse fill="none" stroke="black" cx="278" cy="-185" rx="32.2457" ry="18"/>
<text text-anchor="middle" x="278" y="-181.3" font-family="Times,serif" font-size="14.00">Stores</text>
</g>
<!-- Product&#45;&gt;Stores -->
<g id="edge12" class="edge"><title>Product&#45;&gt;Stores</title>
<path fill="none" stroke="#96e5e0" d="M292.143,-296.79C288.365,-267.196 284.295,-235.308 281.495,-213.376"/>
<polygon fill="#96e5e0" stroke="#96e5e0" points="292.171,-297.004 288.973,-307.494 292.804,-301.964 293.437,-306.924 293.437,-306.924 293.437,-306.924 292.804,-301.964 297.901,-306.354 292.171,-297.004 292.171,-297.004"/>
<polygon fill="#96e5e0" stroke="#96e5e0" points="281.459,-213.091 284.656,-202.602 280.825,-208.131 280.192,-203.172 280.192,-203.172 280.192,-203.172 280.825,-208.131 275.728,-203.742 281.459,-213.091 281.459,-213.091"/>
<text text-anchor="middle" x="306" y="-276.3" font-family="Times,serif" font-size="14.00">stores</text>
</g>
<!-- Feature&#45;&gt;Productsfeature -->
<g id="edge15" class="edge"><title>Feature&#45;&gt;Productsfeature</title>
<path fill="none" stroke="#986f62" d="M109,-108.33C109,-101.205 109,-94.1285 109,-87.3798"/>
<ellipse fill="none" stroke="#986f62" cx="109" cy="-112.638" rx="4" ry="4"/>
<polygon fill="#986f62" stroke="#986f62" points="109,-87.085 113.5,-77.085 109,-82.085 109,-77.085 109,-77.085 109,-77.085 109,-82.085 104.5,-77.0851 109,-87.085 109,-87.085"/>
</g>
<!-- Photo&#45;&gt;Productphoto -->
<g id="edge17" class="edge"><title>Photo&#45;&gt;Productphoto</title>
<path fill="none" stroke="#f555c4" d="M424,-138.685C424,-122.524 424,-104.275 424,-87.9042"/>
<ellipse fill="none" stroke="#f555c4" cx="424" cy="-142.916" rx="4" ry="4"/>
<polygon fill="#f555c4" stroke="#f555c4" points="424,-87.4584 428.5,-77.4584 424,-82.4584 424,-77.4584 424,-77.4584 424,-77.4584 424,-82.4584 419.5,-77.4584 424,-87.4584 424,-87.4584"/>
</g>
<!-- Store -->
<g id="node10" class="node"><title>Store</title>
<path fill="none" stroke="black" d="M858.5,-497C858.5,-497 995.5,-497 995.5,-497 1001.5,-497 1007.5,-503 1007.5,-509 1007.5,-509 1007.5,-651 1007.5,-651 1007.5,-657 1001.5,-663 995.5,-663 995.5,-663 858.5,-663 858.5,-663 852.5,-663 846.5,-657 846.5,-651 846.5,-651 846.5,-509 846.5,-509 846.5,-503 852.5,-497 858.5,-497"/>
<text text-anchor="middle" x="927" y="-647.8" font-family="Times,serif" font-size="14.00">Store</text>
<polyline fill="none" stroke="black" points="846.5,-640 1007.5,-640 "/>
<text text-anchor="start" x="854.5" y="-624.8" font-family="Times,serif" font-size="14.00">store_id :integer</text>
<text text-anchor="start" x="854.5" y="-609.8" font-family="Times,serif" font-size="14.00">name :string</text>
<text text-anchor="start" x="854.5" y="-594.8" font-family="Times,serif" font-size="14.00">website :string</text>
<text text-anchor="start" x="854.5" y="-579.8" font-family="Times,serif" font-size="14.00">street_address :string</text>
<text text-anchor="start" x="854.5" y="-564.8" font-family="Times,serif" font-size="14.00">zip_code :string</text>
<text text-anchor="start" x="854.5" y="-549.8" font-family="Times,serif" font-size="14.00">created_by :integer</text>
<text text-anchor="start" x="854.5" y="-534.8" font-family="Times,serif" font-size="14.00">created_date :timestamp</text>
<text text-anchor="start" x="854.5" y="-519.8" font-family="Times,serif" font-size="14.00">modified_by :integer</text>
<text text-anchor="start" x="854.5" y="-504.8" font-family="Times,serif" font-size="14.00">modified_date :timestamp</text>
</g>
<!-- Store&#45;&gt;Storeproduct -->
<g id="edge19" class="edge"><title>Store&#45;&gt;Storeproduct</title>
<path fill="none" stroke="#c7c33c" d="M974.558,-489.184C975.831,-485.45 976.987,-481.713 978,-478 999.041,-400.859 1001.39,-308.196 1000.08,-248.258"/>
<ellipse fill="none" stroke="#c7c33c" cx="973.152" cy="-493.077" rx="4.00001" ry="4.00001"/>
<polygon fill="#c7c33c" stroke="#c7c33c" points="1000.08,-248.19 1004.32,-238.076 999.949,-243.191 999.819,-238.193 999.819,-238.193 999.819,-238.193 999.949,-243.191 995.32,-238.31 1000.08,-248.19 1000.08,-248.19"/>
</g>
<!-- Products -->
<g id="node17" class="node"><title>Products</title>
<ellipse fill="none" stroke="black" cx="927" cy="-375" rx="41.394" ry="18"/>
<text text-anchor="middle" x="927" y="-371.3" font-family="Times,serif" font-size="14.00">Products</text>
</g>
<!-- Store&#45;&gt;Products -->
<g id="edge20" class="edge"><title>Store&#45;&gt;Products</title>
<path fill="none" stroke="#57958d" d="M927,-486.281C927,-456.08 927,-424.834 927,-403.347"/>
<polygon fill="#57958d" stroke="#57958d" points="927,-486.725 922.5,-496.725 927,-491.725 927,-496.725 927,-496.725 927,-496.725 927,-491.725 931.5,-496.725 927,-486.725 927,-486.725"/>
<polygon fill="#57958d" stroke="#57958d" points="927,-403.057 931.5,-393.057 927,-398.057 927,-393.057 927,-393.057 927,-393.057 927,-398.057 922.5,-393.057 927,-403.057 927,-403.057"/>
<text text-anchor="middle" x="950.5" y="-466.3" font-family="Times,serif" font-size="14.00">products</text>
</g>
<!-- Admin -->
<g id="node12" class="node"><title>Admin</title>
<path fill="none" stroke="black" d="M232.5,-512C232.5,-512 345.5,-512 345.5,-512 351.5,-512 357.5,-518 357.5,-524 357.5,-524 357.5,-636 357.5,-636 357.5,-642 351.5,-648 345.5,-648 345.5,-648 232.5,-648 232.5,-648 226.5,-648 220.5,-642 220.5,-636 220.5,-636 220.5,-524 220.5,-524 220.5,-518 226.5,-512 232.5,-512"/>
<text text-anchor="middle" x="289" y="-632.8" font-family="Times,serif" font-size="14.00">Admin</text>
<polyline fill="none" stroke="black" points="220.5,-625 357.5,-625 "/>
<text text-anchor="start" x="228.5" y="-609.8" font-family="Times,serif" font-size="14.00">admin_id :integer</text>
<text text-anchor="start" x="228.5" y="-594.8" font-family="Times,serif" font-size="14.00">nick :string</text>
<text text-anchor="start" x="228.5" y="-579.8" font-family="Times,serif" font-size="14.00">first_name :string</text>
<text text-anchor="start" x="228.5" y="-564.8" font-family="Times,serif" font-size="14.00">last_name :string</text>
<text text-anchor="start" x="228.5" y="-549.8" font-family="Times,serif" font-size="14.00">email :string</text>
<text text-anchor="start" x="228.5" y="-534.8" font-family="Times,serif" font-size="14.00">password_hash :string</text>
<text text-anchor="start" x="228.5" y="-519.8" font-family="Times,serif" font-size="14.00">password_salt :string</text>
</g>
<!-- Admin&#45;&gt;Product -->
<g id="edge24" class="edge"><title>Admin&#45;&gt;Product</title>
<path fill="none" stroke="#1a4e14" d="M293.812,-503.855C294.865,-487.418 295.981,-469.99 297.039,-453.465"/>
<ellipse fill="none" stroke="#1a4e14" cx="293.548" cy="-507.976" rx="4" ry="4"/>
<polygon fill="#1a4e14" stroke="#1a4e14" points="297.05,-453.288 302.18,-443.596 297.37,-448.298 297.69,-443.309 297.69,-443.309 297.69,-443.309 297.37,-448.298 293.199,-443.021 297.05,-453.288 297.05,-453.288"/>
</g>
<!-- Admin&#45;&gt;Feature -->
<g id="edge23" class="edge"><title>Admin&#45;&gt;Feature</title>
<path fill="none" stroke="#bca6ce" d="M244.285,-504.889C233.187,-485.37 221.703,-464.133 212,-444 183.27,-384.387 155.748,-314.56 136.393,-262.594"/>
<ellipse fill="none" stroke="#bca6ce" cx="246.366" cy="-508.525" rx="4.00002" ry="4.00002"/>
<polygon fill="#bca6ce" stroke="#bca6ce" points="136.351,-262.481 137.095,-251.541 134.613,-257.793 132.876,-253.105 132.876,-253.105 132.876,-253.105 134.613,-257.793 128.656,-254.669 136.351,-262.481 136.351,-262.481"/>
</g>
<!-- Storeuser -->
<g id="node13" class="node"><title>Storeuser</title>
<path fill="none" stroke="black" d="M1076.5,-504.5C1076.5,-504.5 1189.5,-504.5 1189.5,-504.5 1195.5,-504.5 1201.5,-510.5 1201.5,-516.5 1201.5,-516.5 1201.5,-643.5 1201.5,-643.5 1201.5,-649.5 1195.5,-655.5 1189.5,-655.5 1189.5,-655.5 1076.5,-655.5 1076.5,-655.5 1070.5,-655.5 1064.5,-649.5 1064.5,-643.5 1064.5,-643.5 1064.5,-516.5 1064.5,-516.5 1064.5,-510.5 1070.5,-504.5 1076.5,-504.5"/>
<text text-anchor="middle" x="1133" y="-640.3" font-family="Times,serif" font-size="14.00">Storeuser</text>
<polyline fill="none" stroke="black" points="1064.5,-632.5 1201.5,-632.5 "/>
<text text-anchor="start" x="1072.5" y="-617.3" font-family="Times,serif" font-size="14.00">store_user_id :integer</text>
<text text-anchor="start" x="1072.5" y="-602.3" font-family="Times,serif" font-size="14.00">nick :string</text>
<text text-anchor="start" x="1072.5" y="-587.3" font-family="Times,serif" font-size="14.00">first_name :string</text>
<text text-anchor="start" x="1072.5" y="-572.3" font-family="Times,serif" font-size="14.00">last_name :string</text>
<text text-anchor="start" x="1072.5" y="-557.3" font-family="Times,serif" font-size="14.00">email :string</text>
<text text-anchor="start" x="1072.5" y="-542.3" font-family="Times,serif" font-size="14.00">store_id :integer</text>
<text text-anchor="start" x="1072.5" y="-527.3" font-family="Times,serif" font-size="14.00">password_hash :string</text>
<text text-anchor="start" x="1072.5" y="-512.3" font-family="Times,serif" font-size="14.00">password_salt :string</text>
</g>
<!-- ActiveRecord::Base -->
<g id="node14" class="node"><title>ActiveRecord::Base</title>
<ellipse fill="none" stroke="black" cx="512" cy="-741" rx="81.3646" ry="18"/>
<text text-anchor="middle" x="512" y="-737.3" font-family="Times,serif" font-size="14.00">ActiveRecord::Base</text>
</g>
<!-- ActiveRecord::Base&#45;&gt;Productphoto -->
<g id="edge1" class="edge"><title>ActiveRecord::Base&#45;&gt;Productphoto</title>
<path fill="none" stroke="black" d="M502.872,-723.086C495.315,-708.063 485.168,-685.255 481,-664 434.124,-424.965 575.25,-344.184 490,-116 484.679,-101.758 475.352,-88.4185 465.357,-77.0131"/>
</g>
<!-- ActiveRecord::Base&#45;&gt;Adminalert -->
<g id="edge2" class="edge"><title>ActiveRecord::Base&#45;&gt;Adminalert</title>
<path fill="none" stroke="black" d="M517.351,-722.984C525.161,-698.149 539.881,-651.338 550.281,-618.266"/>
</g>
<!-- ActiveRecord::Base&#45;&gt;User -->
<g id="edge5" class="edge"><title>ActiveRecord::Base&#45;&gt;User</title>
<path fill="none" stroke="black" d="M544.618,-724.453C572.181,-710.548 612.009,-688.607 643,-664 646.097,-661.541 649.187,-658.959 652.25,-656.289"/>
</g>
<!-- ActiveRecord::Base&#45;&gt;Review -->
<g id="edge6" class="edge"><title>ActiveRecord::Base&#45;&gt;Review</title>
<path fill="none" stroke="black" d="M580.825,-731.36C656.744,-720.25 771.693,-698.211 798,-664 847.997,-598.983 831.473,-499.073 813.139,-435.661"/>
</g>
<!-- ActiveRecord::Base&#45;&gt;Product -->
<g id="edge13" class="edge"><title>ActiveRecord::Base&#45;&gt;Product</title>
<path fill="none" stroke="black" d="M468.635,-725.727C447.986,-716.82 424.658,-703.309 410,-684 358.114,-615.649 396.224,-576.315 366,-496 359.347,-478.321 350.602,-459.973 341.723,-443.1"/>
</g>
<!-- ActiveRecord::Base&#45;&gt;Productsfeature -->
<g id="edge14" class="edge"><title>ActiveRecord::Base&#45;&gt;Productsfeature</title>
<path fill="none" stroke="black" d="M481.157,-724.211C464.146,-716.218 442.393,-707.142 422,-702 232.808,-654.298 0,-776.113 0,-581 0,-581 0,-581 0,-184 0,-152.62 2.04005,-142.402 19,-116 28.2846,-101.547 41.1661,-88.3956 54.2845,-77.2484"/>
</g>
<!-- ActiveRecord::Base&#45;&gt;Feature -->
<g id="edge16" class="edge"><title>ActiveRecord::Base&#45;&gt;Feature</title>
<path fill="none" stroke="black" d="M479.724,-724.32C462.854,-716.655 441.672,-707.846 422,-702 330.661,-674.858 281.278,-728.346 211,-664 95.845,-558.565 93.532,-357.757 101.34,-253.143"/>
</g>
<!-- ActiveRecord::Base&#45;&gt;Photo -->
<g id="edge18" class="edge"><title>ActiveRecord::Base&#45;&gt;Photo</title>
<path fill="none" stroke="black" d="M484.853,-723.836C471.229,-714.138 455.964,-700.484 448,-684 372.22,-527.147 400.754,-309.142 416.425,-223.068"/>
</g>
<!-- ActiveRecord::Base&#45;&gt;Store -->
<g id="edge21" class="edge"><title>ActiveRecord::Base&#45;&gt;Store</title>
<path fill="none" stroke="black" d="M593.298,-739.974C660.961,-736.743 757.861,-724.456 832,-684 842.357,-678.349 852.199,-671.142 861.35,-663.171"/>
</g>
<!-- ActiveRecord::Base&#45;&gt;Storeproduct -->
<g id="edge22" class="edge"><title>ActiveRecord::Base&#45;&gt;Storeproduct</title>
<path fill="none" stroke="black" d="M593.178,-740.041C721.561,-738.185 962.43,-726.253 1016,-664 1022.22,-656.77 1018.96,-320.459 1014,-272 1012.87,-260.948 1011,-249.205 1008.91,-238.066"/>
</g>
<!-- ActiveRecord::Base&#45;&gt;Admin -->
<g id="edge25" class="edge"><title>ActiveRecord::Base&#45;&gt;Admin</title>
<path fill="none" stroke="black" d="M476.701,-724.576C460.174,-717.489 440.167,-709.099 422,-702 400.002,-693.403 391.236,-697.705 372,-684 358.159,-674.139 345.385,-661.373 334.217,-648.204"/>
</g>
<!-- ActiveRecord::Base&#45;&gt;Storeuser -->
<g id="edge26" class="edge"><title>ActiveRecord::Base&#45;&gt;Storeuser</title>
<path fill="none" stroke="black" d="M592.68,-739.104C723.031,-736.423 973.124,-725.81 1050,-684 1063.11,-676.868 1074.92,-666.718 1085.23,-655.541"/>
</g>
</g>
</svg>
