<?xml version="1.0" encoding="UTF-8" standalone="no"?>
<!DOCTYPE svg PUBLIC "-//W3C//DTD SVG 1.1//EN"
 "http://www.w3.org/Graphics/SVG/1.1/DTD/svg11.dtd">
<!-- Generated by graphviz version 2.36.0 (20140111.2315)
 -->
<!-- Title: models_diagram Pages: 1 -->
<svg width="926pt" height="410pt"
 viewBox="0.00 0.00 926.00 410.00" xmlns="http://www.w3.org/2000/svg" xmlns:xlink="http://www.w3.org/1999/xlink">
<g id="graph0" class="graph" transform="scale(1 1) rotate(0) translate(4 406)">
<title>models_diagram</title>
<polygon fill="white" stroke="none" points="-4,4 -4,-406 922,-406 922,4 -4,4"/>
<!-- _diagram_info -->
<g id="node1" class="node"><title>_diagram_info</title>
<text text-anchor="start" x="114" y="-387.6" font-family="Times,serif" font-size="13.00">Models diagram</text>
<text text-anchor="start" x="114" y="-373.6" font-family="Times,serif" font-size="13.00">Date: Jun 14 2014 &#45; 01:42</text>
<text text-anchor="start" x="114" y="-359.6" font-family="Times,serif" font-size="13.00">Migration version: 0</text>
<text text-anchor="start" x="114" y="-345.6" font-family="Times,serif" font-size="13.00">Generated by RailRoady 1.1.1</text>
<text text-anchor="start" x="114" y="-331.6" font-family="Times,serif" font-size="13.00">http://railroady.prestonlee.com</text>
</g>
<!-- Productphoto -->
<g id="node2" class="node"><title>Productphoto</title>
<ellipse fill="none" stroke="black" cx="309" cy="-18" rx="57.2688" ry="18"/>
<text text-anchor="middle" x="309" y="-14.3" font-family="Times,serif" font-size="14.00">Productphoto</text>
</g>
<!-- Adminalert -->
<g id="node3" class="node"><title>Adminalert</title>
<ellipse fill="none" stroke="black" cx="426" cy="-268" rx="51.0191" ry="18"/>
<text text-anchor="middle" x="426" y="-264.3" font-family="Times,serif" font-size="14.00">Adminalert</text>
</g>
<!-- User -->
<g id="node4" class="node"><title>User</title>
<ellipse fill="none" stroke="black" cx="523" cy="-268" rx="26.949" ry="18"/>
<text text-anchor="middle" x="523" y="-264.3" font-family="Times,serif" font-size="14.00">User</text>
</g>
<!-- Review -->
<g id="node5" class="node"><title>Review</title>
<ellipse fill="none" stroke="black" cx="597" cy="-180" rx="37.5442" ry="18"/>
<text text-anchor="middle" x="597" y="-176.3" font-family="Times,serif" font-size="14.00">Review</text>
</g>
<!-- User&#45;&gt;Review -->
<g id="edge3" class="edge"><title>User&#45;&gt;Review</title>
<path fill="none" stroke="#a9cb4e" d="M541.174,-245.879C551.937,-233.371 565.598,-217.494 576.712,-204.578"/>
<ellipse fill="none" stroke="#a9cb4e" cx="538.499" cy="-248.988" rx="4.00002" ry="4.00002"/>
<polygon fill="#a9cb4e" stroke="#a9cb4e" points="576.732,-204.555 586.666,-199.909 579.993,-200.764 583.255,-196.974 583.255,-196.974 583.255,-196.974 579.993,-200.764 579.844,-194.039 576.732,-204.555 576.732,-204.555"/>
</g>
<!-- Userwatchedproduct -->
<g id="node15" class="node"><title>Userwatchedproduct</title>
<ellipse fill="none" stroke="black" cx="458" cy="-180" rx="83.2892" ry="18"/>
<text text-anchor="middle" x="458" y="-176.3" font-family="Times,serif" font-size="14.00">Userwatchedproduct</text>
</g>
<!-- User&#45;&gt;Userwatchedproduct -->
<g id="edge4" class="edge"><title>User&#45;&gt;Userwatchedproduct</title>
<path fill="none" stroke="#7f788d" d="M506.553,-245.239C497.557,-233.336 486.369,-218.535 477.002,-206.141"/>
<ellipse fill="none" stroke="#7f788d" cx="508.967" cy="-248.434" rx="4.00002" ry="4.00002"/>
<polygon fill="#7f788d" stroke="#7f788d" points="476.886,-205.988 474.446,-195.297 473.871,-201.999 470.856,-198.01 470.856,-198.01 470.856,-198.01 473.871,-201.999 467.267,-200.723 476.886,-205.988 476.886,-205.988"/>
</g>
<!-- Product -->
<g id="node6" class="node"><title>Product</title>
<ellipse fill="none" stroke="black" cx="225" cy="-180" rx="38.0212" ry="18"/>
<text text-anchor="middle" x="225" y="-176.3" font-family="Times,serif" font-size="14.00">Product</text>
</g>
<!-- Product&#45;&gt;Productphoto -->
<g id="edge9" class="edge"><title>Product&#45;&gt;Productphoto</title>
<path fill="none" stroke="#80b956" d="M233.507,-154.275C241.426,-132.504 254.21,-100.267 269,-74 274.854,-63.6026 282.32,-52.8428 289.213,-43.6272"/>
<ellipse fill="none" stroke="#80b956" cx="232.064" cy="-158.306" rx="4.00001" ry="4.00001"/>
<polygon fill="#80b956" stroke="#80b956" points="289.24,-43.5924 298.892,-38.3886 292.279,-39.6226 295.319,-35.6527 295.319,-35.6527 295.319,-35.6527 292.279,-39.6226 291.746,-32.9169 289.24,-43.5924 289.24,-43.5924"/>
</g>
<!-- Productsfeature -->
<g id="node7" class="node"><title>Productsfeature</title>
<ellipse fill="none" stroke="black" cx="65" cy="-18" rx="65.4659" ry="18"/>
<text text-anchor="middle" x="65" y="-14.3" font-family="Times,serif" font-size="14.00">Productsfeature</text>
</g>
<!-- Product&#45;&gt;Productsfeature -->
<g id="edge7" class="edge"><title>Product&#45;&gt;Productsfeature</title>
<path fill="none" stroke="#c7c413" d="M201.18,-158.344C185.946,-144.899 165.94,-126.8 149,-110 126.96,-88.1413 103.063,-61.9946 86.4132,-43.3487"/>
<ellipse fill="none" stroke="#c7c413" cx="204.388" cy="-161.163" rx="4.00002" ry="4.00002"/>
<polygon fill="#c7c413" stroke="#c7c413" points="86.3921,-43.3249 83.1111,-32.8613 83.07,-39.588 79.748,-35.8512 79.748,-35.8512 79.748,-35.8512 83.07,-39.588 76.3848,-38.8411 86.3921,-43.3249 86.3921,-43.3249"/>
</g>
<!-- Feature -->
<g id="node8" class="node"><title>Feature</title>
<ellipse fill="none" stroke="black" cx="65" cy="-92" rx="37.0701" ry="18"/>
<text text-anchor="middle" x="65" y="-88.3" font-family="Times,serif" font-size="14.00">Feature</text>
</g>
<!-- Product&#45;&gt;Feature -->
<g id="edge8" class="edge"><title>Product&#45;&gt;Feature</title>
<path fill="none" stroke="#c096c3" d="M181.182,-169.181C161.326,-163.588 138.079,-155.381 119,-144 106.766,-136.702 95.0354,-126.206 85.6515,-116.631"/>
<polygon fill="#c096c3" stroke="#c096c3" points="181.261,-169.202 189.753,-176.14 186.09,-170.498 190.919,-171.794 190.919,-171.794 190.919,-171.794 186.09,-170.498 192.086,-167.448 181.261,-169.202 181.261,-169.202"/>
<polygon fill="#c096c3" stroke="#c096c3" points="85.5282,-116.5 81.9367,-106.139 82.0962,-112.864 78.6642,-109.228 78.6642,-109.228 78.6642,-109.228 82.0962,-112.864 75.3916,-112.316 85.5282,-116.5 85.5282,-116.5"/>
</g>
<!-- Photo -->
<g id="node9" class="node"><title>Photo</title>
<ellipse fill="none" stroke="black" cx="309" cy="-92" rx="31.2965" ry="18"/>
<text text-anchor="middle" x="309" y="-88.3" font-family="Times,serif" font-size="14.00">Photo</text>
</g>
<!-- Product&#45;&gt;Photo -->
<g id="edge10" class="edge"><title>Product&#45;&gt;Photo</title>
<path fill="none" stroke="#d6f1e3" d="M250.444,-156.944C255.044,-152.738 259.732,-148.304 264,-144 272.657,-135.269 281.717,-125.204 289.419,-116.333"/>
<polygon fill="#d6f1e3" stroke="#d6f1e3" points="250.314,-157.06 239.867,-160.393 246.594,-160.401 242.874,-163.741 242.874,-163.741 242.874,-163.741 246.594,-160.401 245.881,-167.089 250.314,-157.06 250.314,-157.06"/>
<polygon fill="#d6f1e3" stroke="#d6f1e3" points="289.547,-116.184 299.475,-111.527 292.804,-112.39 296.06,-108.596 296.06,-108.596 296.06,-108.596 292.804,-112.39 292.646,-105.665 289.547,-116.184 289.547,-116.184"/>
</g>
<!-- Storeproduct -->
<g id="node11" class="node"><title>Storeproduct</title>
<ellipse fill="none" stroke="black" cx="764" cy="-92" rx="55.3436" ry="18"/>
<text text-anchor="middle" x="764" y="-88.3" font-family="Times,serif" font-size="14.00">Storeproduct</text>
</g>
<!-- Product&#45;&gt;Storeproduct -->
<g id="edge11" class="edge"><title>Product&#45;&gt;Storeproduct</title>
<path fill="none" stroke="#b4aa50" d="M268.84,-172.005C365.366,-156.604 596.318,-119.754 705.244,-102.375"/>
<ellipse fill="none" stroke="#b4aa50" cx="264.733" cy="-172.66" rx="4.00001" ry="4.00001"/>
<polygon fill="#b4aa50" stroke="#b4aa50" points="705.521,-102.331 716.105,-105.199 710.458,-101.543 715.396,-100.755 715.396,-100.755 715.396,-100.755 710.458,-101.543 714.687,-96.3112 705.521,-102.331 705.521,-102.331"/>
</g>
<!-- Stores -->
<g id="node16" class="node"><title>Stores</title>
<ellipse fill="none" stroke="black" cx="190" cy="-92" rx="32.2457" ry="18"/>
<text text-anchor="middle" x="190" y="-88.3" font-family="Times,serif" font-size="14.00">Stores</text>
</g>
<!-- Product&#45;&gt;Stores -->
<g id="edge12" class="edge"><title>Product&#45;&gt;Stores</title>
<path fill="none" stroke="#a92ba2" d="M208.853,-153.915C207.079,-150.648 205.408,-147.292 204,-144 200.736,-136.369 198.032,-127.769 195.899,-119.835"/>
<polygon fill="#a92ba2" stroke="#a92ba2" points="208.968,-154.113 210.107,-165.02 211.483,-158.435 213.997,-162.757 213.997,-162.757 213.997,-162.757 211.483,-158.435 217.887,-160.494 208.968,-154.113 208.968,-154.113"/>
<polygon fill="#a92ba2" stroke="#a92ba2" points="195.847,-119.629 197.791,-108.836 194.636,-114.778 193.425,-109.927 193.425,-109.927 193.425,-109.927 194.636,-114.778 189.059,-111.017 195.847,-119.629 195.847,-119.629"/>
<text text-anchor="middle" x="220" y="-132.3" font-family="Times,serif" font-size="14.00">stores</text>
</g>
<!-- Feature&#45;&gt;Productsfeature -->
<g id="edge15" class="edge"><title>Feature&#45;&gt;Productsfeature</title>
<path fill="none" stroke="#a4aa44" d="M65,-65.7923C65,-59.5805 65,-52.8963 65,-46.5786"/>
<ellipse fill="none" stroke="#a4aa44" cx="65" cy="-69.937" rx="4" ry="4"/>
<polygon fill="#a4aa44" stroke="#a4aa44" points="65.0001,-46.4407 69.5,-36.4406 65,-41.4407 65,-36.4407 65,-36.4407 65,-36.4407 65,-41.4407 60.5,-36.4407 65.0001,-46.4407 65.0001,-46.4407"/>
</g>
<!-- Photo&#45;&gt;Productphoto -->
<g id="edge17" class="edge"><title>Photo&#45;&gt;Productphoto</title>
<path fill="none" stroke="#8be4c6" d="M309,-65.7923C309,-59.5805 309,-52.8963 309,-46.5786"/>
<ellipse fill="none" stroke="#8be4c6" cx="309" cy="-69.937" rx="4" ry="4"/>
<polygon fill="#8be4c6" stroke="#8be4c6" points="309,-46.4407 313.5,-36.4406 309,-41.4407 309,-36.4407 309,-36.4407 309,-36.4407 309,-41.4407 304.5,-36.4407 309,-46.4407 309,-46.4407"/>
</g>
<!-- Store -->
<g id="node10" class="node"><title>Store</title>
<ellipse fill="none" stroke="black" cx="694" cy="-268" rx="29.3722" ry="18"/>
<text text-anchor="middle" x="694" y="-264.3" font-family="Times,serif" font-size="14.00">Store</text>
</g>
<!-- Store&#45;&gt;Storeproduct -->
<g id="edge19" class="edge"><title>Store&#45;&gt;Storeproduct</title>
<path fill="none" stroke="#b2f946" d="M724.235,-252.238C732.191,-246.931 739.951,-240.188 745,-232 766.065,-197.842 767.885,-150.074 766.507,-120.364"/>
<ellipse fill="none" stroke="#b2f946" cx="720.356" cy="-254.617" rx="4.00002" ry="4.00002"/>
<polygon fill="#b2f946" stroke="#b2f946" points="766.501,-120.276 770.375,-110.017 766.193,-115.285 765.884,-110.295 765.884,-110.295 765.884,-110.295 766.193,-115.285 761.393,-110.572 766.501,-120.276 766.501,-120.276"/>
</g>
<!-- Products -->
<g id="node17" class="node"><title>Products</title>
<ellipse fill="none" stroke="black" cx="694" cy="-180" rx="41.394" ry="18"/>
<text text-anchor="middle" x="694" y="-176.3" font-family="Times,serif" font-size="14.00">Products</text>
</g>
<!-- Store&#45;&gt;Products -->
<g id="edge20" class="edge"><title>Store&#45;&gt;Products</title>
<path fill="none" stroke="#f9e5aa" d="M694,-239.342C694,-229.378 694,-218.149 694,-208.223"/>
<polygon fill="#f9e5aa" stroke="#f9e5aa" points="694,-239.597 689.5,-249.597 694,-244.597 694,-249.597 694,-249.597 694,-249.597 694,-244.597 698.5,-249.597 694,-239.597 694,-239.597"/>
<polygon fill="#f9e5aa" stroke="#f9e5aa" points="694,-208.084 698.5,-198.084 694,-203.084 694,-198.084 694,-198.084 694,-198.084 694,-203.084 689.5,-198.084 694,-208.084 694,-208.084"/>
<text text-anchor="middle" x="717.5" y="-220.3" font-family="Times,serif" font-size="14.00">products</text>
</g>
<!-- Admin -->
<g id="node12" class="node"><title>Admin</title>
<ellipse fill="none" stroke="black" cx="207" cy="-268" rx="35.6194" ry="18"/>
<text text-anchor="middle" x="207" y="-264.3" font-family="Times,serif" font-size="14.00">Admin</text>
</g>
<!-- Admin&#45;&gt;Product -->
<g id="edge24" class="edge"><title>Admin&#45;&gt;Product</title>
<path fill="none" stroke="#fb8a06" d="M212.212,-242.097C214.46,-231.359 217.093,-218.779 219.384,-207.834"/>
<ellipse fill="none" stroke="#fb8a06" cx="211.376" cy="-246.094" rx="4.00001" ry="4.00001"/>
<polygon fill="#fb8a06" stroke="#fb8a06" points="219.402,-207.743 225.856,-198.877 220.427,-202.849 221.451,-197.956 221.451,-197.956 221.451,-197.956 220.427,-202.849 217.047,-197.034 219.402,-207.743 219.402,-207.743"/>
</g>
<!-- Admin&#45;&gt;Feature -->
<g id="edge23" class="edge"><title>Admin&#45;&gt;Feature</title>
<path fill="none" stroke="#da2c72" d="M185.009,-246.085C160.991,-222.589 122.193,-182.664 94,-144 88.2446,-136.107 82.7314,-126.97 78.0866,-118.629"/>
<ellipse fill="none" stroke="#da2c72" cx="187.912" cy="-248.906" rx="4.00002" ry="4.00002"/>
<polygon fill="#da2c72" stroke="#da2c72" points="77.9947,-118.459 77.205,-107.521 75.6199,-114.059 73.245,-109.659 73.245,-109.659 73.245,-109.659 75.6199,-114.059 69.285,-111.796 77.9947,-118.459 77.9947,-118.459"/>
</g>
<!-- Storeuser -->
<g id="node13" class="node"><title>Storeuser</title>
<ellipse fill="none" stroke="black" cx="874" cy="-268" rx="44.2946" ry="18"/>
<text text-anchor="middle" x="874" y="-264.3" font-family="Times,serif" font-size="14.00">Storeuser</text>
</g>
<!-- ActiveRecord::Base -->
<g id="node14" class="node"><title>ActiveRecord::Base</title>
<ellipse fill="none" stroke="black" cx="387" cy="-363" rx="81.3646" ry="18"/>
<text text-anchor="middle" x="387" y="-359.3" font-family="Times,serif" font-size="14.00">ActiveRecord::Base</text>
</g>
<!-- ActiveRecord::Base&#45;&gt;Productphoto -->
<g id="edge1" class="edge"><title>ActiveRecord::Base&#45;&gt;Productphoto</title>
<path fill="none" stroke="black" d="M381.306,-345.008C376.432,-329.743 369.642,-306.625 366,-286 349.561,-192.916 381.803,-162.65 349,-74 343.673,-59.605 333.442,-45.6469 324.66,-35.394"/>
</g>
<!-- ActiveRecord::Base&#45;&gt;Adminalert -->
<g id="edge2" class="edge"><title>ActiveRecord::Base&#45;&gt;Adminalert</title>
<path fill="none" stroke="black" d="M394.153,-344.942C401.19,-328.162 411.871,-302.692 418.892,-285.949"/>
</g>
<!-- ActiveRecord::Base&#45;&gt;User -->
<g id="edge5" class="edge"><title>ActiveRecord::Base&#45;&gt;User</title>
<path fill="none" stroke="black" d="M411.001,-345.588C437.69,-327.337 480.228,-298.249 504.474,-281.669"/>
</g>
<!-- ActiveRecord::Base&#45;&gt;Review -->
<g id="edge6" class="edge"><title>ActiveRecord::Base&#45;&gt;Review</title>
<path fill="none" stroke="black" d="M442.134,-349.791C479.643,-338.868 527.924,-319.292 559,-286 582.282,-261.058 591.512,-220.782 595.007,-198.046"/>
</g>
<!-- ActiveRecord::Base&#45;&gt;Product -->
<g id="edge13" class="edge"><title>ActiveRecord::Base&#45;&gt;Product</title>
<path fill="none" stroke="black" d="M352.574,-346.464C333.897,-336.79 311.354,-322.959 295,-306 263.577,-273.415 241.453,-223.983 231.289,-198.128"/>
</g>
<!-- ActiveRecord::Base&#45;&gt;Productsfeature -->
<g id="edge14" class="edge"><title>ActiveRecord::Base&#45;&gt;Productsfeature</title>
<path fill="none" stroke="black" d="M355.169,-346.416C338.24,-338.681 316.868,-329.78 297,-324 232.55,-305.251 0,-336.122 0,-269 0,-269 0,-269 0,-91 0,-66.9184 20.2818,-47.2745 38.1867,-34.6247"/>
</g>
<!-- ActiveRecord::Base&#45;&gt;Feature -->
<g id="edge16" class="edge"><title>ActiveRecord::Base&#45;&gt;Feature</title>
<path fill="none" stroke="black" d="M353.203,-346.546C336.486,-339.207 315.888,-330.617 297,-324 238.173,-303.393 212.321,-322.784 162,-286 101.299,-241.629 76.18,-148.373 68.1415,-110.024"/>
</g>
<!-- ActiveRecord::Base&#45;&gt;Photo -->
<g id="edge18" class="edge"><title>ActiveRecord::Base&#45;&gt;Photo</title>
<path fill="none" stroke="black" d="M365.246,-345.495C353.648,-335.424 340.301,-321.521 333,-306 301.477,-238.99 304.46,-147.452 307.351,-110.01"/>
</g>
<!-- ActiveRecord::Base&#45;&gt;Store -->
<g id="edge21" class="edge"><title>ActiveRecord::Base&#45;&gt;Store</title>
<path fill="none" stroke="black" d="M441.625,-349.663C485.19,-339.356 547.547,-323.554 601,-306 625.269,-298.03 652.331,-287.013 670.976,-279.077"/>
</g>
<!-- ActiveRecord::Base&#45;&gt;Storeproduct -->
<g id="edge22" class="edge"><title>ActiveRecord::Base&#45;&gt;Storeproduct</title>
<path fill="none" stroke="black" d="M456.211,-353.567C543.963,-341.735 689.025,-318.014 732,-286 785.425,-246.201 777.538,-210.574 780,-144 780.263,-136.894 781.513,-134.948 780,-128 778.664,-121.863 776.152,-115.514 773.507,-109.936"/>
</g>
<!-- ActiveRecord::Base&#45;&gt;Admin -->
<g id="edge25" class="edge"><title>ActiveRecord::Base&#45;&gt;Admin</title>
<path fill="none" stroke="black" d="M351.064,-346.76C314.128,-331.06 261.394,-308.527 257,-306 245.767,-299.54 234.078,-291.006 224.83,-283.762"/>
</g>
<!-- ActiveRecord::Base&#45;&gt;Storeuser -->
<g id="edge26" class="edge"><title>ActiveRecord::Base&#45;&gt;Storeuser</title>
<path fill="none" stroke="black" d="M468.138,-361.825C556.296,-359.278 700.06,-348.167 816,-306 829.918,-300.938 843.961,-292.099 854.743,-284.329"/>
</g>
</g>
</svg>
